<svg width="180" height="51" viewBox="0 0 180 51" fill="none" xmlns="http://www.w3.org/2000/svg">
<g clip-path="url(#clip0_33_437)">
<path d="M155.832 19.6942V19.4501H155.856C156.442 19.4501 156.914 19.2712 157.272 18.9131C157.63 18.5551 157.809 18.0832 157.809 17.4973V9.49076C157.809 8.87235 157.679 8.3923 157.418 8.05056C157.174 7.70881 156.646 7.53794 155.832 7.53794V7.29384H158.248C158.916 7.29384 159.428 7.26132 159.786 7.1962C160.16 7.13112 160.437 7.04974 160.616 6.9521C160.795 6.8382 160.925 6.72425 161.006 6.61035H161.25L161.275 9.78369C161.698 8.93748 162.34 8.25399 163.203 7.73322C164.065 7.2125 164.976 6.9521 165.936 6.9521C166.864 6.9521 167.637 7.2125 168.255 7.73322C168.874 8.25399 169.272 8.95374 169.451 9.83251C169.906 8.95374 170.557 8.25399 171.404 7.73322C172.266 7.2125 173.193 6.9521 174.186 6.9521C175.276 6.9521 176.146 7.3101 176.797 8.02615C177.465 8.7422 177.798 9.68604 177.798 10.8577V17.4973C177.798 18.0832 177.977 18.5551 178.335 18.9131C178.693 19.2712 179.165 19.4501 179.751 19.4501H179.775V19.6942H172.331V19.4501H172.355C172.941 19.4501 173.413 19.2712 173.771 18.9131C174.129 18.5551 174.308 18.0832 174.308 17.4973V10.6136C174.308 9.79999 174.145 9.14902 173.82 8.66081C173.494 8.17261 173.072 7.92851 172.551 7.92851C172.046 7.92851 171.517 8.15635 170.964 8.61199C170.411 9.05138 169.931 9.62912 169.524 10.3451C169.54 10.3777 169.549 10.4184 169.549 10.4672C169.549 10.516 169.549 10.5567 169.549 10.5892V17.4973C169.549 18.0832 169.728 18.5551 170.086 18.9131C170.443 19.2712 170.915 19.4501 171.501 19.4501H171.526V19.6942H164.082V19.4501H164.106C164.692 19.4501 165.164 19.2712 165.522 18.9131C165.879 18.5551 166.058 18.0832 166.058 17.4973V10.6136C166.058 9.79999 165.896 9.14902 165.57 8.66081C165.261 8.17261 164.846 7.92851 164.326 7.92851C163.821 7.92851 163.292 8.1482 162.739 8.58758C162.202 9.01071 161.73 9.5884 161.324 10.3207V17.4973C161.324 18.0832 161.503 18.5551 161.861 18.9131C162.218 19.2712 162.69 19.4501 163.276 19.4501H163.301V19.6942H155.832Z" fill="#0A0A0A"/>
<path d="M150.701 20.3777L150.677 17.2288C150.253 18.0587 149.611 18.7341 148.748 19.2548C147.886 19.7756 146.975 20.036 146.015 20.036C144.924 20.036 144.046 19.678 143.379 18.9619C142.728 18.2459 142.403 17.302 142.403 16.1303V9.49072C142.403 8.87232 142.281 8.39226 142.037 8.05052C141.793 7.70878 141.256 7.5379 140.426 7.5379V7.2938H142.891C143.721 7.2938 144.355 7.20431 144.795 7.02529C145.201 6.84626 145.486 6.62657 145.649 6.36621H145.893V16.3744C145.893 17.1881 146.055 17.839 146.381 18.3272C146.706 18.8154 147.129 19.0595 147.65 19.0595C148.154 19.0595 148.675 18.848 149.212 18.4249C149.749 17.9855 150.221 17.3996 150.628 16.6673V9.49072C150.628 8.90488 150.481 8.43298 150.188 8.07493C149.896 7.71693 149.391 7.5379 148.675 7.5379V7.2938H151.14C151.97 7.2938 152.605 7.20431 153.044 7.02529C153.467 6.84626 153.76 6.62657 153.923 6.36621H154.167L154.142 17.4973C154.142 18.0831 154.321 18.5632 154.679 18.9375C155.037 19.2955 155.509 19.4745 156.095 19.4745V19.6942H153.679C153.255 19.6942 152.881 19.7024 152.556 19.7186C152.23 19.7512 151.962 19.7837 151.751 19.8163C151.311 19.9139 151.002 20.1011 150.823 20.3777H150.701Z" fill="#0A0A0A"/>
<path d="M135.569 20.036C135.146 20.036 134.829 20.0198 134.617 19.9872C134.406 19.9547 134.202 19.914 134.007 19.8652C133.828 19.8164 133.584 19.7757 133.275 19.7431C132.966 19.7106 132.494 19.6943 131.859 19.6943L131.273 15.1052H131.591C131.851 16.6349 132.339 17.7903 133.055 18.5714C133.771 19.3363 134.552 19.7187 135.398 19.7187C136.228 19.7187 136.854 19.5478 137.278 19.2061C137.717 18.8644 137.936 18.4006 137.936 17.8147C137.936 17.4405 137.839 17.115 137.644 16.8383C137.464 16.5454 137.147 16.2525 136.692 15.9595C136.236 15.6504 135.618 15.2842 134.837 14.8611L134.129 14.4705C133.234 13.966 132.567 13.3802 132.128 12.713C131.704 12.0295 131.493 11.2972 131.493 10.516C131.493 9.40948 131.892 8.53882 132.689 7.90415C133.503 7.26948 134.584 6.95215 135.935 6.95215C136.277 6.95215 136.554 6.96841 136.765 7.00097C136.976 7.03353 137.18 7.0742 137.375 7.12302C137.57 7.17184 137.814 7.21251 138.107 7.24507C138.4 7.27763 138.791 7.29389 139.279 7.29389L139.621 11.2239H139.328C139.23 10.4591 139.01 9.78374 138.669 9.19789C138.343 8.59579 137.953 8.13199 137.497 7.80651C137.042 7.46476 136.578 7.29389 136.106 7.29389C135.488 7.29389 134.992 7.45661 134.617 7.7821C134.259 8.10758 134.08 8.56322 134.08 9.14907C134.08 9.58846 134.218 9.99528 134.495 10.3696C134.788 10.7276 135.341 11.1182 136.155 11.5413L136.887 11.9074C138.026 12.4933 138.856 13.1035 139.376 13.7382C139.897 14.3729 140.158 15.1866 140.158 16.1792C140.158 18.7179 138.628 20.0035 135.569 20.036Z" fill="#0A0A0A"/>
<path d="M115.562 24.8204V24.5763H115.587C116.173 24.5763 116.645 24.3973 117.002 24.0392C117.361 23.6812 117.539 23.2093 117.539 22.6234V9.49072C117.523 8.77472 117.369 8.27021 117.076 7.97729C116.783 7.68436 116.279 7.5379 115.562 7.5379V7.2938H117.979C118.939 7.2938 119.598 7.20431 119.956 7.02529C120.314 6.84626 120.574 6.62657 120.737 6.36621H120.981L121.005 9.49072C121.38 8.75842 121.949 8.14816 122.714 7.65995C123.479 7.17175 124.284 6.92765 125.13 6.92765C126.041 6.92765 126.847 7.20431 127.546 7.7576C128.246 8.31088 128.791 9.0676 129.181 10.0277C129.589 10.9716 129.792 12.062 129.792 13.2987C129.792 14.6657 129.548 15.8537 129.059 16.8626C128.571 17.8716 127.88 18.6527 126.985 19.206C126.106 19.7593 125.057 20.036 123.836 20.036C123.17 20.036 122.624 19.9302 122.201 19.7186C121.778 19.5233 121.396 19.1897 121.054 18.7178V22.6234C121.054 23.2093 121.233 23.6812 121.591 24.0392C121.949 24.3973 122.421 24.5763 123.007 24.5763H123.031V24.8204H115.562ZM123.324 19.621C124.202 19.621 124.87 19.0758 125.325 17.9855C125.765 16.8789 125.984 15.2923 125.984 13.2255C125.984 9.6779 125.269 7.90406 123.836 7.90406C123.283 7.90406 122.738 8.12375 122.201 8.56313C121.664 9.00252 121.282 9.53954 121.054 10.1742V15.8618C121.054 17.0335 121.258 17.953 121.664 18.6202C122.071 19.2874 122.624 19.621 123.324 19.621Z" fill="#0A0A0A"/>
<path d="M108.902 19.6943V19.4502H108.927C109.513 19.4502 109.985 19.2712 110.342 18.9132C110.701 18.5552 110.879 18.0832 110.879 17.4974V9.49082C110.879 8.87241 110.749 8.39236 110.489 8.05062C110.245 7.70887 109.716 7.538 108.902 7.538V7.2939H111.392C112.222 7.2939 112.856 7.20441 113.296 7.02538C113.703 6.84636 113.987 6.62667 114.15 6.36631H114.394V17.4974C114.394 18.0832 114.573 18.5552 114.931 18.9132C115.289 19.2712 115.761 19.4502 116.346 19.4502H116.371V19.6943H108.902ZM112.612 4.82846C112.026 4.82846 111.538 4.64133 111.148 4.26703C110.774 3.87647 110.586 3.38826 110.586 2.80242C110.586 2.21657 110.774 1.7365 111.148 1.36221C111.538 0.971649 112.026 0.776367 112.612 0.776367C113.182 0.776367 113.654 0.971649 114.028 1.36221C114.418 1.75277 114.614 2.23284 114.614 2.80242C114.614 3.37199 114.418 3.85206 114.028 4.24262C113.654 4.63318 113.182 4.82846 112.612 4.82846Z" fill="#0A0A0A"/>
<path d="M101.901 20.036C100.567 20.036 99.3957 19.7675 98.3868 19.2305C97.3944 18.6935 96.6216 17.9368 96.0681 16.9604C95.515 15.9839 95.2383 14.8286 95.2383 13.4941C95.2383 12.1597 95.515 11.0043 96.0681 10.0278C96.6216 9.05143 97.3944 8.29471 98.3868 7.75769C99.3957 7.22066 100.567 6.95215 101.901 6.95215C103.236 6.95215 104.399 7.22066 105.392 7.75769C106.384 8.29471 107.157 9.05143 107.71 10.0278C108.264 11.0043 108.54 12.1597 108.54 13.4941C108.54 14.8286 108.264 15.9839 107.71 16.9604C107.157 17.9368 106.384 18.6935 105.392 19.2305C104.399 19.7675 103.236 20.036 101.901 20.036ZM101.877 19.7187C102.447 19.7187 102.935 19.4339 103.341 18.8644C103.748 18.2948 104.066 17.5381 104.293 16.5942C104.521 15.6341 104.635 14.5926 104.635 13.4697C104.635 12.2492 104.513 11.1751 104.269 10.2475C104.041 9.30368 103.716 8.57138 103.293 8.05061C102.886 7.51358 102.422 7.24507 101.901 7.24507C101.348 7.24507 100.86 7.52984 100.437 8.09943C100.03 8.66902 99.713 9.42574 99.4851 10.3696C99.2576 11.3135 99.1434 12.3468 99.1434 13.4697C99.1434 14.7065 99.2654 15.7968 99.5095 16.7407C99.7535 17.6845 100.079 18.4168 100.486 18.9376C100.909 19.4584 101.373 19.7187 101.877 19.7187Z" fill="#0A0A0A"/>
<path d="M88.6907 25.1622C86.9661 25.1622 85.5666 24.9262 84.4927 24.4543C83.4349 23.9987 82.9062 23.3966 82.9062 22.6479C82.9062 22.0784 83.1747 21.5658 83.7117 21.1101C84.2648 20.6707 85.0135 20.329 85.9571 20.0849C84.4278 19.6943 83.6629 19.0027 83.6629 18.01C83.6629 17.473 83.8742 16.9767 84.2974 16.521C84.7206 16.0491 85.3142 15.6748 86.0791 15.3981C85.2654 15.0401 84.6309 14.5193 84.1754 13.8358C83.7361 13.1524 83.5164 12.3468 83.5164 11.4192C83.5164 10.0685 83.9801 8.98635 84.9076 8.17266C85.8512 7.35901 87.1125 6.95215 88.6907 6.95215C89.439 6.95215 90.1712 7.06605 90.8873 7.29389H95.3781L95.134 7.73328H91.8147C92.4654 8.10758 92.9618 8.61205 93.3035 9.24671C93.6614 9.86512 93.8405 10.5893 93.8405 11.4192C93.8405 12.7699 93.3768 13.8603 92.4493 14.6902C91.538 15.5039 90.2854 15.9107 88.6907 15.9107C87.812 15.9107 87.0393 15.7805 86.372 15.5201C85.8512 15.7968 85.591 16.1223 85.591 16.4966C85.591 16.822 85.8189 17.0417 86.2744 17.1556C86.5023 17.2208 86.8275 17.2777 87.2507 17.3265C87.6739 17.3753 88.1864 17.4079 88.7883 17.4241L89.6425 17.473C91.5136 17.5381 92.9536 17.8961 93.9625 18.547C94.9876 19.1979 95.5001 20.0849 95.5001 21.2077C95.5001 22.4608 94.8983 23.4291 93.694 24.1126C92.4898 24.8123 90.8223 25.1622 88.6907 25.1622ZM88.6663 15.6178C89.1705 15.6178 89.5854 15.2354 89.911 14.4705C90.2039 13.7057 90.3503 12.6886 90.3503 11.4192C90.3503 10.1336 90.2039 9.11651 89.911 8.36794C89.602 7.63564 89.1949 7.26948 88.6907 7.26948C88.1698 7.26948 87.7632 7.63564 87.4703 8.36794C87.1774 9.11651 87.031 10.1336 87.031 11.4192C87.031 12.7048 87.1774 13.73 87.4703 14.4949C87.7632 15.2435 88.162 15.6178 88.6663 15.6178ZM88.9591 24.8449C89.7075 24.8449 90.3991 24.731 91.0337 24.5031C91.6683 24.2916 92.1725 23.9905 92.5469 23.5999C92.9374 23.2094 93.1327 22.7618 93.1327 22.2574C93.1327 21.7041 92.8481 21.2647 92.2785 20.9392C91.6766 20.63 90.7569 20.4673 89.5205 20.451L88.6663 20.4022C88.1942 20.3859 87.7549 20.3534 87.3483 20.3046C86.9578 20.272 86.6078 20.2232 86.2988 20.1581C85.9571 20.272 85.7048 20.4998 85.5422 20.8416C85.3796 21.1833 85.2981 21.5902 85.2981 22.0621C85.2981 22.9083 85.6154 23.5837 86.25 24.0881C86.8846 24.5927 87.7876 24.8449 88.9591 24.8449Z" fill="#0A0A0A"/>
<path d="M75.4677 20.036C74.1336 20.036 72.9621 19.7675 71.9532 19.2305C70.9608 18.6935 70.1876 17.9368 69.6345 16.9604C69.0814 15.9839 68.8047 14.8286 68.8047 13.4941C68.8047 12.1597 69.0814 11.0043 69.6345 10.0278C70.1876 9.05143 70.9608 8.29471 71.9532 7.75769C72.9621 7.22066 74.1336 6.95215 75.4677 6.95215C76.8018 6.95215 77.9655 7.22066 78.9579 7.75769C79.9503 8.29471 80.7235 9.05143 81.2766 10.0278C81.8296 11.0043 82.1064 12.1597 82.1064 13.4941C82.1064 14.8286 81.8296 15.9839 81.2766 16.9604C80.7235 17.9368 79.9503 18.6935 78.9579 19.2305C77.9655 19.7675 76.8018 20.036 75.4677 20.036ZM75.4433 19.7187C76.013 19.7187 76.5011 19.4339 76.9077 18.8644C77.3144 18.2948 77.6317 17.5381 77.8596 16.5942C78.0875 15.6341 78.2013 14.5926 78.2013 13.4697C78.2013 12.2492 78.0793 11.1751 77.8352 10.2475C77.6073 9.30368 77.2821 8.57138 76.8589 8.05061C76.4523 7.51358 75.9886 7.24507 75.4677 7.24507C74.9147 7.24507 74.4265 7.52984 74.0033 8.09943C73.5967 8.66902 73.2794 9.42574 73.0515 10.3696C72.8235 11.3135 72.7098 12.3468 72.7098 13.4697C72.7098 14.7065 72.8318 15.7968 73.0759 16.7407C73.3199 17.6845 73.6455 18.4168 74.0521 18.9376C74.4753 19.4584 74.9391 19.7187 75.4433 19.7187Z" fill="#0A0A0A"/>
<path d="M54.1758 19.6944V19.4503H54.2002C54.786 19.4503 55.2575 19.2957 55.6158 18.9865C55.9736 18.6773 56.1527 18.2298 56.1527 17.6439V3.58365C56.1527 2.9978 55.9736 2.52587 55.6158 2.16785C55.2575 1.80983 54.786 1.63083 54.2002 1.63083H54.1758V1.38672H61.9615V1.63083H61.8639C61.2782 1.63083 60.8061 1.80983 60.4483 2.16785C60.0901 2.52587 59.9114 2.9978 59.9114 3.58365V17.7416C59.9114 18.2624 60.0334 18.6692 60.2775 18.9621C60.5377 19.2388 60.9853 19.3771 61.6198 19.3771H62.1324C63.5802 19.3771 64.8006 18.9296 65.7934 18.0345C66.7858 17.1395 67.4121 15.8783 67.6727 14.2509H67.9168L67.1846 19.6944H54.1758Z" fill="#0A0A0A"/>
<path d="M155.362 50.8802C154.694 50.8802 154.052 50.7499 153.434 50.4896L154.385 47.6336C154.792 47.7962 155.231 47.9344 155.703 48.0486C156.192 48.1624 156.68 48.2195 157.168 48.2195C157.786 48.2195 158.364 48.0892 158.901 47.8289C159.454 47.5848 159.869 47.121 160.145 46.4375L160.414 45.7785L155.581 34.574C155.419 34.1834 155.207 33.8742 154.947 33.6464C154.67 33.4023 154.296 33.2721 153.824 33.2558V33.0117H160.878V33.2558C160.438 33.3046 160.097 33.4593 159.853 33.7196C159.625 33.98 159.511 34.3136 159.511 34.7204C159.511 35.0785 159.592 35.4446 159.755 35.8189L162.22 41.6041L164.685 35.8189C164.848 35.4446 164.929 35.0785 164.929 34.7204C164.929 34.3136 164.807 33.98 164.563 33.7196C164.335 33.4593 163.993 33.3046 163.538 33.2558V33.0117H166.906V33.2558C166.532 33.3372 166.214 33.5813 165.954 33.9881C165.694 34.3787 165.417 34.9157 165.124 35.5992L160.145 47.1698C159.625 48.3738 158.95 49.2935 158.12 49.9282C157.29 50.5629 156.371 50.8802 155.362 50.8802Z" fill="#0A0A0A"/>
<path d="M150.685 45.7545C149.839 45.7545 149.147 45.486 148.61 44.9489C148.074 44.4119 147.805 43.7119 147.805 42.8495V33.4515H145.73V33.1342C146.853 33.0529 147.854 32.6948 148.733 32.0601C149.627 31.4255 150.359 30.5711 150.929 29.4971H151.32V33.0121H154.566L154.322 33.4515H151.32V42.3125C151.32 43.6142 151.759 44.2655 152.638 44.2655C152.93 44.2655 153.264 44.1757 153.638 43.9969C154.029 43.8178 154.395 43.5818 154.737 43.2889V43.533C154.2 44.2166 153.565 44.7615 152.833 45.1686C152.101 45.5592 151.385 45.7545 150.685 45.7545Z" fill="#0A0A0A"/>
<path d="M138.672 45.4123V45.1682H138.696C139.282 45.1682 139.754 44.989 140.112 44.6311C140.47 44.2728 140.649 43.8012 140.649 43.2152V35.2086C140.649 34.5902 140.519 34.1101 140.258 33.7684C140.014 33.4267 139.486 33.2558 138.672 33.2558V33.0117H141.161C141.991 33.0117 142.626 32.9222 143.065 32.7432C143.472 32.5641 143.757 32.3445 143.919 32.0841H144.163V43.2152C144.163 43.8012 144.343 44.2728 144.7 44.6311C145.058 44.989 145.53 45.1682 146.116 45.1682H146.14V45.4123H138.672ZM142.382 30.5462C141.796 30.5462 141.308 30.3591 140.917 29.9848C140.543 29.5942 140.356 29.106 140.356 28.5202C140.356 27.9343 140.543 27.4543 140.917 27.08C141.308 26.6894 141.796 26.4941 142.382 26.4941C142.951 26.4941 143.423 26.6894 143.797 27.08C144.188 27.4706 144.383 27.9506 144.383 28.5202C144.383 29.0898 144.188 29.5698 143.797 29.9604C143.423 30.351 142.951 30.5462 142.382 30.5462Z" fill="#0A0A0A"/>
<path d="M133.686 45.754C133.263 45.754 132.946 45.7374 132.734 45.7052C132.523 45.6725 132.319 45.6319 132.124 45.5831C131.945 45.5343 131.701 45.4933 131.392 45.4611C131.083 45.4284 130.611 45.4122 129.976 45.4122L129.391 40.8229H129.708C129.968 42.3527 130.456 43.5081 131.172 44.2894C131.888 45.0539 132.669 45.4367 133.515 45.4367C134.345 45.4367 134.971 45.2658 135.395 44.924C135.834 44.5823 136.054 44.1185 136.054 43.5325C136.054 43.1582 135.956 42.8327 135.761 42.5561C135.582 42.2632 135.264 41.9702 134.809 41.6773C134.353 41.3681 133.735 41.002 132.954 40.5788L132.246 40.1883C131.351 39.6838 130.684 39.098 130.245 38.4307C129.822 37.7473 129.61 37.0149 129.61 36.2338C129.61 35.1272 130.009 34.2566 130.806 33.6219C131.619 32.9873 132.702 32.6699 134.052 32.6699C134.394 32.6699 134.67 32.6862 134.882 32.7187C135.094 32.7513 135.297 32.792 135.492 32.8408C135.688 32.8896 135.932 32.9303 136.225 32.9628C136.517 32.9954 136.908 33.0117 137.396 33.0117L137.738 36.9417H137.445C137.347 36.1768 137.128 35.5015 136.786 34.9157C136.46 34.3136 136.07 33.8498 135.614 33.5243C135.158 33.1825 134.695 33.0117 134.223 33.0117C133.605 33.0117 133.108 33.1744 132.734 33.4999C132.376 33.8254 132.197 34.281 132.197 34.8668C132.197 35.3062 132.336 35.7131 132.612 36.0874C132.905 36.4454 133.458 36.8359 134.272 37.2591L135.004 37.6252C136.143 38.211 136.973 38.8213 137.494 39.456C138.014 40.0906 138.275 40.9043 138.275 41.897C138.275 44.4358 136.745 45.7213 133.686 45.754Z" fill="#0A0A0A"/>
<path d="M117.793 45.4131V45.169H117.817C118.403 45.169 118.875 44.9899 119.233 44.632C119.591 44.2737 119.77 43.8021 119.77 43.216V35.2095C119.77 34.5911 119.64 34.111 119.379 33.7693C119.135 33.4275 118.606 33.2567 117.793 33.2567V33.0125H120.209C121.071 33.0125 121.722 32.9312 122.162 32.7684C122.601 32.5894 122.91 32.3616 123.089 32.085H123.211L123.236 36.0882C123.447 35.6 123.716 35.0874 124.041 34.5504C124.383 34.0134 124.806 33.5658 125.31 33.2078C125.831 32.8335 126.449 32.6464 127.165 32.6464C127.409 32.6464 127.669 32.6708 127.946 32.7196C128.223 32.7684 128.515 32.8579 128.825 32.9881L127.873 35.8441C127.287 35.5187 126.775 35.2909 126.335 35.1607C125.912 35.0305 125.538 34.9654 125.213 34.9654C124.659 34.9654 124.244 35.1362 123.968 35.478C123.707 35.8197 123.48 36.2266 123.284 36.6985V43.216C123.284 43.8021 123.463 44.2737 123.821 44.632C124.179 44.9899 124.651 45.169 125.237 45.169H125.261V45.4131H117.793Z" fill="#0A0A0A"/>
<path d="M111.721 45.7052C110.598 45.7052 109.598 45.4284 108.719 44.8752C107.857 44.3216 107.181 43.5569 106.693 42.5805C106.205 41.5878 105.961 40.4568 105.961 39.1875C105.961 37.8856 106.229 36.7464 106.766 35.77C107.303 34.7936 108.036 34.0369 108.963 33.4999C109.907 32.9466 110.973 32.6699 112.16 32.6699C113.153 32.6699 114.032 32.8652 114.796 33.2558C115.577 33.6463 116.196 34.1996 116.651 34.9157C117.123 35.6154 117.392 36.4291 117.457 37.3567L117.481 37.7228H109.28V37.8449C109.28 39.5699 109.663 40.9531 110.427 41.9946C111.192 43.0199 112.217 43.5325 113.503 43.5325C114.284 43.5325 115.024 43.3454 115.724 42.971C116.44 42.5805 117.017 42.0597 117.457 41.4088L117.676 41.482C117.4 42.312 116.968 43.0443 116.383 43.6791C115.797 44.3138 115.106 44.8098 114.308 45.1681C113.511 45.526 112.648 45.7052 111.721 45.7052ZM109.305 37.3567H114.259C114.259 36.0711 114.048 35.0296 113.625 34.2322C113.218 33.4348 112.641 33.0361 111.892 33.0361C111.176 33.0361 110.582 33.4266 110.11 34.2078C109.639 34.9889 109.37 36.0385 109.305 37.3567Z" fill="#0A0A0A"/>
<path d="M100.02 45.8029L95.1635 34.574C95.001 34.1997 94.7813 33.8905 94.5046 33.6464C94.2444 33.4023 93.8783 33.2721 93.4062 33.2558V33.0117H100.24V33.2558C99.6705 33.3209 99.2966 33.5732 99.1174 34.0125C98.9549 34.4519 99.0115 35.0053 99.2883 35.6724L101.802 41.5553L104.292 35.8189C104.454 35.4446 104.536 35.0785 104.536 34.7204C104.536 34.3136 104.414 33.98 104.17 33.7196C103.926 33.4593 103.584 33.3046 103.145 33.2558V33.0117H107.001V33.2558C106.578 33.3535 106.171 33.5976 105.78 33.9881C105.39 34.3787 105.04 34.9157 104.731 35.5992L100.24 45.8029H100.02Z" fill="#0A0A0A"/>
<path d="M87.3555 45.4123V45.1682H87.3799C87.9656 45.1682 88.4376 44.989 88.7955 44.6311C89.1533 44.2728 89.3324 43.8012 89.3324 43.2152V35.2086C89.3324 34.5902 89.2021 34.1101 88.9419 33.7684C88.6978 33.4267 88.1692 33.2558 87.3555 33.2558V33.0117H89.845C90.6748 33.0117 91.3094 32.9222 91.7487 32.7432C92.1553 32.5641 92.4404 32.3445 92.6029 32.0841H92.847V43.2152C92.847 43.8012 93.0261 44.2728 93.3839 44.6311C93.7418 44.989 94.2138 45.1682 94.7995 45.1682H94.8239V45.4123H87.3555ZM91.0653 30.5462C90.4795 30.5462 89.9914 30.3591 89.6009 29.9848C89.2265 29.5942 89.0395 29.106 89.0395 28.5202C89.0395 27.9343 89.2265 27.4543 89.6009 27.08C89.9914 26.6894 90.4795 26.4941 91.0653 26.4941C91.6349 26.4941 92.1065 26.6894 92.4809 27.08C92.8714 27.4706 93.0667 27.9506 93.0667 28.5202C93.0667 29.0898 92.8714 29.5698 92.4809 29.9604C92.1065 30.351 91.6349 30.5462 91.0653 30.5462Z" fill="#0A0A0A"/>
<path d="M71.9336 45.4131V45.169H71.958C72.5438 45.169 73.0153 44.9899 73.3736 44.632C73.7314 44.2737 73.9105 43.8021 73.9105 43.216V35.2095C73.9105 34.5911 73.7802 34.111 73.52 33.7693C73.276 33.4275 72.7469 33.2567 71.9336 33.2567V33.0125H74.3499C75.1797 33.0125 75.8143 32.9231 76.2536 32.744C76.6602 32.565 76.9448 32.3453 77.1078 32.085H77.3519L77.3763 35.5024C77.7991 34.6562 78.4419 33.9727 79.3044 33.4519C80.1665 32.9312 81.0779 32.6708 82.038 32.6708C83.128 32.6708 83.9984 33.0288 84.6495 33.7449C85.3164 34.4609 85.6502 35.4048 85.6502 36.5764V43.216C85.6502 43.8021 85.8289 44.2737 86.1872 44.632C86.545 44.9899 87.017 45.169 87.6028 45.169H87.6272V45.4131H80.1831V45.169H80.2075C80.7933 45.169 81.2648 44.9899 81.6231 44.632C81.9809 44.2737 82.16 43.8021 82.16 43.216V36.3323C82.16 35.5187 81.997 34.8677 81.6719 34.3795C81.3625 33.8913 80.9475 33.6472 80.4272 33.6472C79.9225 33.6472 79.3938 33.8669 78.8407 34.3063C78.3038 34.7294 77.8318 35.3071 77.4251 36.0394V43.216C77.4251 43.8021 77.6038 44.2737 77.9621 44.632C78.3199 44.9899 78.7919 45.169 79.3777 45.169H79.4021V45.4131H71.9336Z" fill="#0A0A0A"/>
<path d="M63.1584 45.7541C61.7263 45.7541 60.4815 45.4773 59.4242 44.9242C58.3664 44.3706 57.5449 43.5894 56.9591 42.5806C56.3895 41.5554 56.1049 40.3593 56.1049 38.9923V29.3014C56.1049 28.7156 55.9257 28.2437 55.5679 27.8856C55.2096 27.5276 54.7381 27.3486 54.1523 27.3486H54.0547V27.1045H61.9137V27.3486H61.8404C61.2547 27.3486 60.7827 27.5276 60.4249 27.8856C60.0666 28.2437 59.8879 28.7156 59.8879 29.3014V38.9923C59.8879 40.7173 60.3272 42.0843 61.2059 43.0932C62.1006 44.0859 63.3049 44.5824 64.8181 44.5824C66.3474 44.5824 67.5516 44.0776 68.4303 43.0688C69.3089 42.0436 69.7482 40.6847 69.7482 38.9923V29.6676C69.7482 28.9678 69.5364 28.4145 69.1137 28.0077C68.6905 27.6008 68.1291 27.3812 67.4296 27.3486V27.1045H72.4818V27.3486C71.7818 27.3812 71.2205 27.6008 70.7977 28.0077C70.3745 28.4145 70.1632 28.9678 70.1632 29.6676V38.9923C70.1632 40.3593 69.8781 41.5473 69.3089 42.5562C68.7554 43.5652 67.95 44.3544 66.8927 44.9242C65.851 45.4773 64.6063 45.7541 63.1584 45.7541Z" fill="#0A0A0A"/>
<path fill-rule="evenodd" clip-rule="evenodd" d="M37.1788 3.13038V0.0791016H44.1523V28.1945C44.1523 40.3518 34.2981 50.2075 22.1425 50.2075C10.4996 50.2075 0.968252 41.1657 0.184848 29.7201H0.132812V0.0791016H7.10619V3.13038H18.8737V0.0791016H25.8471V3.13038H37.1788ZM37.1788 28.1945V23.9153C36.3944 24.7241 35.5537 25.4922 34.6615 26.2156C31.7162 28.6039 28.2564 30.4697 24.4931 31.7337C20.7294 32.9979 16.7134 33.6432 12.6695 33.6432H8.12351C10.3057 39.2553 15.7596 43.2329 22.1425 43.2329C30.4468 43.2329 37.1788 36.5 37.1788 28.1945ZM19.5352 22.942C18.2067 24.3504 16.7093 25.5717 15.0808 26.5749C17.5576 26.3816 19.9826 25.8915 22.2731 25.1222C25.3031 24.1045 28.0157 22.6259 30.2698 20.7982C32.5229 18.9712 34.2617 16.8417 35.4295 14.5555C36.1667 13.1122 36.6711 11.6177 36.9423 10.1047H25.6227C25.3674 11.9591 24.8958 13.779 24.2146 15.5224C23.1352 18.285 21.5483 20.8078 19.5352 22.942ZM7.10619 22.4044V10.1047H18.5559C18.3629 11.0891 18.0831 12.0532 17.7195 12.984C16.959 14.9304 15.8492 16.6862 14.4628 18.156C13.0767 19.6255 11.4424 20.7795 9.65866 21.5628C8.83022 21.9266 7.97581 22.2077 7.10619 22.4044Z" fill="#0A0A0A"/>
</g>
<defs>
<clipPath id="clip0_33_437">
<rect width="180" height="51" fill="white"/>
</clipPath>
</defs>
</svg>
