<svg width="180" height="47" viewBox="0 0 180 47" fill="none" xmlns="http://www.w3.org/2000/svg">
<g clip-path="url(#clip0_33_504)">
<path fill-rule="evenodd" clip-rule="evenodd" d="M27.5763 10.0293C25.953 10.0293 24.3456 10.3463 22.8458 10.9622C21.3461 11.5781 19.9833 12.4807 18.8355 13.6187C17.6876 14.7567 16.7771 16.1076 16.1558 17.5945C15.6033 18.9168 15.2893 20.3236 15.2266 21.7508C15.2122 22.0775 15.0289 22.3765 14.7345 22.5224L10.7507 24.4971C10.4563 24.6431 10.2677 24.9421 10.282 25.2687C10.3447 26.6959 10.6588 28.1027 11.2112 29.425C11.8325 30.9119 12.743 32.2628 13.8909 33.4008C15.0387 34.5388 16.4015 35.4415 17.9012 36.0573C19.401 36.6732 21.0084 36.9902 22.6318 36.9902C24.2551 36.9902 25.8625 36.6732 27.3623 36.0573C28.862 35.4415 30.2248 34.5388 31.3726 33.4008C32.5205 32.2628 33.431 30.9119 34.0522 29.425C34.6047 28.1027 34.9188 26.6959 34.9815 25.2687C34.9958 24.9421 35.1792 24.6431 35.4736 24.4971L39.4574 22.5224C39.7517 22.3765 39.9404 22.0775 39.9261 21.7508C39.8633 20.3236 39.5493 18.9168 38.9968 17.5945C38.3756 16.1076 37.4651 14.7567 36.3172 13.6187C35.1693 12.4807 33.8066 11.5781 32.3069 10.9622C30.8071 10.3463 29.1997 10.0293 27.5763 10.0293ZM33.2866 19.9394C33.5284 20.5181 33.6788 21.1293 33.7336 21.7513C33.7623 22.077 33.571 22.3765 33.2766 22.5224L29.2929 24.4971C28.9985 24.6431 28.8177 24.9425 28.7891 25.2682C28.7343 25.8902 28.5838 26.5014 28.342 27.0801C28.0314 27.8235 27.5761 28.499 27.0022 29.068C26.4282 29.637 25.7469 30.0884 24.997 30.3963C24.2472 30.7043 23.4434 30.8627 22.6318 30.8627C21.8201 30.8627 21.0164 30.7043 20.2665 30.3963C19.5166 30.0884 18.8353 29.637 18.2613 29.068C17.6874 28.499 17.2321 27.8235 16.9215 27.0801C16.6797 26.5014 16.5292 25.8902 16.4744 25.2682C16.4458 24.9425 16.6371 24.6431 16.9314 24.4971L20.9152 22.5224C21.2096 22.3765 21.3904 22.077 21.419 21.7513C21.4738 21.1293 21.6243 20.5181 21.8661 19.9394C22.1767 19.196 22.632 18.5205 23.2059 17.9515C23.7798 17.3825 24.4612 16.9311 25.2111 16.6232C25.961 16.3153 26.7647 16.1568 27.5763 16.1568C28.388 16.1568 29.1917 16.3153 29.9416 16.6232C30.6915 16.9311 31.3728 17.3825 31.9468 17.9515C32.5207 18.5205 32.976 19.196 33.2866 19.9394Z" fill="#0A0A0A"/>
<path fill-rule="evenodd" clip-rule="evenodd" d="M27.5756 0.224609C24.6536 0.224609 21.7602 0.795178 19.0607 1.90374C16.3611 3.01231 13.9083 4.63717 11.8421 6.68551C9.77593 8.73389 8.13698 11.1656 7.01876 13.8419C5.96926 16.3538 5.39781 19.035 5.33153 21.7499C5.32355 22.0768 5.139 22.3757 4.84462 22.5216L0.860838 24.4964C0.56648 24.6423 0.378986 24.9412 0.386964 25.2681C0.453227 27.9831 1.02469 30.6642 2.07418 33.1761C3.19238 35.8524 4.83135 38.2842 6.89749 40.3325C8.96367 42.3808 11.4165 44.0059 14.1161 45.1141C16.8157 46.2227 19.7091 46.7936 22.6311 46.7936C25.553 46.7936 28.4464 46.2227 31.146 45.1141C33.8456 44.0059 36.2984 42.3808 38.3646 40.3325C40.4308 38.2842 42.0698 35.8524 43.1879 33.1761C44.2376 30.6642 44.8088 27.9831 44.8752 25.2681C44.883 24.9412 45.0678 24.6423 45.3618 24.4964L49.3457 22.5216C49.6402 22.3757 49.8276 22.0768 49.8198 21.7499C49.7534 19.035 49.1822 16.3538 48.1325 13.8419C47.0144 11.1656 45.3753 8.73389 43.3092 6.68551C41.243 4.63717 38.7902 3.01231 36.0906 1.90374C33.391 0.795182 30.4976 0.224609 27.5756 0.224609ZM38.6919 25.2681C38.703 24.9413 38.887 24.6423 39.1813 24.4964L43.1651 22.5216C43.4595 22.3757 43.6477 22.0768 43.6364 21.75C43.5718 19.8398 43.1611 17.9552 42.4223 16.1868C41.6147 14.2539 40.431 12.4976 38.9388 11.0183C37.4465 9.53893 35.675 8.36544 33.7253 7.5648C31.7756 6.76416 29.686 6.35207 27.5756 6.35207C25.4653 6.35207 23.3756 6.76416 21.426 7.5648C19.4763 8.36544 17.7047 9.53893 16.2125 11.0183C14.7203 12.4976 13.5366 14.2539 12.729 16.1868C11.9901 17.9552 11.5793 19.8398 11.5148 21.75C11.5037 22.0768 11.3197 22.3757 11.0253 22.5216L7.04158 24.4964C6.7472 24.6423 6.55914 24.9413 6.5702 25.2681C6.63474 27.1782 7.04557 29.0628 7.78444 30.8312C8.59201 32.7641 9.77571 34.5204 11.2679 35.9997C12.7602 37.4791 14.5317 38.6526 16.4814 39.4532C18.4311 40.2539 20.5207 40.6659 22.6311 40.6659C24.7414 40.6659 26.831 40.2539 28.7807 39.4532C30.7304 38.6526 32.502 37.4791 33.9942 35.9997C35.4864 34.5204 36.6701 32.7641 37.4777 30.8312C38.2166 29.0628 38.6274 27.1782 38.6919 25.2681Z" fill="#0A0A0A"/>
<path d="M115.694 7.48149C115.035 7.48149 114.478 7.25512 114.023 6.80236C113.568 6.34961 113.34 5.79984 113.34 5.15305C113.34 4.49009 113.568 3.9363 114.023 3.49163C114.478 3.03888 115.035 2.8125 115.694 2.8125C116.353 2.8125 116.906 3.03888 117.353 3.49163C117.809 3.9363 118.036 4.49009 118.036 5.15305C118.036 5.79984 117.809 6.34961 117.353 6.80236C116.906 7.25512 116.353 7.48149 115.694 7.48149Z" fill="#0A0A0A"/>
<path d="M113.754 22.0216V8.97266H117.609V22.0216H113.754Z" fill="#0A0A0A"/>
<path fill-rule="evenodd" clip-rule="evenodd" d="M119.785 25.8616V8.97315H123.445V10.2708H123.492C123.723 10.045 123.972 9.83881 124.237 9.65228C125.1 9.054 126.092 8.75488 127.214 8.75488C128.198 8.75488 129.137 9.00954 130.032 9.51887C130.935 10.0282 131.666 10.7842 132.228 11.7867C132.789 12.7892 133.061 14.0383 133.045 15.534C133.053 16.6659 132.895 17.6522 132.569 18.4931C132.244 19.3258 131.805 20.0171 131.252 20.5668C130.699 21.1166 130.081 21.529 129.398 21.8039C128.714 22.0787 128.023 22.2162 127.324 22.2162C126.218 22.2162 125.225 21.9089 124.347 21.2945C124.126 21.1378 123.917 20.968 123.719 20.7852H123.64V23.6717L119.785 25.8616ZM126.421 19.0146C126.99 19.0065 127.49 18.8569 127.922 18.5659C128.353 18.2748 128.69 17.8624 128.934 17.3288C129.178 16.7952 129.296 16.1727 129.288 15.4613C129.296 14.7336 129.174 14.1111 128.922 13.5936C128.678 13.0681 128.332 12.668 127.885 12.3931C127.438 12.1101 126.925 11.9727 126.348 11.9807C125.803 11.9727 125.315 12.106 124.884 12.3809C124.453 12.6558 124.112 13.056 123.859 13.5815C123.607 14.099 123.481 14.7255 123.481 15.4613C123.481 16.1727 123.607 16.7952 123.859 17.3288C124.119 17.8624 124.469 18.2748 124.908 18.5659C125.348 18.8569 125.852 19.0065 126.421 19.0146Z" fill="#0A0A0A"/>
<path d="M139.003 22.2154C138.223 22.2154 137.474 22.0819 136.759 21.8151C136.051 21.5483 135.425 21.1724 134.88 20.6873C134.335 20.1941 133.925 19.6201 133.648 18.9652L136.674 17.6433C136.877 18.0233 137.182 18.3831 137.588 18.7227C137.995 19.0623 138.475 19.232 139.028 19.232C139.321 19.232 139.577 19.1835 139.797 19.0865C140.016 18.9814 140.187 18.848 140.309 18.6863C140.439 18.5246 140.504 18.3508 140.504 18.1648C140.504 17.9304 140.41 17.7282 140.223 17.5585C140.036 17.3887 139.797 17.2431 139.504 17.1219C139.211 17.0006 138.902 16.8955 138.577 16.8066C138.259 16.7177 137.967 16.6368 137.698 16.564C137.08 16.3781 136.495 16.1234 135.942 15.8C135.397 15.4685 134.954 15.0481 134.612 14.5388C134.27 14.0294 134.1 13.4109 134.1 12.6833C134.1 11.9152 134.299 11.2401 134.697 10.658C135.104 10.0678 135.653 9.60699 136.344 9.27553C137.044 8.94403 137.84 8.77832 138.735 8.77832C139.849 8.77832 140.85 9.03298 141.736 9.54231C142.631 10.0517 143.265 10.7268 143.639 11.5676L140.675 12.8409C140.52 12.5822 140.292 12.3316 139.992 12.0891C139.699 11.8465 139.325 11.7252 138.869 11.7252C138.487 11.7252 138.17 11.8222 137.918 12.0163C137.666 12.2103 137.539 12.4529 137.539 12.7439C137.539 13.035 137.666 13.2695 137.918 13.4473C138.17 13.6252 138.491 13.7788 138.881 13.9081C139.272 14.0375 139.679 14.1628 140.102 14.2841C140.427 14.373 140.805 14.5024 141.236 14.6722C141.667 14.8339 142.086 15.0562 142.492 15.3392C142.907 15.6221 143.249 15.986 143.517 16.4306C143.793 16.8753 143.932 17.421 143.932 18.0678C143.932 18.8844 143.704 19.608 143.249 20.2386C142.802 20.8611 142.204 21.3462 141.456 21.6939C140.715 22.0415 139.898 22.2154 139.003 22.2154Z" fill="#0A0A0A"/>
<path d="M159.602 22.0213V8.97236H163.274V10.6338H163.341C163.627 10.2368 163.951 9.90128 164.31 9.62721C165.042 9.06127 165.908 8.77832 166.909 8.77832C167.738 8.77832 168.442 8.98042 169.019 9.38466C169.465 9.68602 169.828 10.0903 170.108 10.5974H170.177C170.593 10.0707 171.098 9.65838 171.691 9.36043C172.463 8.97236 173.305 8.77832 174.216 8.77832C175.086 8.77832 175.802 8.93191 176.363 9.23914C176.924 9.5383 177.363 9.93443 177.68 10.4276C177.998 10.9127 178.221 11.4463 178.351 12.0284C178.481 12.6024 178.546 13.1603 178.546 13.702V22.0213H174.667V14.175C174.667 13.4635 174.517 12.9178 174.216 12.5378C173.923 12.1497 173.492 11.9556 172.923 11.9556C172.549 11.9556 172.215 12.0406 171.922 12.2103C171.638 12.372 171.41 12.6186 171.239 12.9501C171.076 13.2816 170.995 13.6899 170.995 14.175V22.0213H167.14V14.175C167.14 13.4635 166.99 12.9178 166.689 12.5378C166.388 12.1497 165.953 11.9556 165.384 11.9556C164.831 11.9556 164.371 12.1456 164.005 12.5256C163.64 12.8975 163.457 13.4554 163.457 14.1992V22.0213H159.602Z" fill="#0A0A0A"/>
<path d="M147.704 21.6457C148.444 22.0257 149.266 22.2157 150.169 22.2157C151.234 22.2157 152.177 21.9569 152.999 21.4395C153.414 21.1736 153.792 20.8704 154.133 20.53H154.231C154.347 20.7952 154.518 21.0297 154.743 21.2334C155.19 21.6376 155.898 21.965 156.865 22.2157L158.232 19.0141C157.809 18.8604 157.528 18.6785 157.39 18.4683C157.252 18.2581 157.183 17.9186 157.183 17.4496V8.97266H153.328V16.6613C153.328 17.1384 153.234 17.5507 153.047 17.8983C152.869 18.2379 152.616 18.5007 152.291 18.6866C151.974 18.8726 151.604 18.9655 151.181 18.9655C150.612 18.9655 150.128 18.7715 149.729 18.3834C149.339 17.9873 149.144 17.4133 149.144 16.6613V8.97266H145.289V17.1707C145.289 18.2702 145.505 19.196 145.935 19.9478C146.375 20.6917 146.964 21.2576 147.704 21.6457Z" fill="#0A0A0A"/>
<path fill-rule="evenodd" clip-rule="evenodd" d="M105.41 22.2154C104.149 22.2154 102.998 21.9283 101.957 21.3543C100.925 20.7803 100.099 19.9879 99.4812 18.9774C98.8713 17.9667 98.5664 16.8025 98.5664 15.4847C98.5664 14.1668 98.8713 13.0026 99.4812 11.992C100.099 10.9814 100.925 10.1931 101.957 9.62721C102.998 9.06127 104.149 8.77832 105.41 8.77832C106.695 8.77832 107.854 9.06127 108.886 9.62721C109.919 10.1931 110.737 10.9814 111.338 11.992C111.948 13.0026 112.253 14.1668 112.253 15.4847C112.253 16.8025 111.948 17.9667 111.338 18.9774C110.737 19.9879 109.915 20.7803 108.874 21.3543C107.841 21.9283 106.686 22.2154 105.41 22.2154ZM105.41 18.941C106.011 18.941 106.552 18.7954 107.032 18.5044C107.512 18.2133 107.89 17.8091 108.167 17.2917C108.443 16.7742 108.581 16.1719 108.581 15.4847C108.581 14.8217 108.447 14.2315 108.179 13.7141C107.91 13.1967 107.54 12.7924 107.069 12.5014C106.597 12.2022 106.052 12.0527 105.434 12.0527C104.824 12.0527 104.275 12.1982 103.787 12.4893C103.308 12.7722 102.929 13.1724 102.653 13.6899C102.376 14.2073 102.238 14.8056 102.238 15.4847C102.238 16.1719 102.376 16.7742 102.653 17.2917C102.938 17.8091 103.32 18.2133 103.799 18.5044C104.279 18.7954 104.816 18.941 105.41 18.941Z" fill="#0A0A0A"/>
<path fill-rule="evenodd" clip-rule="evenodd" d="M90.1555 27.3092C89.0655 27.3092 88.0653 27.1758 87.1545 26.909C86.2519 26.6503 85.5401 26.3835 85.0197 26.1086L86.2883 23.101C86.7438 23.3759 87.2725 23.6104 87.8741 23.8044C88.4839 24.0065 89.102 24.1076 89.7283 24.1076C90.2653 24.1076 90.8222 24.0187 91.3995 23.8408C91.9772 23.663 92.4691 23.38 92.8755 22.9919C93.2823 22.6119 93.4857 22.1107 93.4857 21.4881V20.2269H93.4272C93.1886 20.461 92.9314 20.6752 92.656 20.8696C91.7859 21.476 90.7935 21.7792 89.6797 21.7792C88.9883 21.7792 88.3013 21.6498 87.6182 21.3911C86.935 21.1243 86.3126 20.7241 85.7514 20.1905C85.1984 19.6488 84.7555 18.9738 84.422 18.1653C84.0884 17.3568 83.9219 16.4068 83.9219 15.3153C83.9219 13.8601 84.2064 12.6514 84.7755 11.6893C85.3532 10.7191 86.0932 9.99145 86.9958 9.50636C87.8984 9.0132 88.8378 8.7666 89.8137 8.7666C90.944 8.7666 91.9321 9.0536 92.7779 9.62765C93.0494 9.81013 93.3018 10.0123 93.5347 10.234H93.6076V8.96064H97.1087V21.2699C97.1087 22.2643 96.9378 23.1374 96.5965 23.8893C96.2547 24.6412 95.7706 25.2718 95.1448 25.7812C94.5267 26.2905 93.7945 26.6705 92.9488 26.9212C92.103 27.1799 91.1718 27.3092 90.1555 27.3092ZM90.6309 18.6625C91.2164 18.6625 91.733 18.5169 92.1802 18.2259C92.6278 17.9348 92.9813 17.5306 93.2415 17.0132C93.5018 16.4876 93.6319 15.8813 93.6319 15.194C93.6319 14.4987 93.5061 13.9045 93.2537 13.4114C93.0017 12.9101 92.656 12.526 92.2171 12.2593C91.7777 11.9924 91.2693 11.8591 90.692 11.8591C90.1147 11.8591 89.5982 11.9965 89.1427 12.2714C88.6873 12.5382 88.3295 12.9222 88.0692 13.4235C87.8172 13.9247 87.691 14.5149 87.691 15.194C87.691 15.8732 87.8172 16.4755 88.0692 17.001C88.3212 17.5185 88.6669 17.9267 89.1063 18.2259C89.5452 18.5169 90.0536 18.6625 90.6309 18.6625Z" fill="#0A0A0A"/>
<path fill-rule="evenodd" clip-rule="evenodd" d="M76.1013 22.2154C74.8404 22.2154 73.6897 21.9283 72.6487 21.3543C71.616 20.7803 70.7906 19.9879 70.1726 18.9774C69.5627 17.9667 69.2578 16.8025 69.2578 15.4847C69.2578 14.1668 69.5627 13.0026 70.1726 11.992C70.7906 10.9814 71.616 10.1931 72.6487 9.62721C73.6897 9.06127 74.8404 8.77832 76.1013 8.77832C77.386 8.77832 78.5449 9.06127 79.5777 9.62721C80.6108 10.1931 81.428 10.9814 82.0296 11.992C82.6398 13.0026 82.9448 14.1668 82.9448 15.4847C82.9448 16.8025 82.6398 17.9667 82.0296 18.9774C81.428 19.9879 80.6065 20.7803 79.5655 21.3543C78.5328 21.9283 77.3778 22.2154 76.1013 22.2154ZM76.1013 18.941C76.7029 18.941 77.2437 18.7954 77.7234 18.5044C78.2036 18.2133 78.5814 17.8091 78.8581 17.2917C79.1344 16.7742 79.2728 16.1719 79.2728 15.4847C79.2728 14.8217 79.1387 14.2315 78.8702 13.7141C78.6018 13.1967 78.2318 12.7924 77.7603 12.5014C77.2884 12.2022 76.7436 12.0527 76.1256 12.0527C75.5157 12.0527 74.9666 12.1982 74.4787 12.4893C73.999 12.7722 73.6207 13.1724 73.344 13.6899C73.0677 14.2073 72.9294 14.8056 72.9294 15.4847C72.9294 16.1719 73.0677 16.7742 73.344 17.2917C73.629 17.8091 74.0111 18.2133 74.4908 18.5044C74.9705 18.7954 75.5075 18.941 76.1013 18.941Z" fill="#0A0A0A"/>
<path d="M58.8359 22.0221V4.14648H62.8371V18.4809H69.3145V22.0221H58.8359Z" fill="#0A0A0A"/>
<path fill-rule="evenodd" clip-rule="evenodd" d="M119.789 28.4457V32.0311H119.68C119.521 31.8934 119.354 31.7641 119.179 31.643C118.326 31.0447 117.341 30.7456 116.227 30.7456C115.243 30.7456 114.3 31.0003 113.397 31.5096C112.494 32.019 111.762 32.7749 111.201 33.7774C110.64 34.7799 110.372 36.0291 110.396 37.5247C110.38 38.6566 110.534 39.643 110.86 40.4838C111.185 41.3166 111.624 42.0078 112.177 42.5576C112.73 43.1073 113.348 43.5197 114.032 43.7944C114.715 44.0695 115.406 44.2071 116.105 44.2071C117.211 44.2071 118.203 43.8996 119.082 43.2852C119.522 42.9732 119.916 42.6094 120.264 42.1938H120.385C120.476 42.428 120.615 42.6503 120.802 42.8607C121.054 43.1273 121.387 43.374 121.802 43.6004C122.225 43.819 122.738 44.0208 123.339 44.2071L124.693 41.0053C124.319 40.8679 124.051 40.7021 123.888 40.5081C123.726 40.314 123.644 39.9785 123.644 39.5015V26.2559L119.789 28.4457ZM118.521 40.5566C118.081 40.8476 117.577 40.9972 117.008 41.0053C116.447 40.9972 115.947 40.8476 115.508 40.5566C115.068 40.2655 114.727 39.8532 114.483 39.3196C114.247 38.786 114.133 38.1635 114.141 37.452C114.133 36.7244 114.255 36.1018 114.507 35.5844C114.759 35.0589 115.105 34.6587 115.544 34.3838C115.991 34.1008 116.504 33.9634 117.081 33.9714C117.626 33.9634 118.114 34.0968 118.545 34.3716C118.976 34.6465 119.318 35.0468 119.57 35.5722C119.822 36.0897 119.952 36.7162 119.96 37.452C119.952 38.1635 119.822 38.786 119.57 39.3196C119.318 39.8532 118.968 40.2655 118.521 40.5566Z" fill="#0A0A0A"/>
<path d="M167.645 44.0127V30.9636H171.378V32.6735H171.436C171.539 32.519 171.654 32.3735 171.78 32.2369C172.236 31.7518 172.78 31.388 173.415 31.1455C174.049 30.8948 174.728 30.7695 175.452 30.7695C176.33 30.7695 177.087 30.9716 177.721 31.3759C178.355 31.7801 178.843 32.3339 179.185 33.0373C179.526 33.7407 179.697 34.5532 179.697 35.4749V44.0127H175.842V36.3117C175.842 35.5275 175.655 34.9413 175.281 34.5532C174.907 34.1571 174.399 33.959 173.756 33.959C173.333 33.959 172.951 34.052 172.61 34.2379C172.268 34.4158 171.996 34.6826 171.792 35.0383C171.597 35.386 171.5 35.8225 171.5 36.3481V44.0127H167.645Z" fill="#0A0A0A"/>
<path fill-rule="evenodd" clip-rule="evenodd" d="M159.719 44.2067C158.458 44.2067 157.307 43.9196 156.266 43.3457C155.234 42.7715 154.408 41.9792 153.79 40.9686C153.18 39.958 152.875 38.7938 152.875 37.4759C152.875 36.1581 153.18 34.9939 153.79 33.9833C154.408 32.9727 155.234 32.1844 156.266 31.6184C157.307 31.0525 158.458 30.7695 159.719 30.7695C161.004 30.7695 162.163 31.0525 163.195 31.6184C164.228 32.1844 165.046 32.9727 165.647 33.9833C166.257 34.9939 166.562 36.1581 166.562 37.4759C166.562 38.7938 166.257 39.958 165.647 40.9686C165.046 41.9792 164.224 42.7715 163.183 43.3457C162.15 43.9196 160.995 44.2067 159.719 44.2067ZM159.719 40.9322C160.32 40.9322 160.861 40.7867 161.341 40.4956C161.821 40.2045 162.199 39.8003 162.476 39.2829C162.752 38.7654 162.89 38.1631 162.89 37.4759C162.89 36.813 162.756 36.2228 162.488 35.7054C162.219 35.1879 161.849 34.7837 161.378 34.4926C160.906 34.1935 160.361 34.0439 159.743 34.0439C159.133 34.0439 158.584 34.1894 158.096 34.4805C157.617 34.7635 157.238 35.1636 156.962 35.6811C156.685 36.1985 156.547 36.7968 156.547 37.4759C156.547 38.1631 156.685 38.7654 156.962 39.2829C157.247 39.8003 157.629 40.2045 158.108 40.4956C158.588 40.7867 159.125 40.9322 159.719 40.9322Z" fill="#0A0A0A"/>
<path d="M147.895 44.013V30.9639H151.749V44.013H147.895Z" fill="#0A0A0A"/>
<path d="M148.16 28.7926C148.615 29.2454 149.172 29.4717 149.831 29.4717C150.49 29.4717 151.043 29.2454 151.49 28.7926C151.946 28.3398 152.173 27.7901 152.173 27.1433C152.173 26.4803 151.946 25.9266 151.49 25.4819C151.043 25.0291 150.49 24.8027 149.831 24.8027C149.172 24.8027 148.615 25.0291 148.16 25.4819C147.704 25.9266 147.477 26.4803 147.477 27.1433C147.477 27.7901 147.704 28.3398 148.16 28.7926Z" fill="#0A0A0A"/>
<path d="M140.808 42.8726C141.597 43.7618 142.801 44.2068 144.419 44.2068C144.916 44.2068 145.403 44.1619 145.883 44.0731C146.371 43.9843 146.798 43.851 147.164 43.6729L145.92 40.6533C145.782 40.726 145.623 40.7867 145.444 40.8352C145.265 40.8837 145.083 40.908 144.895 40.908C144.497 40.908 144.159 40.7867 143.883 40.5441C143.614 40.2935 143.48 39.8893 143.48 39.3314V34.1409H146.518V30.9636H143.48V27.2041H139.625V30.9636H137.43V34.1409H139.625V39.4284C139.625 40.8271 140.02 41.9752 140.808 42.8726Z" fill="#0A0A0A"/>
<path fill-rule="evenodd" clip-rule="evenodd" d="M127.35 43.6729C128.025 44.0287 128.805 44.2067 129.692 44.2067C130.716 44.2067 131.619 44.0045 132.4 43.6001C133.031 43.2767 133.493 42.9169 133.786 42.5209H133.845C133.959 42.7149 134.112 42.9089 134.303 43.103C134.685 43.491 135.255 43.8105 136.011 44.061L136.462 44.2067L137.816 41.005L137.523 40.9079C137.239 40.819 137.039 40.6613 136.926 40.435C136.82 40.2005 136.767 39.861 136.767 39.4163V35.487C136.767 35.0181 136.71 34.5128 136.596 33.9711C136.491 33.4214 136.263 32.908 135.913 32.431C135.563 31.9459 135.027 31.5497 134.303 31.2425C133.579 30.9272 132.603 30.7695 131.375 30.7695C130.586 30.7695 129.846 30.8342 129.155 30.9636C128.472 31.0848 127.862 31.2385 127.325 31.4244C126.797 31.6104 126.369 31.7963 126.044 31.9823L127.325 34.8685C127.626 34.6745 127.984 34.5047 128.399 34.3592C128.814 34.2056 129.245 34.0884 129.692 34.0075C130.139 33.9186 130.558 33.8741 130.948 33.8741C131.29 33.8741 131.595 33.9145 131.863 33.9954C132.132 34.0682 132.359 34.1773 132.546 34.3228C132.733 34.4683 132.872 34.6462 132.961 34.8564C133.058 35.0586 133.108 35.2849 133.108 35.5355V36.1904H130.631C129.492 36.1904 128.516 36.3643 127.703 36.7119C126.898 37.0596 126.28 37.5365 125.849 38.1429C125.426 38.7493 125.215 39.4446 125.215 40.2288C125.215 40.9726 125.402 41.6437 125.776 42.2419C126.158 42.8402 126.683 43.3172 127.35 43.6729ZM131.095 38.5916H133.291V39.4042C133.291 39.8812 133.136 40.2612 132.827 40.5441C132.526 40.8271 132.168 41.0292 131.753 41.1505C131.339 41.2717 130.977 41.3324 130.668 41.3324C130.334 41.3324 130.033 41.2799 129.765 41.1747C129.505 41.0615 129.301 40.9079 129.155 40.7139C129.009 40.5118 128.935 40.2692 128.935 39.9863C128.935 39.5092 129.118 39.1576 129.485 38.9312C129.858 38.7048 130.395 38.5916 131.095 38.5916Z" fill="#0A0A0A"/>
<path d="M97.4609 44.0127V30.9636H101.194V32.6735H101.253C101.356 32.519 101.47 32.3735 101.597 32.2369C102.052 31.7518 102.597 31.388 103.231 31.1455C103.865 30.8948 104.544 30.7695 105.268 30.7695C106.146 30.7695 106.903 30.9716 107.537 31.3759C108.172 31.7801 108.66 32.3339 109.001 33.0373C109.343 33.7407 109.514 34.5532 109.514 35.4749V44.0127H105.659V36.3117C105.659 35.5275 105.472 34.9413 105.097 34.5532C104.723 34.1571 104.215 33.959 103.573 33.959C103.15 33.959 102.768 34.052 102.426 34.2379C102.085 34.4158 101.812 34.6826 101.609 35.0383C101.414 35.386 101.316 35.8225 101.316 36.3481V44.0127H97.4609Z" fill="#0A0A0A"/>
<path d="M88.3912 44.207C87.4882 44.207 86.6671 44.0169 85.9268 43.637C85.1868 43.2489 84.5974 42.6829 84.158 41.9391C83.7268 41.1872 83.5117 40.2615 83.5117 39.1619V30.9639H87.3663V38.6525C87.3663 39.4045 87.5615 39.9785 87.9519 40.3746C88.3505 40.7627 88.8341 40.9568 89.4036 40.9568C89.8265 40.9568 90.1964 40.8638 90.5135 40.6778C90.8388 40.4919 91.0912 40.2291 91.2699 39.8896C91.4569 39.5419 91.5506 39.1296 91.5506 38.6525V30.9639H95.4052V39.4409C95.4052 39.9098 95.4746 40.2493 95.6129 40.4596C95.7508 40.6698 96.0315 40.8516 96.4544 41.0053L95.0881 44.207C94.1204 43.9561 93.413 43.6288 92.9654 43.2244C92.7403 43.0209 92.5694 42.7864 92.4536 42.5212H92.3556C92.0151 42.8616 91.6369 43.1649 91.2214 43.4309C90.3999 43.9483 89.4565 44.207 88.3912 44.207Z" fill="#0A0A0A"/>
<path fill-rule="evenodd" clip-rule="evenodd" d="M75.672 44.2067C74.4112 44.2067 73.2605 43.9196 72.2195 43.3457C71.1868 42.7715 70.3614 41.9792 69.7433 40.9686C69.1335 39.958 68.8281 38.7938 68.8281 37.4759C68.8281 36.1581 69.1335 34.9939 69.7433 33.9833C70.3614 32.9727 71.1868 32.1844 72.2195 31.6184C73.2605 31.0525 74.4112 30.7695 75.672 30.7695C76.9567 30.7695 78.1157 31.0525 79.1484 31.6184C80.1811 32.1844 80.9987 32.9727 81.6003 33.9833C82.2106 34.9939 82.5155 36.1581 82.5155 37.4759C82.5155 38.7938 82.2106 39.958 81.6003 40.9686C80.9987 41.9792 80.1772 42.7715 79.1363 43.3457C78.1035 43.9196 76.9485 44.2067 75.672 44.2067ZM75.672 40.9322C76.2736 40.9322 76.8145 40.7867 77.2942 40.4956C77.7739 40.2045 78.1521 39.8003 78.4288 39.2829C78.7051 38.7654 78.8435 38.1631 78.8435 37.4759C78.8435 36.813 78.7095 36.2228 78.441 35.7054C78.1725 35.1879 77.8025 34.7837 77.3311 34.4926C76.8592 34.1935 76.3144 34.0439 75.6963 34.0439C75.0865 34.0439 74.5374 34.1894 74.0494 34.4805C73.5697 34.7635 73.1915 35.1636 72.9148 35.6811C72.6385 36.1985 72.5001 36.7968 72.5001 37.4759C72.5001 38.1631 72.6385 38.7654 72.9148 39.2829C73.1997 39.8003 73.5819 40.2045 74.0616 40.4956C74.5413 40.7867 75.0782 40.9322 75.672 40.9322Z" fill="#0A0A0A"/>
<path d="M58.8047 44.0125V26.1367H69.2833V29.6779H62.8059V33.789H68.1976V37.3302H62.8059V44.0125H58.8047Z" fill="#0A0A0A"/>
<path d="M49.8213 21.7842H43.6384C43.6358 22.0975 43.4506 22.3808 43.1667 22.5216L39.1829 24.4963C38.8989 24.6371 38.7176 24.9204 38.6953 25.2337H44.878C44.898 24.9204 45.0797 24.6371 45.3638 24.4963L49.3477 22.5216C49.6313 22.3808 49.8161 22.0976 49.8213 21.7842Z" fill="#0A0A0A"/>
<path d="M0.386719 25.2337H6.56965C6.57234 24.9204 6.75742 24.6371 7.04143 24.4963L11.0252 22.5216C11.3093 22.3808 11.4906 22.0975 11.5128 21.7842H5.32991C5.31035 22.0976 5.12853 22.3808 4.84452 22.5216L0.860713 24.4963C0.576691 24.6371 0.39216 24.9204 0.386719 25.2337Z" fill="#0A0A0A"/>
<path d="M15.2245 21.7842C15.1993 22.0974 15.0185 22.3808 14.7345 22.5216L10.7507 24.4963C10.4666 24.6371 10.281 24.9205 10.2813 25.2337H16.4723C16.4591 24.9211 16.6472 24.6372 16.9314 24.4963L20.9152 22.5216C21.1994 22.3807 21.3777 22.0968 21.4155 21.7842H15.2245Z" fill="#0A0A0A"/>
<path d="M33.7362 21.7842C33.7493 22.0968 33.5612 22.3807 33.277 22.5216L29.2932 24.4963C29.0091 24.6372 28.8307 24.9211 28.793 25.2337H34.984C35.0092 24.9205 35.1899 24.6371 35.474 24.4963L39.4578 22.5216C39.7418 22.3808 39.9275 22.0974 39.9272 21.7842H33.7362Z" fill="#0A0A0A"/>
</g>
<defs>
<clipPath id="clip0_33_504">
<rect width="180" height="47" fill="white"/>
</clipPath>
</defs>
</svg>
