<svg width="180" height="110" viewBox="0 0 180 110" fill="none" xmlns="http://www.w3.org/2000/svg">
<path d="M61.2893 54.9998C61.2893 58.3749 58.5576 61.1109 55.1876 61.1109C51.818 61.1109 49.0859 58.3749 49.0859 54.9998C49.0859 51.6246 51.818 48.8887 55.1876 48.8887C58.5576 48.8887 61.2893 51.6246 61.2893 54.9998Z" fill="#0A0A0A"/>
<path d="M128.41 54.9998C128.41 58.3749 125.679 61.1109 122.309 61.1109C118.939 61.1109 116.207 58.3749 116.207 54.9998C116.207 51.6246 118.939 48.8887 122.309 48.8887C125.679 48.8887 128.41 51.6246 128.41 54.9998Z" fill="#0A0A0A"/>
<path fill-rule="evenodd" clip-rule="evenodd" d="M122.308 6.22264e-06C124.37 6.58381e-06 126.406 0.113876 128.409 0.33568V6.48936C126.41 6.23972 124.374 6.11111 122.308 6.11111C111.513 6.11111 101.542 9.61715 93.4605 15.5569C94.9301 16.9874 96.3198 18.4996 97.6228 20.0861C104.593 15.1345 113.114 12.2222 122.308 12.2222C124.379 12.2222 126.416 12.3699 128.409 12.6554V18.8403C126.425 18.5069 124.386 18.3333 122.308 18.3333C114.458 18.3333 107.191 20.8043 101.232 25.0141C102.346 26.7261 103.367 28.5041 104.289 30.3408C109.337 26.6352 115.569 24.4444 122.308 24.4444C124.397 24.4444 126.437 24.6549 128.409 25.0556V31.3256C126.459 30.8229 124.414 30.5556 122.308 30.5556C116.411 30.5556 111.007 32.6465 106.788 36.1329C107.566 38.2656 108.215 40.4601 108.727 42.7069C112.077 38.9974 116.92 36.6667 122.308 36.6667C124.447 36.6667 126.501 37.0343 128.409 37.7098V44.4128C126.614 43.373 124.53 42.7778 122.308 42.7778C115.568 42.7778 110.104 48.25 110.104 55C110.104 61.75 115.568 67.2222 122.308 67.2222C129.047 67.2222 134.511 61.75 134.511 55L134.511 54.9361V1.36288C158.966 6.92068 177.223 28.825 177.223 55C177.223 85.3756 152.636 110 122.308 110C109.669 110 98.0283 105.724 88.7479 98.538C79.4684 105.723 67.8236 110 55.1886 110C53.1262 110 51.0904 109.886 49.0869 109.664V103.511C51.0858 103.76 53.1222 103.889 55.1886 103.889C65.9834 103.889 75.9538 100.383 84.0355 94.4429C82.5663 93.0126 81.1766 91.5004 79.8736 89.914C72.9033 94.8655 64.3823 97.7778 55.1889 97.7778C53.117 97.7778 51.08 97.6302 49.0869 97.3445V91.1598C51.0714 91.4931 53.11 91.6667 55.1889 91.6667C63.0384 91.6667 70.3049 89.1956 76.2641 84.986C75.1503 83.274 74.1291 81.4959 73.2075 79.6592C68.1595 83.3647 61.9276 85.5556 55.1889 85.5556C53.0993 85.5556 51.0586 85.345 49.0869 84.9441V78.6741C51.0373 79.1771 53.0819 79.4444 55.1889 79.4444C61.0852 79.4444 66.4889 77.3535 70.7085 73.8671C69.9309 71.7344 69.2813 69.5399 68.7691 67.2931C65.4196 71.0026 60.576 73.3333 55.1889 73.3333C53.0493 73.3333 50.9955 72.9658 49.0869 72.2902V65.5869C50.882 66.627 52.966 67.2222 55.1889 67.2222C61.9285 67.2222 67.3923 61.75 67.3923 55C67.3923 48.25 61.9285 42.7778 55.1889 42.7778C48.4492 42.7778 42.9855 48.25 42.9855 55L42.9852 108.637C18.5298 103.079 0.273438 81.1748 0.273438 55C0.273438 24.6243 24.86 0 55.1889 0C67.827 0 79.4678 4.27576 88.7482 11.4617C98.0279 4.27717 109.672 0 122.308 6.22264e-06ZM140.612 9.66481V16.3388C155.043 23.2043 165.019 37.9353 165.019 55C165.019 78.6256 145.897 97.7778 122.308 97.7778C98.7184 97.7778 79.5956 78.6256 79.5956 55C79.5956 41.4996 68.6684 30.5556 55.1889 30.5556C41.7093 30.5556 30.7821 41.4996 30.7821 55C30.7821 61.1994 33.0864 66.8598 36.8838 71.1688V55C36.8838 44.8748 45.0793 36.6667 55.1889 36.6667C65.2985 36.6667 73.4939 44.8748 73.4939 55C73.4939 82.0007 95.3484 103.889 122.308 103.889C149.267 103.889 171.121 82.0007 171.121 55C171.121 34.4826 158.502 16.9173 140.612 9.66481ZM36.8838 79.4466L36.8835 86.7613C25.9409 80.4213 18.5787 68.5719 18.5787 55C18.5787 34.7496 34.9697 18.3333 55.1889 18.3333C75.408 18.3333 91.799 34.7496 91.799 55C91.799 71.8752 105.458 85.5556 122.308 85.5556C139.157 85.5556 152.816 71.8752 152.816 55C152.816 45.0034 148.023 36.128 140.613 30.5534V23.2387C151.555 29.5785 158.918 41.4281 158.918 55C158.918 75.2504 142.527 91.6667 122.308 91.6667C102.088 91.6667 85.6973 75.2504 85.6973 55C85.6973 38.1248 72.0381 24.4444 55.1889 24.4444C38.3393 24.4444 24.6805 38.1248 24.6805 55C24.6805 64.9966 29.4736 73.872 36.8838 79.4466ZM12.477 55C12.477 72.0647 22.4535 86.7955 36.8835 93.661V100.335C18.9945 93.0826 6.37527 75.5174 6.3753 55C6.3753 27.9994 28.2299 6.11111 55.1889 6.11111C82.148 6.11111 104.002 27.9994 104.002 55C104.002 65.1252 112.198 73.3333 122.308 73.3333C132.417 73.3333 140.613 65.1252 140.613 55V38.8312C144.41 43.1402 146.714 48.8006 146.714 55C146.714 68.5004 135.787 79.4444 122.308 79.4444C108.828 79.4444 97.9007 68.5004 97.9007 55C97.9007 31.3744 78.778 12.2222 55.1889 12.2222C31.5997 12.2222 12.477 31.3744 12.477 55Z" fill="#0A0A0A"/>
</svg>
