<svg width="180" height="88" viewBox="0 0 180 88" fill="none" xmlns="http://www.w3.org/2000/svg">
<g clip-path="url(#clip0_34_635)">
<path d="M176.122 11.5244C176.122 11.3797 175.998 11.2678 175.853 11.2757C175.72 11.283 175.611 11.3907 175.611 11.5243V11.7619C175.611 12.2885 175.185 12.7155 174.659 12.7155C174.134 12.7155 173.708 12.2885 173.708 11.7619C173.708 10.9371 173.246 10.1972 172.67 9.60889C171.621 8.53897 170.985 7.01866 171.3 5.65948C171.86 3.24363 173.186 2.2002 175.61 2.2002C178.035 2.2002 180 4.17014 180 6.6002C180 7.36679 179.805 8.08759 179.461 8.71521C178.631 10.2298 177.419 10.6131 177.419 12.341V13.8269C177.419 14.1859 177.129 14.4768 176.77 14.4768C176.412 14.4768 176.122 14.1858 176.122 13.8269V11.5244Z" fill="#0A0A0A"/>
<path d="M96.8876 18.6391C110.034 20.8944 124.486 19.519 137.257 22.6703C152.016 27.0769 160.34 39.1272 136.274 41.9498C123.529 42.9415 110.635 40.8432 98.0535 43.0742C84.7282 45.802 71.0462 50.3965 56.5797 48.1703C43.328 46.1227 31.9408 38.0188 32.2902 29.4021C32.2165 20.9376 44.6345 16.1017 56.6603 14.5555C70.4788 13.1345 83.923 16.0951 96.8876 18.6391ZM97.6579 17.0926C27.9136 0.891228 23.4999 25.8502 23.4235 29.3084C22.8532 39.625 36.5211 50.396 52.756 52.6792C69.6196 55.051 84.1151 48.3751 98.9928 44.7543C113.507 42.2241 127.533 45.4933 142.057 44.253C166.251 42.1867 160.839 24.4409 143.723 20.3983C129.197 16.9676 112.612 19.6563 97.6579 17.0926Z" fill="#0A0A0A"/>
<path d="M95.4848 22.6521C105.502 23.9459 132.15 25.6934 131.352 33.2541C130.333 37.6689 109.541 37.1391 96.1021 38.581C84.3762 39.7463 55.5365 41.7292 55.9011 29.7608C55.8056 18.7784 85.182 21.524 95.4848 22.6521ZM95.8986 21.1764C85.656 19.7178 74.5671 18.1507 64.0636 19.5227C56.0137 20.5743 47.0497 23.8967 47.2407 29.6164C46.8927 35.5802 55.5064 40.2574 64.1216 41.8C74.8683 43.7242 86.1742 41.6975 96.724 40.2438C111.423 38.4637 137.858 40.2237 138.913 33.9949C139.934 24.2564 108.366 22.8726 95.8986 21.1764Z" fill="#0A0A0A"/>
<path d="M95.391 27.0119C100.495 27.2906 112.691 28.568 111.518 31.4973C110.096 34.3161 99.1973 34.3161 95.5422 34.429C91.0141 34.4642 79.0064 34.5942 78.5595 30.4501C78.6321 26.3171 91.3809 26.8858 95.391 27.0119ZM95.5508 25.4492C89.3671 25.0642 70.4393 23.8877 70.3725 30.3194C69.8749 36.3923 89.5961 36.073 95.8535 36.134C100.495 36.073 117.061 35.9349 119.209 32.2307C120.735 27.9293 101.792 26.0133 95.5508 25.4492Z" fill="#0A0A0A"/>
<path fill-rule="evenodd" clip-rule="evenodd" d="M89.4751 8.73703C93.0905 10.0554 96.7331 11.3836 100.494 12.6109C108.089 15.6101 119.017 14.3805 130.445 13.0946C140.88 11.9204 151.732 10.6993 160.844 12.6082C170.597 14.6515 175.872 23.7334 175.599 32.5662L175.608 32.5534V52.1772C175.667 61.3439 169.794 70.477 156.793 71.4545C148.979 72.0421 141.357 70.8838 133.789 69.7336C123.228 68.1289 112.774 66.5403 102.051 69.7345C96.4506 71.7488 91.242 74.4286 86.0244 77.1133C74.0911 83.2533 62.1068 89.4192 45.27 87.7111C18.481 84.993 -0.18881 70.2049 0.00144075 49.6538C0.00947953 49.2679 0.0352036 48.8844 0.0705743 48.5021V31.7297C0.0164465 30.9137 -0.0055262 30.089 0.00197667 29.2534C0.320848 14.0846 22.2223 1.51419 46.0003 0.133754C63.1526 -0.861912 76.127 3.86943 89.4751 8.73703ZM127.042 15.3464C116.578 15.9865 106.382 16.6101 99.2788 14.3839C96.9904 13.6693 94.6506 12.9114 92.3027 12.151C86.5372 10.2835 80.7236 8.40048 75.5043 7.10463C42.0785 -1.17787 10.3849 11.226 8.79961 29.2349C7.59648 41.1822 24.7228 58.7464 47.605 61.3842C57.9776 62.2967 66.8733 60.5713 75.9095 57.4955C79.5569 56.1376 83.0693 54.652 86.5802 53.1667C91.2185 51.2048 95.8548 49.2435 100.8 47.5783C111.4 45.0287 121.694 46.1998 131.655 47.3328C138.394 48.0995 144.98 48.8486 151.403 48.4163C157.585 47.7099 162.602 46.1718 165.707 42.6215C172.008 34.1508 171.377 19.888 154.521 15.7677C146.619 14.1489 136.715 14.7547 127.042 15.3464Z" fill="#0A0A0A"/>
</g>
<defs>
<clipPath id="clip0_34_635">
<rect width="180" height="88" fill="white"/>
</clipPath>
</defs>
</svg>
