<svg width="200" height="55" viewBox="0 0 200 55" fill="none" xmlns="http://www.w3.org/2000/svg">
<g clip-path="url(#clip0_92_2)">
<path fill-rule="evenodd" clip-rule="evenodd" d="M25.3409 35.7C23.9847 35.7 22.684 35.16 21.725 34.1989C20.766 33.2378 20.2273 31.9342 20.2273 30.575V7H10V30.575C10 39.0661 16.8686 45.95 25.3409 45.95H36.5909V35.7H25.3409ZM56.0227 17.25C54.814 17.25 53.617 17.4886 52.5003 17.9522C51.3835 18.4158 50.3689 19.0953 49.5141 19.9519C48.6594 20.8086 47.9814 21.8255 47.5188 22.9447C47.0563 24.064 46.8182 25.2636 46.8182 26.475C46.8182 27.6864 47.0563 28.886 47.5188 30.0053C47.9814 31.1245 48.6594 32.1414 49.5141 32.9981C50.3689 33.8547 51.3835 34.5342 52.5003 34.9978C53.617 35.4614 54.814 35.7 56.0227 35.7C58.4639 35.7 60.8051 34.7281 62.5313 32.9981C64.2575 31.268 65.2273 28.9216 65.2273 26.475C65.2273 24.0284 64.2575 21.682 62.5313 19.9519C60.8051 18.2219 58.4639 17.25 56.0227 17.25ZM36.5909 26.475C36.5909 15.7197 45.2912 7 56.0227 7C66.7542 7 75.4545 15.7197 75.4545 26.475C75.4545 37.2303 66.7542 45.95 56.0227 45.95C45.2912 45.95 36.5909 37.2303 36.5909 26.475ZM166.477 17.25C164.036 17.25 161.695 18.2219 159.969 19.9519C158.242 21.682 157.273 24.0284 157.273 26.475C157.273 28.9216 158.242 31.268 159.969 32.9981C161.695 34.7281 164.036 35.7 166.477 35.7C168.918 35.7 171.26 34.7281 172.986 32.9981C174.712 31.268 175.682 28.9216 175.682 26.475C175.682 24.0284 174.712 21.682 172.986 19.9519C171.26 18.2219 168.918 17.25 166.477 17.25ZM147.045 26.475C147.045 15.7197 155.746 7 166.477 7C177.209 7 185.909 15.7197 185.909 26.475C185.909 37.2303 177.209 45.95 166.477 45.95C155.746 45.95 147.045 37.2303 147.045 26.475ZM96.9318 7C86.2003 7 77.5 15.7197 77.5 26.475C77.5 37.2303 86.2003 45.95 96.9318 45.95H125.568C127.582 45.95 129.524 45.6425 131.351 45.0726L136.818 48L142.717 36.9259C144.216 34.1068 145 30.9617 145 27.7675V26.475C145 15.7197 136.3 7 125.568 7H96.9318ZM134.773 26.475C134.773 24.0284 133.803 21.682 132.077 19.9519C130.351 18.2219 128.009 17.25 125.568 17.25H96.9318C95.7231 17.25 94.5261 17.4886 93.4094 17.9522C92.2926 18.4158 91.2779 19.0953 90.4232 19.9519C89.5685 20.8086 88.8905 21.8255 88.4279 22.9447C87.9653 24.064 87.7273 25.2636 87.7273 26.475C87.7273 27.6864 87.9653 28.886 88.4279 30.0053C88.8905 31.1245 89.5685 32.1414 90.4232 32.9981C91.2779 33.8547 92.2926 34.5342 93.4094 34.9978C94.5261 35.4614 95.7231 35.7 96.9318 35.7H125.568C127.997 35.7001 130.327 34.738 132.052 33.0235C133.776 31.3089 134.754 28.9809 134.773 26.5467V26.475Z" fill="white"/>
<path d="M190 9.5625C190 10.2421 189.731 10.8939 189.251 11.3745C188.772 11.855 188.121 12.125 187.443 12.125C186.765 12.125 186.115 11.855 185.635 11.3745C185.156 10.8939 184.886 10.2421 184.886 9.5625C184.886 8.88288 185.156 8.2311 185.635 7.75054C186.115 7.26998 186.765 7 187.443 7C188.121 7 188.772 7.26998 189.251 7.75054C189.731 8.2311 190 8.88288 190 9.5625Z" fill="white"/>
</g>
<defs>
<clipPath id="clip0_92_2">
<rect width="180" height="41" fill="white" transform="translate(10 7)"/>
</clipPath>
</defs>
</svg>
