<svg width="180" height="91" viewBox="0 0 180 91" fill="none" xmlns="http://www.w3.org/2000/svg">
<path d="M14.0346 19.5617C12.9244 16.7361 13.4064 13.4872 14.429 10.7548C15.505 7.87955 17.3786 5.01217 20.1789 3.5C20.3178 6.52995 19.3935 9.5235 18.3836 12.2229C17.4754 14.6508 16.361 17.2375 14.5208 19.2454C14.238 20.7669 14.0213 22.2841 13.8689 23.7944C14.4788 22.1989 15.4678 20.7447 16.7018 19.5753C18.2904 18.0696 20.6537 16.9078 22.8721 17.5948C22.2223 20.0504 20.7412 22.4044 18.9872 24.0557C17.6066 25.3554 15.7841 27.0209 13.6374 27.0863C13.549 29.3088 13.5989 31.511 13.7816 33.6833C14.0844 32.0936 14.7333 30.5966 15.6709 29.4819C16.9588 27.9501 18.8685 26.0787 21.3075 26.3917C21.1743 28.8771 20.1843 31.4235 18.8056 33.337C17.7101 34.8575 16.2638 36.7955 14.2109 37.2962C14.5397 39.4306 14.9975 41.5298 15.5784 43.5837C15.584 42.011 15.9309 40.4673 16.6191 39.2292C17.589 37.4832 19.0996 35.3059 21.5413 35.1356C21.8992 37.5739 21.4142 40.2393 20.4359 42.3593C19.6541 44.0538 18.6116 46.2147 16.7115 47.1088C17.5095 49.3187 18.4537 51.4668 19.5363 53.5402C19.1562 51.7531 19.1714 49.8699 19.6212 48.1756C20.2411 45.8397 21.7798 43.386 24.2502 42.6739C25.1235 45.2527 25.003 48.1308 24.4957 50.7519C24.0782 52.91 23.2579 55.4447 21.4191 56.8466C22.6213 58.7893 23.9512 60.6538 25.4015 62.4277C24.6222 60.6879 24.235 58.7851 24.4428 57.043C24.7455 54.5051 25.4576 51.7902 28.0463 50.4371C29.5149 52.9746 29.8552 55.8213 29.98 58.633C30.0808 60.9061 29.7538 63.7098 28.1773 65.559C29.9115 67.3645 31.7826 69.0543 33.7811 70.6125C32.4909 68.9551 31.5874 67.0101 31.396 65.0867C31.1258 62.3691 31.258 59.3775 33.6663 57.3832C35.726 59.5374 36.955 62.71 37.5574 65.4656C38.0901 67.9019 38.6462 70.7856 37.378 73.1832C39.9214 74.8457 42.6366 76.3105 45.5073 77.5509C43.4873 76.1094 41.8337 74.1317 41.0459 72.0898C40.0136 69.4132 39.3751 66.2238 41.386 63.5432C44.0802 65.2713 46.0604 68.2197 47.6205 70.9088C48.9591 73.2161 50.3448 76.4008 49.6573 79.1488C51.2467 79.6889 52.8772 80.1631 54.5466 80.5677L54.4474 80.9781C52.7716 80.5719 51.1348 80.0961 49.539 79.5545C48.4209 82.8632 44.7581 83.9562 41.796 84.4389C37.5754 85.1265 32.5499 83.7942 28.9468 81.1104C30.8485 78.4191 34.7286 78.1461 37.6544 77.9401L37.6925 77.9375C40.8977 77.7119 44.3644 78.0132 47.5876 78.8518C43.8641 77.4324 40.3799 75.6478 37.1672 73.5497L37.1198 73.6246C35.3593 76.4832 31.8247 76.5947 29.0502 76.4139C25.2855 76.1686 20.9389 73.8762 18.4233 70.7075C20.7895 68.6285 24.2844 69.2104 26.9925 69.6612L27.0056 69.6633C30.028 70.1664 33.3307 71.264 36.1031 72.954C35.839 72.7457 35.5806 72.5254 35.3294 72.2944C32.634 70.3699 30.1475 68.2173 27.8913 65.8702C27.865 65.8964 27.8385 65.9225 27.8117 65.9484C25.6178 68.1585 22.4226 67.5797 19.929 66.8605C16.592 65.898 13.1313 62.9942 11.4728 59.6606C14.0428 58.2186 17.1154 59.4069 19.5054 60.3468C22.1285 61.3784 24.9038 63.0287 27.0377 65.1324C26.8177 64.8545 26.6078 64.5641 26.4095 64.2637C24.426 62.0219 22.6417 59.6214 21.0731 57.089L20.9945 57.1384C18.5126 58.7422 15.7006 57.5808 13.4719 56.4385C10.4502 54.89 8.02191 51.4866 6.97267 48.1395C9.65327 47.2797 12.3017 48.9673 14.3605 50.3037C16.6123 51.7653 18.8932 53.8499 20.4588 56.2406C20.3438 56.0051 20.2367 55.7643 20.138 55.5189C18.6337 52.8908 17.3557 50.1317 16.3211 47.2696L16.2678 47.2878L16.2635 47.2894C14.0068 48.1484 11.4938 46.8128 9.85547 45.3481C7.57838 43.3125 5.97341 40.183 5.59716 37.1255C7.94991 36.8203 10.1665 38.6431 11.682 40.1978C13.4265 41.9872 14.9921 44.1021 15.9547 46.4511C15.8844 46.196 15.8241 45.9368 15.7734 45.675C14.8976 42.9854 14.234 40.2117 13.7966 37.376L13.7625 37.3802L13.751 37.3821C11.3652 37.7809 9.15941 35.9646 7.84156 34.2018C5.99263 31.7282 5.03951 28.3047 5.2784 25.2017C7.65492 25.3682 9.46453 27.6321 10.638 29.4635C11.9962 31.5836 13.1226 33.9831 13.6159 36.4933C13.6009 36.2936 13.592 36.0927 13.5888 35.8913C13.2265 33.0052 13.0974 30.0599 13.2155 27.0783L13.2087 27.0779C10.7831 26.9904 8.99042 24.7352 8.0649 22.7348C6.74059 19.8721 6.52739 16.2536 7.41131 13.2041C9.72318 13.8539 11.012 16.5095 11.7727 18.5537C12.6498 20.9106 13.262 23.4811 13.2669 26.0368C13.3931 23.8927 13.6472 21.7317 14.0346 19.5617Z" fill="#0A0A0A"/>
<path d="M61.809 14.2715V24.5086C61.809 29.0112 57.7368 31.1775 51.5649 31.1775C45.796 31.1775 41.6602 29.0326 41.6602 23.9777V14.2715H47.4079V23.9777C47.4079 25.783 48.9561 26.9086 51.7982 26.9086C54.513 26.9086 56.125 25.7405 56.125 23.9989V14.2715H61.809Z" fill="#0A0A0A"/>
<path d="M80.9522 26.505V30.9439H65.0664V14.2715H70.8142V26.505H80.9522Z" fill="#0A0A0A"/>
<path d="M98.0334 18.4556V14.2715H78.1602V18.4556H85.1805V30.9439H90.9919V18.4556H98.0334Z" fill="#0A0A0A"/>
<path fill-rule="evenodd" clip-rule="evenodd" d="M118.42 15.9707C119.184 16.7565 119.546 17.8397 119.546 19.3475C119.546 20.6432 119.228 21.7477 118.696 22.4909C118.102 23.298 117.19 23.9777 116.066 24.1476L121.094 30.9439H114.773L110.637 25.0608H105.483V30.9439H99.8203V14.2715H113.076C115.706 14.2715 117.424 14.9087 118.42 15.9707ZM113.84 20.7495C113.988 20.4945 114.03 20.1546 114.03 19.8787C114.03 19.56 113.988 19.2201 113.84 19.0079C113.543 18.4556 112.949 18.307 112.057 18.307H105.504V21.3441H112.164C113.076 21.3441 113.628 21.1742 113.84 20.7495Z" fill="#0A0A0A"/>
<path fill-rule="evenodd" clip-rule="evenodd" d="M128.745 27.8644H137.738L139.201 30.9439H145.331L136.932 14.2715H130.082L121.195 30.9439H127.196L128.745 27.8644ZM135.934 24.1263H130.611L132.712 20.1123L133.348 18.583L133.942 20.0909L135.934 24.1263Z" fill="#0A0A0A"/>
<path fill-rule="evenodd" clip-rule="evenodd" d="M117.813 34.084C114.254 34.084 112.383 35.7727 112.383 38.2542C112.383 41.0551 114.347 42.4759 117.813 42.4759C121.627 42.4759 123.232 40.8285 123.232 38.2542C123.232 35.6389 121.421 34.084 117.813 34.084ZM117.813 40.4064C115.787 40.4064 115.2 39.5723 115.2 38.2852C115.2 37.0187 115.838 36.1847 117.802 36.1847C119.952 36.1847 120.434 37.1216 120.434 38.2852C120.434 39.5209 119.848 40.4064 117.813 40.4064Z" fill="#0A0A0A"/>
<path d="M107.11 42.3531V37.5651H101.743V39.3053H104.612C104.591 39.4391 104.488 39.6966 104.355 39.8509C104.057 40.2011 103.265 40.51 102.236 40.51C101.167 40.51 100.478 40.2319 100.108 39.7995C99.8613 39.4803 99.7173 39.0272 99.7173 38.3477C99.7173 37.6372 99.8613 37.1533 100.139 36.8341C100.54 36.381 101.218 36.1854 102.216 36.1854C103.111 36.1854 103.727 36.3912 104.015 36.6486C104.201 36.8031 104.344 37.0194 104.375 37.1634H107.038C107.028 36.906 106.946 36.4943 106.802 36.1957C106.164 34.8983 104.684 34.126 102.165 34.126C99.9744 34.126 98.5039 34.7952 97.6917 35.8044C97.1569 36.4942 96.9102 37.3591 96.9102 38.327C96.9102 39.398 97.198 40.3143 97.6711 40.9219C98.473 41.962 99.9024 42.4766 101.62 42.4766C103.131 42.4766 104.17 42.1163 104.828 41.5707L104.9 42.3531H107.11Z" fill="#0A0A0A"/>
<path d="M79.0999 37.462C81.1872 37.6885 82.0818 38.43 82.0818 39.8406C82.0818 41.5499 80.416 42.4765 77.1358 42.4765C74.0819 42.4765 72.7658 41.6116 72.2618 40.479C72.1487 40.2113 72.0973 39.8818 72.0664 39.6758H75.0278C75.0485 39.7993 75.1205 39.9847 75.2232 40.1082C75.47 40.4069 76.1589 40.5819 77.3311 40.5819C78.8428 40.5819 79.2026 40.3656 79.2026 39.9642C79.2026 39.5316 78.8325 39.439 77.4648 39.2948C76.9199 39.2434 76.0561 39.1609 75.6963 39.1301C73.0845 38.8932 72.118 38.0798 72.118 36.6898C72.118 35.2481 73.8248 34.1465 76.9404 34.1465C79.7064 34.1465 80.9918 34.9702 81.5265 35.9999C81.691 36.3088 81.7937 36.6588 81.8247 36.9059H78.8632C78.8529 36.7927 78.8119 36.6794 78.6988 36.5352C78.4725 36.2367 77.8967 36.041 76.8684 36.041C75.4186 36.041 75.0382 36.216 75.0382 36.5867C75.0382 36.9986 75.5215 37.0914 77.1358 37.2664C77.763 37.3178 78.7605 37.4207 79.0999 37.462Z" fill="#0A0A0A"/>
<path fill-rule="evenodd" clip-rule="evenodd" d="M49.5802 34.9594C50.125 35.3918 50.4335 36.123 50.4335 37.1835C50.4335 38.0485 50.2177 38.697 49.8063 39.1501C49.2511 39.7885 48.3359 40.0769 47.1432 40.0872C46.7729 40.0976 43.6059 40.0872 43.6059 40.0872V42.3524H40.8398V34.2695H47.1019C48.2125 34.2695 49.0557 34.496 49.5802 34.9594ZM47.5339 37.8115C47.6161 37.6675 47.6573 37.482 47.6573 37.2246C47.6573 36.957 47.6057 36.7304 47.5133 36.6068C47.3385 36.3494 47.0095 36.2259 46.4747 36.2259H43.5853V38.2028H46.4541C47.0299 38.2028 47.3693 38.069 47.5339 37.8115Z" fill="#0A0A0A"/>
<path fill-rule="evenodd" clip-rule="evenodd" d="M60.553 35.0933C60.9233 35.4742 61.098 35.9994 61.098 36.7304C61.098 37.3585 60.9437 37.894 60.6867 38.2543C60.3988 38.6456 59.9567 38.9751 59.4116 39.0575L61.8486 42.3524H58.7844L56.7793 39.5003H54.2806V42.3524H51.5352V34.2695H57.9619C59.2369 34.2695 60.0698 34.5784 60.553 35.0933ZM58.332 37.4101C58.404 37.2865 58.4244 37.1217 58.4244 36.9878C58.4244 36.8335 58.404 36.6686 58.332 36.5657C58.188 36.298 57.9002 36.2259 57.4683 36.2259H54.2909V37.6983H57.5197C57.9619 37.6983 58.2292 37.6159 58.332 37.4101Z" fill="#0A0A0A"/>
<path d="M71.2342 42.3524V40.3447H65.4452V39.2943H70.9977V37.3277H65.4452V36.2876H71.1622V34.2695H62.7305V42.3524H71.2342Z" fill="#0A0A0A"/>
<path d="M92.0878 36.298V34.2695H82.4531V36.298H85.8565V42.3524H88.674V36.298H92.0878Z" fill="#0A0A0A"/>
<path d="M95.7926 34.2695V42.3524H92.9648V34.2695H95.7926Z" fill="#0A0A0A"/>
<path d="M111.27 34.2695V42.3524H108.441V34.2695H111.27Z" fill="#0A0A0A"/>
<path d="M134.144 34.2695V39.2325C134.144 41.4155 132.169 42.4658 129.177 42.4658C126.381 42.4658 124.375 41.4258 124.375 38.9751V34.2695H127.162V38.9751C127.162 39.8503 127.912 40.3961 129.291 40.3961C130.607 40.3961 131.388 39.8298 131.388 38.9854V34.2695H134.144Z" fill="#0A0A0A"/>
<path d="M145.246 39.8406C145.246 38.43 144.351 37.6885 142.264 37.462C141.924 37.4207 140.928 37.3178 140.3 37.2664C138.685 37.0914 138.201 36.9986 138.201 36.5867C138.201 36.216 138.582 36.041 140.033 36.041C141.06 36.041 141.637 36.2367 141.863 36.5352C141.976 36.6794 142.016 36.7927 142.027 36.9059H144.989C144.957 36.6588 144.854 36.3088 144.69 35.9999C144.155 34.9702 142.871 34.1465 140.104 34.1465C136.989 34.1465 135.281 35.2481 135.281 36.6898C135.281 38.0798 136.249 38.8932 138.86 39.1301L139.028 39.145L139.308 39.1706L140.629 39.2948C141.997 39.439 142.366 39.5316 142.366 39.9642C142.366 40.3656 142.008 40.5819 140.496 40.5819C139.323 40.5819 138.635 40.4069 138.387 40.1082C138.285 39.9847 138.212 39.7993 138.193 39.6758H135.23C135.262 39.8818 135.313 40.2113 135.426 40.479C135.929 41.6116 137.245 42.4765 140.3 42.4765C143.58 42.4765 145.246 41.5499 145.246 39.8406Z" fill="#0A0A0A"/>
<path fill-rule="evenodd" clip-rule="evenodd" d="M73.341 45.4473C71.0288 45.4473 69.8125 46.5449 69.8125 48.1577C69.8125 49.9778 71.0889 50.9013 73.341 50.9013C75.8205 50.9013 76.8629 49.8307 76.8629 48.1577C76.8629 46.4579 75.6868 45.4473 73.341 45.4473ZM73.341 49.5563C72.0246 49.5563 71.6436 49.0141 71.6436 48.1776C71.6436 47.3546 72.058 46.8124 73.3344 46.8124C74.731 46.8124 75.0453 47.4214 75.0453 48.1776C75.0453 48.9807 74.6643 49.5563 73.341 49.5563Z" fill="#0A0A0A"/>
<path d="M60.4818 49.189C60.4818 48.2722 59.9004 47.7902 58.5438 47.6431C58.3232 47.6163 57.6751 47.5494 57.2674 47.516C56.2181 47.4021 55.9041 47.3419 55.9041 47.0743C55.9041 46.8333 56.1514 46.7196 57.0936 46.7196C57.7619 46.7196 58.1361 46.8466 58.2832 47.0407C58.3566 47.1345 58.3834 47.208 58.3902 47.2817H60.3148C60.2947 47.121 60.2279 46.8935 60.121 46.6928C59.7734 46.0236 58.938 45.4883 57.1403 45.4883C55.1156 45.4883 54.0062 46.2042 54.0062 47.1412C54.0062 48.0447 54.6343 48.5734 56.3317 48.7272C56.5657 48.7473 57.127 48.8009 57.4813 48.8343C58.3701 48.9279 58.6105 48.9883 58.6105 49.2693C58.6105 49.5303 58.3767 49.6708 57.3944 49.6708C56.6325 49.6708 56.1847 49.557 56.0243 49.363C55.9575 49.2826 55.9107 49.1622 55.8974 49.0819H53.9727C53.9928 49.2158 54.0261 49.4298 54.0997 49.6039C54.4272 50.34 55.2826 50.9021 57.2674 50.9021C59.3992 50.9021 60.4818 50.2999 60.4818 49.189Z" fill="#0A0A0A"/>
<path fill-rule="evenodd" clip-rule="evenodd" d="M47.1373 49.3361C47.1373 49.6975 47.037 50.0522 46.8365 50.2864C46.5291 50.6612 45.9543 50.8217 45.2127 50.8217H40.5547V45.5684H45.0856C45.8074 45.5684 46.2686 45.7425 46.5225 46.0034C46.7497 46.2309 46.85 46.5321 46.85 46.8733C46.85 47.2148 46.7698 47.4958 46.596 47.7032C46.4555 47.8773 46.2151 48.011 45.9612 48.0446C46.3353 48.0913 46.6895 48.2788 46.89 48.5397C47.0571 48.7338 47.1373 49.0283 47.1373 49.3361ZM44.8852 47.4958C44.9519 47.4221 44.9921 47.315 44.9921 47.188C44.9921 47.0608 44.9519 46.9537 44.8651 46.8802C44.7716 46.793 44.5977 46.7596 44.3438 46.7596H42.3056V47.6162H44.3906C44.6178 47.6162 44.7917 47.5828 44.8852 47.4958ZM44.5844 49.6306C44.8985 49.6306 45.0856 49.5904 45.1926 49.4901C45.2593 49.4231 45.2861 49.3228 45.2861 49.1956C45.2861 49.0617 45.2527 48.9614 45.1725 48.8811C45.0723 48.7941 44.8985 48.7539 44.6045 48.7539H42.3056V49.6306H44.5844Z" fill="#0A0A0A"/>
<path d="M53.429 49.5169V50.8217H47.9023V45.5684H53.3822V46.8802H49.6665V47.556H53.2753V48.8342H49.6665V49.5169H53.429Z" fill="#0A0A0A"/>
<path d="M66.9844 45.5684V46.8868H64.7657V50.8217H62.9347V46.8868H60.7227V45.5684H66.9844Z" fill="#0A0A0A"/>
<path d="M82.9768 45.5684V46.9001H79.4149V47.643H82.8098V48.9614H79.4149V50.8217H77.6172V45.5684H82.9768Z" fill="#0A0A0A"/>
<path d="M92.0313 46.8868V45.5684H85.7695V46.8868H87.9816V50.8217H89.8127V46.8868H92.0313Z" fill="#0A0A0A"/>
<path d="M98.8623 45.5684V50.8217H97.0712V48.9145H94.3847V50.8217H92.5938V45.5684H94.3847V47.4823H97.0712V45.5684H98.8623Z" fill="#0A0A0A"/>
<path d="M105.452 50.8217V49.5169H101.69V48.8342H105.299V47.556H101.69V46.8802H105.406V45.5684H99.9258V50.8217H105.452Z" fill="#0A0A0A"/>
<path d="M116.529 45.5684H118.259L116.342 50.8217H114.378C114.378 50.8217 113.328 47.6832 113.321 47.5961C113.315 47.6832 112.258 50.8217 112.258 50.8217H110.301L108.336 45.5684H110.28C110.28 45.5684 111.417 48.8743 111.417 48.9546C111.417 48.8743 112.466 45.5684 112.466 45.5684H114.345C114.345 45.5684 115.4 48.8743 115.4 48.9546C115.4 48.8743 116.529 45.5684 116.529 45.5684Z" fill="#0A0A0A"/>
<path fill-rule="evenodd" clip-rule="evenodd" d="M121.692 45.4473C119.38 45.4473 118.164 46.5449 118.164 48.1577C118.164 49.9778 119.44 50.9013 121.692 50.9013C124.172 50.9013 125.214 49.8307 125.214 48.1577C125.214 46.4579 124.038 45.4473 121.692 45.4473ZM121.692 49.5563C120.376 49.5563 119.996 49.0141 119.996 48.1776C119.996 47.3546 120.41 46.8124 121.685 46.8124C123.083 46.8124 123.396 47.4214 123.396 48.1776C123.396 48.9807 123.015 49.5563 121.692 49.5563Z" fill="#0A0A0A"/>
<path fill-rule="evenodd" clip-rule="evenodd" d="M131.83 46.1039C132.07 46.3515 132.183 46.6927 132.183 47.1679C132.183 47.5761 132.084 47.924 131.916 48.1584C131.729 48.4126 131.442 48.6268 131.087 48.6802L132.671 50.8217H130.68L129.377 48.9681H127.753V50.8217H125.969V45.5684H130.145C130.974 45.5684 131.516 45.7693 131.83 46.1039ZM130.387 47.6096C130.432 47.5292 130.446 47.4221 130.446 47.3352C130.446 47.2347 130.432 47.1278 130.387 47.0608C130.292 46.8868 130.105 46.8399 129.824 46.8399H127.76V47.797H129.857C130.145 47.797 130.318 47.7434 130.387 47.6096Z" fill="#0A0A0A"/>
<path d="M138.251 50.8217V49.4231H135.057V45.5684H133.246V50.8217H138.251Z" fill="#0A0A0A"/>
<path fill-rule="evenodd" clip-rule="evenodd" d="M145.34 48.098C145.34 48.9145 145.26 49.3562 145.02 49.7712C144.658 50.4335 143.944 50.8217 142.68 50.8217H138.965V45.5684H142.64C143.897 45.5684 144.639 45.9231 145.006 46.5321C145.267 46.9404 145.34 47.3752 145.34 48.098ZM142.339 49.5302C142.907 49.5302 143.229 49.3963 143.423 49.102C143.543 48.9212 143.577 48.4996 143.577 48.1316C143.57 47.797 143.53 47.4423 143.423 47.2816C143.215 46.9671 142.902 46.8534 142.353 46.8534H140.756V49.5302H142.339Z" fill="#0A0A0A"/>
<path d="M73.6515 76.3711H70.8823C70.8823 76.3711 69.0753 81.6605 69.0753 81.7889C69.0753 81.6605 67.386 76.3711 67.386 76.3711H64.3814C64.3814 76.3711 62.7026 81.6605 62.7026 81.7889C62.7026 81.6605 60.885 76.3711 60.885 76.3711H57.7734L60.917 84.7762H64.0498C64.0498 84.7762 65.7392 79.7545 65.7499 79.6154C65.7607 79.7545 67.4393 84.7762 67.4393 84.7762H70.5828L73.6515 76.3711Z" fill="#0A0A0A"/>
<path d="M77.4405 84.7762V76.3711H74.5V84.7762H77.4405Z" fill="#0A0A0A"/>
<path d="M88.8772 76.3711V84.7762H86.0115L81.8523 80.0972V84.7762H79.0938V76.3711H82.1088L86.1398 80.9431V76.3711H88.8772Z" fill="#0A0A0A"/>
<path d="M100.334 84.7762V76.3711H97.597V80.9431L93.566 76.3711H90.5508V84.7762H93.3093V80.0972L97.4687 84.7762H100.334Z" fill="#0A0A0A"/>
<path d="M110.847 82.6882V84.7762H102.004V76.3711H110.772V78.4697H104.827V79.5512H110.601V81.5962H104.827V82.6882H110.847Z" fill="#0A0A0A"/>
<path fill-rule="evenodd" clip-rule="evenodd" d="M122.147 78.9301C122.147 78.1699 121.965 77.6239 121.581 77.2277C121.077 76.6924 120.212 76.3711 118.886 76.3711H112.203V84.7762H115.059V81.8103H117.657L119.742 84.7762H122.928L120.394 81.35C120.96 81.2643 121.42 80.9216 121.72 80.5147C121.986 80.1401 122.147 79.5832 122.147 78.9301ZM119.366 79.1979C119.366 79.337 119.345 79.5083 119.27 79.6368C119.164 79.851 118.886 79.9365 118.426 79.9365H115.069V78.4055H118.372C118.821 78.4055 119.122 78.4804 119.27 78.7588C119.345 78.8659 119.366 79.0372 119.366 79.1979Z" fill="#0A0A0A"/>
<path d="M65.1147 61.5416L63.9552 57.9678L62.7955 61.5416H59.043L62.0789 63.7503L60.9193 67.3241L63.9552 65.1155L66.9909 67.3241L65.8314 63.7503L68.8673 61.5416H65.1147Z" fill="#0A0A0A"/>
<path d="M77.3405 57.9658L78.5238 61.5397H82.3529L79.2552 63.7485L80.4384 67.3222L77.3405 65.1135L74.2428 67.3222L75.426 63.7485L72.3281 61.5397H76.1572L77.3405 57.9658Z" fill="#0A0A0A"/>
<path d="M91.805 61.5397L90.6219 57.9658L89.4387 61.5397H85.6094L88.7073 63.7485L87.524 67.3222L90.6219 65.1135L93.7197 67.3222L92.5364 63.7485L95.6343 61.5397H91.805Z" fill="#0A0A0A"/>
<path d="M103.903 57.9658L105.086 61.5397H108.915L105.818 63.7485L107.001 67.3222L103.903 65.1135L100.805 67.3222L101.989 63.7485L98.8906 61.5397H102.72L103.903 57.9658Z" fill="#0A0A0A"/>
<path d="M118.452 61.5397L117.291 57.9658L116.131 61.5397H112.379L115.414 63.7485L114.256 67.3222L117.291 65.1135L120.327 67.3222L119.168 63.7485L122.204 61.5397H118.452Z" fill="#0A0A0A"/>
<path d="M167.133 19.6392C168.243 16.8138 167.761 13.5646 166.738 10.8321C165.662 7.95705 163.788 5.08932 160.989 3.57715C160.849 6.60727 161.774 9.60065 162.784 12.3C163.692 14.7278 164.806 17.3143 166.646 19.3221C166.929 20.8432 167.146 22.3601 167.298 23.87C166.688 22.2752 165.7 20.8216 164.467 19.6526C162.878 18.1468 160.514 16.9851 158.296 17.6722C158.946 20.1276 160.426 22.4817 162.181 24.133C163.561 25.4327 165.384 27.098 167.53 27.1636C167.619 29.3863 167.568 31.5887 167.385 33.7612C167.083 32.1715 166.434 30.6745 165.496 29.5597C164.208 28.0278 162.298 26.1565 159.86 26.4696C159.993 28.9549 160.984 31.5014 162.362 33.4148C163.456 34.9354 164.903 36.8735 166.957 37.3742C166.628 39.5083 166.17 41.6071 165.588 43.6609C165.583 42.0883 165.237 40.5447 164.549 39.3065C163.579 37.5607 162.067 35.3832 159.626 35.2129C159.268 37.6512 159.753 40.3166 160.732 42.4366C161.513 44.1311 162.556 46.292 164.456 47.1861C163.657 49.3963 162.714 51.545 161.63 53.6186C162.011 51.8311 161.995 49.9476 161.546 48.2527C160.926 45.9168 159.388 43.463 156.917 42.7511C156.043 45.3302 156.164 48.2079 156.672 50.8291C157.09 52.9873 157.91 55.522 159.748 56.924C158.546 58.8677 157.216 60.733 155.764 62.5079C156.545 60.7673 156.931 58.8635 156.723 57.1207C156.421 54.5825 155.709 51.8677 153.121 50.5149C151.652 53.0524 151.311 55.8992 151.187 58.7109C151.085 60.9841 151.412 63.788 152.99 65.6374C151.255 67.4423 149.385 69.1316 147.387 70.6895C148.677 69.032 149.581 67.0873 149.771 65.164C150.042 62.4464 149.911 59.455 147.501 57.4605C145.442 59.6148 144.212 62.7873 143.611 65.5429C143.078 67.9791 142.522 70.8629 143.789 73.2606C141.247 74.9234 138.531 76.3883 135.66 77.6291C137.68 76.1874 139.333 74.2094 140.121 72.1672C141.154 69.4907 141.792 66.3012 139.782 63.6205C137.087 65.3486 135.107 68.2969 133.547 70.9861C132.208 73.2936 130.822 76.4785 131.511 79.2265C129.921 79.7665 128.29 80.2408 126.621 80.6454L126.721 81.0558C128.395 80.6496 130.032 80.1738 131.628 79.6321C132.746 82.9407 136.409 84.0341 139.371 84.5166C143.592 85.2041 148.618 83.872 152.221 81.1881C150.318 78.4967 146.439 78.2237 143.513 78.0178L143.475 78.0151C140.27 77.7896 136.802 78.0909 133.58 78.9297C137.302 77.5103 140.787 75.7253 144.001 73.627L144.044 73.697C145.804 76.5604 149.341 76.6724 152.116 76.4914C155.882 76.2461 160.229 73.9537 162.743 70.785C160.377 68.7064 156.884 69.2879 154.175 69.7385L154.161 69.741C151.14 70.2439 147.838 71.341 145.067 73.0304C145.331 72.8224 145.588 72.6024 145.839 72.3716C148.534 70.4474 151.019 68.2951 153.275 65.9484C153.307 65.9797 153.338 66.0105 153.369 66.0411C155.564 68.234 158.75 67.6555 161.239 66.9378C164.577 65.9753 168.037 63.0715 169.695 59.738C167.125 58.296 164.052 59.484 161.663 60.4241C159.037 61.4566 156.26 63.1088 154.124 65.2153C154.345 64.937 154.556 64.6462 154.755 64.3452C156.739 62.1022 158.525 59.7003 160.094 57.1663L160.162 57.2085L160.18 57.2195C162.66 58.8176 165.47 57.6572 167.696 56.5159C170.718 54.9673 173.147 51.5639 174.195 48.2168C171.514 47.3571 168.867 49.0446 166.808 50.3811C164.554 51.8435 162.272 53.9295 160.706 56.322C160.821 56.0859 160.929 55.8444 161.029 55.5985C162.534 52.9695 163.811 50.2098 164.846 47.3469L164.9 47.3651L164.909 47.3686C167.165 48.2238 169.676 46.8891 171.314 45.4254C173.589 43.3898 175.195 40.2603 175.571 37.2029C173.218 36.8977 171.001 38.7205 169.486 40.275C167.741 42.0656 166.174 44.1819 165.211 46.5328C165.283 46.2763 165.344 46.0157 165.394 45.7523C166.27 43.0629 166.934 40.2893 167.371 37.454L167.437 37.4628C169.814 37.8481 172.013 36.037 173.327 34.2791C175.176 31.8055 176.128 28.382 175.889 25.2789C173.514 25.4455 171.703 27.7093 170.531 29.5409C169.171 31.662 168.044 34.0628 167.551 36.5746C167.567 36.3737 167.575 36.1718 167.579 35.9691C167.941 33.0828 168.07 30.1374 167.951 27.1558C170.379 27.0705 172.177 24.8137 173.103 22.8124C174.426 19.95 174.639 16.3313 173.757 13.2819C171.445 13.9317 170.155 16.587 169.395 18.6312C168.517 20.9881 167.906 23.559 167.901 26.1147C167.775 23.9706 167.52 21.8093 167.133 19.6392Z" fill="#0A0A0A"/>
</svg>
