<svg width="180" height="76" viewBox="0 0 180 76" fill="none" xmlns="http://www.w3.org/2000/svg">
<path d="M90.2807 25.0736C91.0209 25.0632 91.6503 24.9247 91.64 24.1629V24.0487C91.6503 23.2904 91.0209 23.1519 90.2807 23.1416C89.5372 23.1519 88.9077 23.2904 88.9181 24.0487V24.1629C88.9077 24.9247 89.5372 25.0632 90.2807 25.0736Z" fill="#0A0A0A"/>
<path d="M63.2211 23.5427C63.2211 23.321 63.0448 23.1445 62.8234 23.1445H60.6133V23.9374H62.8234C62.9341 23.9374 63.0274 23.8993 63.1035 23.8231C63.183 23.7435 63.2211 23.6501 63.2211 23.5427Z" fill="#0A0A0A"/>
<path d="M75.6632 23.1338L76.2997 24.5084H75.0234L75.6632 23.1338Z" fill="#0A0A0A"/>
<path d="M104.058 23.1338L104.694 24.5084H103.418L104.058 23.1338Z" fill="#0A0A0A"/>
<path d="M58.8436 52.0788L57.9029 50.0469L56.957 52.0788H58.8436Z" fill="#0A0A0A"/>
<path d="M81.0432 51.4954C81.0432 52.1863 80.6495 52.7545 79.9543 52.7545H77.0195V50.2363H79.9543C80.6495 50.2363 81.0432 50.7993 81.0432 51.4954Z" fill="#0A0A0A"/>
<path d="M88.4772 50.0469L89.4179 52.0788H87.5312L88.4772 50.0469Z" fill="#0A0A0A"/>
<path d="M99.9116 50.0625C100.239 50.0625 100.499 50.3236 100.499 50.6511C100.499 50.8098 100.443 50.948 100.326 51.0657C100.213 51.1784 100.075 51.2346 99.9116 51.2346H96.6445V50.0625H99.9116Z" fill="#0A0A0A"/>
<path d="M110.72 51.4954C110.72 52.1863 110.326 52.7545 109.63 52.7545H106.695V50.2363H109.63C110.326 50.2363 110.72 50.7993 110.72 51.4954Z" fill="#0A0A0A"/>
<path d="M46.4238 38.671L43.0141 30.79H37.1641V43.9249H41.4261V36.8304L44.5016 43.9249H48.3126L51.4214 36.8304V43.9249H55.6668V30.79H50.0006L46.4238 38.671Z" fill="#0A0A0A"/>
<path d="M73.0611 43.9249V40.6621H63.6509V38.9554H72.6767V35.7596H63.6509V34.0696H72.9441V30.79H59.2383V43.9249H73.0611Z" fill="#0A0A0A"/>
<path d="M76.6548 41.599C77.9585 43.289 80.2818 44.1256 83.0731 44.1256C85.1693 44.1256 86.7058 43.6994 87.7763 43.0235C87.9604 42.9071 88.1309 42.7833 88.288 42.6531L88.405 43.9248H91.9985V36.1442H83.2737V38.9721H87.937C87.9165 39.1059 87.8452 39.316 87.7427 39.5162C87.6788 39.6412 87.6026 39.7623 87.5191 39.8588C87.0345 40.4277 85.7474 40.9297 84.076 40.9297C82.3377 40.9297 81.2178 40.478 80.616 39.7752C80.2149 39.2564 79.9809 38.5202 79.9809 37.4159C79.9809 36.2614 80.2149 35.4749 80.6663 34.9563C81.318 34.2201 82.4212 33.9021 84.0425 33.9021C85.4967 33.9021 86.4996 34.2368 86.9676 34.6551C87.2685 34.9061 87.5025 35.2575 87.5525 35.4917H91.8816C91.8755 35.3373 91.8533 35.1485 91.8161 34.9476C91.7524 34.6043 91.6448 34.2249 91.4971 33.9189C90.4608 31.8105 88.054 30.5557 83.959 30.5557C80.3988 30.5557 78.0086 31.6432 76.6883 33.2831C75.8191 34.4041 75.418 35.8096 75.418 37.3824C75.418 39.1226 75.886 40.6118 76.6548 41.599Z" fill="#0A0A0A"/>
<path d="M80.5273 37.4159C80.5273 36.3241 80.7503 35.6927 81.0775 35.3155C81.5696 34.7611 82.4675 34.4463 84.0454 34.4463C85.4484 34.4463 86.288 34.7746 86.6084 35.061L86.6154 35.0672L86.6225 35.0732C86.7327 35.1651 86.8335 35.2784 86.9096 35.3888C86.9849 35.4979 87.0151 35.5737 87.0225 35.6001H82.733V39.5162H87.0994C86.9431 39.6931 86.6074 39.9139 86.0742 40.0912C85.5433 40.2678 84.8622 40.3856 84.0789 40.3856C82.4273 40.3856 81.4984 39.9576 81.0405 39.4313C80.7413 39.0385 80.5273 38.4362 80.5273 37.4159Z" fill="#0A0A0A"/>
<path d="M103.355 35.6299L102.109 38.0099H104.531L103.355 35.6299Z" fill="#0A0A0A"/>
<path fill-rule="evenodd" clip-rule="evenodd" d="M106.826 41.4987L107.98 43.9249H112.81L106.191 30.79H100.792L93.7891 43.9249H98.5193L99.7393 41.4987H106.826ZM101.21 38.5538L102.865 35.3915L103.366 34.1867L103.834 35.3747L105.406 38.5538H101.21Z" fill="#0A0A0A"/>
<path fill-rule="evenodd" clip-rule="evenodd" d="M141.706 66.6681H141.699C141.605 66.6681 141.512 66.6676 141.419 66.6667V66.6681H39.1842C30.1626 66.6681 22.1154 62.4919 16.8664 55.9655H31.9293V54.0542H15.455C12.9973 50.4209 11.3505 46.1932 10.7745 41.6314H31.9293V39.7202H10.5976C10.5639 39.1511 10.5469 38.5775 10.5469 38.0001C10.5469 34.2165 11.279 30.6043 12.6093 27.2973H31.9293V25.3861H13.4608C15.4846 21.2579 18.4708 17.6881 22.1268 14.9701H124.648C125.926 14.0199 127.286 13.1737 128.715 12.4441C128.33 12.6407 127.95 12.8457 127.575 13.0588H25.0542C29.2234 10.6867 34.0457 9.33203 39.184 9.33203H141.419V9.33338C141.515 9.33244 141.61 9.33203 141.706 9.33203C157.521 9.33203 170.343 22.1671 170.343 38.0001C170.343 53.833 157.521 66.6681 141.706 66.6681ZM152.354 51.4457C153.636 47.5788 154.401 42.9858 154.401 38.0001C154.401 33.3522 153.735 29.0456 152.608 25.3502C152.469 24.899 152.325 24.457 152.174 24.0245C151.922 23.3042 151.651 22.6107 151.365 21.946C150.978 21.0485 150.561 20.2037 150.119 19.4172C148.03 15.7063 145.648 13.7078 143.424 13.0349V21.946H149.272C149.767 23.0028 150.219 24.1535 150.618 25.3861H143.424V36.2799H152.461C152.481 36.8468 152.492 37.4204 152.492 38.0001C152.492 38.5798 152.481 39.1533 152.461 39.7201H143.424V50.614H150.617C150.219 51.8467 149.767 52.9973 149.272 54.0541H143.424V62.9653C145.648 62.2926 148.03 60.2939 150.119 56.5829C150.561 55.7964 150.979 54.9516 151.365 54.0541C151.721 53.2279 152.052 52.357 152.354 51.4457ZM156.197 25.3861C157.114 28.7069 157.681 32.3889 157.809 36.2799H166.848C166.583 32.3303 165.408 28.63 163.535 25.3861H156.197ZM161.146 21.946H155.074C153.972 19.0551 152.581 16.5405 150.974 14.5333C154.966 16.1145 158.457 18.6864 161.146 21.946ZM139.988 13.0346V21.946H132.046C132.433 21.0485 132.849 20.2037 133.292 19.4172C135.38 15.7057 137.764 13.7069 139.988 13.0346ZM132.437 14.5332C130.83 16.5404 129.44 19.055 128.338 21.946H122.265C124.954 18.6863 128.446 16.1143 132.437 14.5332ZM127.214 25.3861H116.218V27.2973H118.879C117.586 30.0555 116.777 33.0862 116.562 36.2799H125.601C125.731 32.3889 126.297 28.7069 127.214 25.3861ZM139.988 25.3861H130.793C129.811 28.6127 129.183 32.3036 129.041 36.2799H139.988V25.3861ZM157.809 39.7201C157.681 43.6111 157.114 47.2931 156.197 50.614H163.535C165.408 47.3701 166.583 43.6697 166.848 39.7201H157.809ZM130.793 50.614C129.811 47.3874 129.183 43.6964 129.041 39.7201H139.988V50.614H130.793ZM127.214 50.614C126.297 47.2931 125.731 43.6111 125.601 39.7201H116.562C116.828 43.6697 118.002 47.3701 119.876 50.614H127.214ZM155.074 54.0541C153.972 56.945 152.581 59.4595 150.975 61.4667C154.966 59.8855 158.457 57.3136 161.146 54.0541H155.074ZM132.046 54.0541H139.988V62.9657C137.764 62.2933 135.38 60.2945 133.292 56.5829C132.849 55.7964 132.433 54.9516 132.046 54.0541ZM128.338 54.0541L116.218 54.0542V55.9654H124.013C126.403 58.3245 129.261 60.2092 132.437 61.4669C130.83 59.4598 129.44 56.9451 128.338 54.0541ZM90.282 21.6662C88.5319 21.6696 87.1 22.1751 87.107 23.9375V24.2768C87.1 26.0357 88.5319 26.5447 90.282 26.5481C92.0286 26.5447 93.4605 26.0357 93.4535 24.2768V23.9375C93.4535 22.1786 92.032 21.6662 90.282 21.6662ZM35.9122 21.7804V26.4338H37.7246V21.7804H35.9122ZM43.2203 24.2457L41.1797 21.7804H38.686V26.4338H40.4984V23.5913L42.9955 26.4338H45.0361V21.7804H43.2203V24.2457ZM49.6326 23.2623V26.4408H47.8204V23.2623H45.6656V21.7874H51.7873V23.2623H49.6326ZM52.3961 26.4408H57.8366V25.2463H54.2084V24.6508H57.8366V23.5739H54.2084V22.9784H57.8366V21.7874H52.3961V26.4408ZM58.8015 26.4373V21.7839H63.2804C64.2384 21.7736 65.0513 22.5803 65.0374 23.5428C65.0374 23.8925 64.944 24.211 64.7573 24.495C64.5739 24.7753 64.3284 24.9901 64.024 25.132L65.0374 26.4373H63.1075L62.2325 25.3017H60.6138V26.4373H58.8015ZM70.1355 24.2457L68.0948 21.7804H65.6012V26.4338H67.4135V23.5913L69.9106 26.4338H71.9513V21.7804H70.1355V24.2457ZM74.1302 26.4408H72.0896L74.5833 21.7874H76.738L79.2317 26.4408H77.1911L76.8245 25.6444H74.4968L74.1302 26.4408ZM81.9986 26.4408V23.2623H84.1533V21.7874H78.0316V23.2623H80.1863V26.4408H81.9986ZM84.762 26.4338V21.7804H86.5743V26.4338H84.762ZM96.4903 21.7804L98.5309 24.2457V21.7804H100.347V26.4338H98.3061L95.809 23.5913V26.4338H93.9966V21.7804H96.4903ZM100.485 26.4408H102.526L102.892 25.6444H105.22L105.587 26.4408H107.627L105.134 21.7874H102.979L100.485 26.4408ZM107.769 26.4338V21.7804H109.581V24.9588H113.209V26.4338H107.769ZM40.6081 49.6428C39.7747 49.6428 38.7521 49.7657 38.7521 50.3133C38.7521 50.6153 39.5855 50.6563 40.6643 50.7074L40.6762 50.708C42.5928 50.8052 45.276 50.9413 45.271 52.6625C45.271 54.628 43.0213 55.0938 40.6081 55.0938C38.2 55.0887 36.2009 54.7969 35.9453 52.6625H38.7521C39.0589 53.1949 39.7696 53.3331 40.6081 53.3331C41.4415 53.3331 42.4641 53.1949 42.4641 52.6625C42.4641 52.3606 41.6307 52.3145 40.5519 52.2634L40.5399 52.2628C38.6233 52.1656 35.9401 52.0295 35.9453 50.3133C35.9453 48.348 38.1949 47.877 40.6081 47.877C43.0162 47.8923 45.0153 48.1636 45.271 50.3133H42.4641C42.1572 49.7707 41.4466 49.6428 40.6081 49.6428ZM51.2171 50.2366V54.9351H48.538V50.2366H45.3528V48.0562H54.4024V50.2366H51.2171ZM52.623 54.9351H55.6396L56.1815 53.7579H59.6225L60.1644 54.9351H63.181L59.4946 48.0562H56.3094L52.623 54.9351ZM67.0769 48.0459L70.0935 51.6901V48.0459H72.7777V54.9249H69.7611L66.0697 50.7228V54.9249H63.3906V48.0459H67.0769ZM74.3421 48.0562V54.9351H80.457C82.3436 54.9607 83.7446 53.3638 83.7291 51.4956C83.7446 49.6173 82.3436 48.0306 80.457 48.0562H74.3421ZM86.214 54.9351H83.1975L86.8838 48.0562H90.069L93.7552 54.9351H90.7387L90.1968 53.7579H86.7559L86.214 54.9351ZM93.9649 48.0511V54.93H96.6441V53.2512H99.0368L100.33 54.93H103.183L101.685 53.0004C102.135 52.7905 102.498 52.4733 102.769 52.0586C103.045 51.639 103.183 51.168 103.183 50.6511C103.204 49.2282 102.002 48.0357 100.586 48.0511H93.9649ZM104.017 54.9351V48.0562H110.131C112.018 48.0306 113.419 49.6173 113.404 51.4956C113.419 53.3638 112.018 54.9607 110.131 54.9351H104.017ZM56.2099 44.4689H50.8774V39.4252L48.6672 44.4689H44.1446L41.9693 39.4511V44.4689H36.6201V30.2457H43.3706L46.4352 37.3292L49.6501 30.2457H56.2099V44.4689ZM73.6053 44.4689H58.6954V30.2457H73.4884V34.6135H64.1951V35.2153H73.2209V39.4993H64.1951V40.1178H73.6053V44.4689ZM92.5445 44.4689H87.9115L87.8337 43.6244C86.6723 44.2848 85.1001 44.6697 83.0754 44.6697C80.1951 44.6697 77.6746 43.8073 76.2277 41.9327C75.3668 40.8269 74.8767 39.2104 74.8767 37.3824C74.8767 35.7169 75.3023 34.186 76.2611 32.9494L76.2641 32.9453L76.2673 32.9415C77.7237 31.1327 80.2974 30.0115 83.9613 30.0115C88.1489 30.0115 90.8179 31.2998 91.9871 33.6786L91.9881 33.6804L91.9889 33.6823C92.2608 34.2459 92.4078 34.9906 92.4269 35.4699L92.4322 35.6001H92.5445V44.4689ZM100.077 42.0427L98.8565 44.4689H92.8851L100.469 30.2457H106.529L113.696 44.4689H107.638L106.486 42.0427H100.077ZM35.8431 61.9857H113.64V60.0744H35.8431V61.9857Z" fill="#0A0A0A"/>
<path fill-rule="evenodd" clip-rule="evenodd" d="M39.1821 2.45117H141.704C161.315 2.45117 177.214 18.3667 177.214 37.9996C177.214 57.6324 161.315 73.5479 141.704 73.5479H39.1821C19.5703 73.5479 3.67188 57.6324 3.67188 37.9996C3.67188 18.3667 19.5703 2.45117 39.1821 2.45117ZM39.1821 5.8914C21.4682 5.8914 7.10841 20.2667 7.10841 37.9996C7.10841 55.7324 21.4682 70.1078 39.1821 70.1078H141.704C159.417 70.1078 173.777 55.7324 173.777 37.9996C173.777 20.2667 159.417 5.8914 141.704 5.8914H39.1821Z" fill="#0A0A0A"/>
</svg>
