<svg width="180" height="72" viewBox="0 0 180 72" fill="none" xmlns="http://www.w3.org/2000/svg">
<g clip-path="url(#clip0_33_458)">
<path d="M8.58614 7.623C9.05414 5.4018 11.2681 3.6 13.5235 3.6H25.7851L15.5881 51.8814H3.32654C1.06934 51.8814 -0.381456 50.0814 0.088344 47.8584L8.58614 7.623ZM49.4587 7.623C49.9285 5.4018 52.1407 3.6 54.3961 3.6H66.6577L56.4607 51.8814H44.1991C41.9419 51.8814 40.4911 50.0814 40.9609 47.8584L49.4587 7.623ZM131.206 7.623C131.674 5.4018 133.884 3.6 136.143 3.6H148.405L138.208 51.8814H125.944C123.687 51.8814 122.238 50.0814 122.708 47.8584L131.206 7.623ZM70.7455 3.6H83.0071C85.2643 3.6 86.7151 5.4 86.2453 7.623L77.7475 47.8584C77.2795 50.0814 75.0673 51.8814 72.8101 51.8814H60.5485L70.7455 3.6ZM152.493 3.6H164.754C167.011 3.6 168.462 5.4 167.992 7.623L159.493 47.8584C159.025 50.0814 156.814 51.8814 154.557 51.8814H142.294L152.493 3.6ZM90.3331 7.623C90.8011 5.4018 93.0115 3.6 95.2687 3.6H107.532L97.3333 51.8814H85.0717C82.8145 51.8814 81.3637 50.0814 81.8353 47.8584L90.3313 7.623H90.3331ZM111.618 3.6H123.882C126.139 3.6 127.588 5.4 127.118 7.623L114.372 67.977C113.901 70.1982 111.69 72 109.433 72H97.1695L111.618 3.6ZM23.0743 35.7876H39.4237L36.8749 47.8584C36.4051 50.0814 34.1929 51.8814 31.9375 51.8814H19.6741L23.0725 35.7894L23.0743 35.7876ZM80.1361 55.9062H96.4837L93.0853 72H80.8237C78.5647 72 77.1157 70.2 77.5855 67.977L80.1361 55.9062ZM124.513 59.6484L122.443 69.4512C122.353 69.8724 122.213 69.9876 121.785 69.9876H120.843C120.415 69.9876 120.321 69.8724 120.411 69.4512L122.481 59.6484C122.571 59.229 122.712 59.112 123.14 59.112H124.081C124.51 59.112 124.603 59.229 124.513 59.6484ZM127.235 66.2616H127.042C126.837 66.2616 126.765 66.3192 126.724 66.5226L126.105 69.4512C126.015 69.8724 125.872 69.9876 125.446 69.9876H124.503C124.076 69.9876 123.982 69.8724 124.071 69.4512L126.141 59.6484C126.231 59.229 126.375 59.112 126.801 59.112H128.745C130.984 59.112 131.832 59.9094 131.418 61.866L131.073 63.5058C130.659 65.4642 129.474 66.2616 127.235 66.2616ZM127.804 61.4034L127.264 63.9702C127.219 64.1736 127.266 64.2312 127.473 64.2312H127.782C128.502 64.2312 128.889 63.9414 129.046 63.2016L129.262 62.172C129.418 61.434 129.156 61.1424 128.434 61.1424H128.124C127.919 61.1424 127.847 61.2 127.804 61.4034ZM134.532 62.9838L136.062 64.6668C136.865 65.5362 136.977 66.0582 136.771 67.0302L136.717 67.2912C136.33 69.1182 135.409 70.1334 133.272 70.1334C131.137 70.1334 130.61 69.2784 131.103 66.942L131.164 66.654C131.254 66.2328 131.397 66.1158 131.823 66.1158H132.824C133.252 66.1158 133.346 66.2328 133.256 66.6522L133.121 67.2912C132.999 67.8708 133.186 68.103 133.701 68.103C134.217 68.103 134.498 67.887 134.61 67.365L134.667 67.0878C134.754 66.681 134.707 66.4794 134.264 66.0006L132.824 64.449C132.018 63.594 131.915 63.099 132.12 62.127L132.187 61.8102C132.574 59.9832 133.495 58.9662 135.63 58.9662C137.767 58.9662 138.294 59.823 137.801 62.1576L137.74 62.4474C137.65 62.8686 137.508 62.9838 137.081 62.9838H136.078C135.652 62.9838 135.558 62.8686 135.646 62.4474L135.781 61.8102C135.904 61.2288 135.718 60.9984 135.202 60.9984C134.687 60.9984 134.404 61.2144 134.295 61.7364L134.242 61.983C134.152 62.4042 134.199 62.6076 134.532 62.9838ZM143.158 59.6484C143.248 59.229 143.388 59.112 143.817 59.112H144.758C145.186 59.112 145.28 59.229 145.19 59.6484L143.649 66.9438C143.156 69.2784 142.269 70.1334 140.132 70.1334C137.997 70.1334 137.47 69.2784 137.963 66.942L139.504 59.6484C139.594 59.229 139.736 59.112 140.163 59.112H141.106C141.532 59.112 141.626 59.229 141.538 59.6484L139.923 67.2912C139.801 67.8708 140.002 68.103 140.562 68.103C141.106 68.103 141.421 67.8708 141.543 67.2912L143.158 59.6484ZM149.289 65.5506C149.294 65.6676 149.332 65.6946 149.406 65.6946C149.478 65.6946 149.53 65.6676 149.584 65.5506L152.129 59.49C152.253 59.184 152.401 59.112 152.77 59.112H154.199C154.626 59.112 154.719 59.229 154.631 59.6484L152.561 69.4512C152.471 69.8724 152.327 69.9876 151.9 69.9876H151.224C150.797 69.9876 150.702 69.8724 150.792 69.4512L151.785 64.7532C151.812 64.6236 151.789 64.593 151.701 64.593C151.641 64.593 151.575 64.6236 151.539 64.7244L149.483 69.5106C149.335 69.858 149.146 69.9876 148.72 69.9876H148.32C147.877 69.9876 147.744 69.858 147.744 69.5106L147.694 64.7226C147.685 64.6218 147.661 64.593 147.588 64.593C147.499 64.593 147.463 64.6236 147.436 64.7532L146.445 69.4512C146.355 69.8724 146.214 69.9876 145.786 69.9876H145.109C144.681 69.9876 144.587 69.8724 144.677 69.4512L146.747 59.6484C146.837 59.229 146.979 59.112 147.406 59.112H148.63C149.145 59.112 149.31 59.229 149.307 59.7366L149.287 65.5506H149.289ZM180 3.6C180 5.589 178.398 7.2 176.424 7.2C175.952 7.19858 175.486 7.10433 175.051 6.92262C174.616 6.74092 174.222 6.47532 173.889 6.14101C173.557 5.80669 173.294 5.41021 173.115 4.97422C172.936 4.53822 172.845 4.07126 172.847 3.6C172.847 1.611 174.449 0 176.424 0C178.398 0 180 1.611 180 3.6Z" fill="#0A0A0A"/>
</g>
<defs>
<clipPath id="clip0_33_458">
<rect width="180" height="72" fill="white"/>
</clipPath>
</defs>
</svg>
