<svg width="180" height="80" viewBox="0 0 180 80" fill="none" xmlns="http://www.w3.org/2000/svg">
<path d="M105.589 14.3517C105.907 14.669 106.317 14.8815 106.784 14.7726C110.832 13.8261 114.798 12.5375 118.47 10.5673C118.912 10.3304 119.251 9.7902 119.418 9.3401C119.608 8.82554 119.685 8.1191 119.532 7.58286C119.405 7.13819 119.185 6.61737 118.742 6.39941C118.317 6.19084 117.897 6.20523 117.475 6.43175C116.298 7.06331 115.088 7.62812 113.85 8.13141C111.503 9.04768 109.076 9.73096 106.624 10.3043C105.56 10.553 104.997 11.8958 105.069 12.8929C105.105 13.3965 105.216 13.9794 105.589 14.3517Z" fill="#0A0A0A"/>
<path d="M170.38 15.5491C170.213 15.1981 169.946 14.7736 169.51 14.737C169.049 14.6984 168.751 14.9411 168.43 15.2412C166.816 16.7508 165.506 18.5444 163.904 20.0629C163.376 20.5315 162.815 20.9592 162.219 21.3404C162.404 20.9518 162.593 20.5655 162.793 20.1841C163.407 19.0075 164.089 17.8681 164.831 16.7675C165.121 16.3526 165.402 15.9438 165.593 15.4621C165.858 14.7924 165.872 13.8853 165.586 13.2195C165.402 12.7911 164.893 12.1848 164.337 12.4299C164.03 12.565 163.846 12.6871 163.6 12.9411C163.521 13.0225 163.446 13.1078 163.369 13.1918C163.192 13.389 163.016 13.5873 162.84 13.7865C162.486 14.1882 162.136 14.5936 161.789 15.0019C161.129 15.7801 160.48 16.5682 159.833 17.3568C158.564 18.9003 157.294 20.4443 155.939 21.913C155.562 22.3208 155.18 22.7237 154.789 23.1197C155.022 22.658 155.247 22.1922 155.467 21.7242C156.338 19.8688 157.126 17.9761 158.035 16.1385C158.301 15.6017 158.577 15.0693 158.865 14.5444C159.004 14.2918 159.146 14.0411 159.291 13.7923C159.369 13.6593 159.452 13.5284 159.527 13.3941C159.748 13.0016 159.855 12.5924 159.962 12.1554C160.073 11.6951 160.018 10.9386 159.811 10.5025C159.622 10.1039 159.385 9.81666 158.94 9.69027C158.258 9.49609 157.656 10.3898 157.248 10.8308C156.979 11.1215 156.709 11.4121 156.44 11.7022C155.845 12.3423 155.248 12.9812 154.651 13.6194C153.373 14.9866 152.091 16.351 150.811 17.7164C149.806 18.7878 148.8 19.858 147.796 20.9315C148.138 19.9286 148.473 18.9224 148.803 17.9145C149.1 17.0091 149.403 16.1052 149.687 15.1961C150.005 14.1775 150.098 12.8535 149.359 11.9754C148.871 11.3952 148.06 11.235 147.424 11.6957C146.822 12.1318 146.475 12.8854 146.085 13.5044C145.807 13.9473 145.53 14.3902 145.251 14.8335C144.731 15.663 144.21 16.4927 143.687 17.321C142.747 18.811 141.8 20.2981 140.807 21.7548C139.879 23.1037 138.901 24.4553 137.712 25.5874C137.325 25.9251 136.909 26.2297 136.455 26.4705C136.128 26.6062 135.789 26.7011 135.438 26.7477C135.442 26.7304 135.445 26.7131 135.448 26.6959C135.46 26.6496 135.473 26.6032 135.486 26.5571C135.634 26.0432 135.814 25.5385 136.009 25.0407C136.106 24.7904 136.211 24.5426 136.316 24.2953L136.319 24.2899C136.382 24.1488 136.446 24.0084 136.51 23.8683C137.425 21.8979 138.484 19.993 139.6 18.1306C139.842 17.7277 140.086 17.3253 140.338 16.9288C140.599 16.5208 140.694 15.991 140.729 15.5216C140.763 15.0835 140.749 14.577 140.556 14.1713C140.433 13.9132 140.275 13.6674 140.039 13.4973C139.713 13.2615 139.249 13.3474 138.941 13.5562C136.202 15.409 133.49 17.3057 130.847 19.2926V19.286C130.854 19.2242 130.859 19.1622 130.866 19.1004C130.889 18.8699 130.917 18.6395 130.951 18.4099C130.985 18.1815 131.024 17.9537 131.066 17.727C131.087 17.6201 131.143 17.3946 131.175 17.2549C131.266 16.9326 131.36 16.6122 131.476 16.2972C131.514 16.1923 131.557 16.0897 131.599 15.9862C131.652 15.8681 131.746 15.657 131.794 15.5632C131.868 15.4194 131.948 15.2797 132.028 15.1394C132.434 14.626 132.833 14.1073 133.22 13.5789C133.56 13.1126 133.784 12.6297 133.876 12.0534C133.955 11.553 133.949 10.8731 133.725 10.4005C133.558 10.0494 133.291 9.62498 132.855 9.58827C132.407 9.55074 132.076 9.78017 131.776 10.0926C131.197 10.6939 130.699 11.3503 130.266 12.0459C128.874 13.7598 127.371 15.3764 125.766 16.9047C125.576 17.0852 125.385 17.2647 125.195 17.4441C125.137 16.6293 124.939 15.7869 124.558 15.0785C124.117 14.2595 123.497 13.5875 122.548 13.3921C121.725 13.2225 120.924 13.522 120.193 13.8582C119.456 14.1971 118.792 14.6762 118.168 15.1884C116.636 16.4456 115.269 17.8797 113.985 19.3839C114.154 19.0632 114.325 18.7424 114.486 18.4176C114.835 17.7132 115.042 16.8521 114.844 16.0664C114.706 15.5197 114.456 14.9856 113.902 14.777C113.025 14.4468 112.261 15.3341 111.725 15.9101C111.076 16.6083 110.414 17.2892 109.791 18.0122C108.988 18.9447 108.216 19.9032 107.452 20.8678C106.567 21.9859 105.695 23.1139 104.822 24.2415C105.405 23.0123 105.932 21.7401 106.171 20.4097C106.348 19.4242 106.331 18.1915 105.679 17.3647C105.198 16.7542 104.5 16.6083 103.765 16.7586C103.37 16.8395 102.997 17.0219 102.633 17.1864C102.269 17.351 101.918 17.5426 101.576 17.7469C100.99 18.0955 100.424 18.4771 99.8691 18.873C99.7983 18.6917 99.7016 18.5241 99.5685 18.3848C99.2854 18.0896 98.8647 17.8299 98.4333 17.9736C95.2181 19.0444 92.2034 20.6862 89.5921 22.8421C88.2071 23.9855 86.9093 25.2123 85.7495 26.5846C84.4603 28.1102 83.2495 29.7455 82.4636 31.5897C82.1391 32.351 81.9193 33.1918 81.8349 34.033C80.5051 35.0483 79.1698 36.0567 77.8306 37.0599C79.6878 34.2246 81.517 31.3709 83.2905 28.483C83.8263 27.6108 84.3643 26.7379 84.8569 25.8402C85.119 25.3625 85.3899 24.8722 85.5689 24.3579C85.8709 23.4901 85.9306 22.31 85.2796 21.5661C84.9578 21.1984 84.5635 21.0688 84.0987 21.1349C83.7346 21.1866 83.4525 21.4502 83.1893 21.6749C82.7533 22.0468 82.3904 22.5155 82.0256 22.9545C81.7495 23.287 81.4785 23.6234 81.2086 23.961C81.0269 23.4728 80.7893 23.017 80.4803 22.5775C80.1604 22.1224 79.7021 21.6964 79.1968 21.4563C77.3022 20.5562 75.2624 21.5746 73.7063 22.6963C72.2044 23.7788 70.8563 25.0577 69.5603 26.3781C69.4976 26.4255 69.436 26.4759 69.3774 26.5322C69.1357 26.7653 68.8835 26.9859 68.6233 27.1973C68.2355 27.4739 67.8259 27.7142 67.3888 27.9041C67.0334 28.0179 66.6695 28.0915 66.2974 28.1224C66.0899 28.1167 65.8834 28.102 65.6794 28.0704C65.6845 27.9123 65.6872 27.754 65.6858 27.5953C65.6719 26.0328 65.2723 24.293 64.2573 23.0632C63.6558 22.3345 62.7751 21.9692 61.8386 22.0552C61.3397 22.1008 60.8966 22.3336 60.5265 22.6629C60.3316 22.675 60.1401 22.7292 59.9686 22.8435C57.1918 24.698 54.6607 26.8576 52.3895 29.2724C52.3375 29.3161 52.2879 29.3625 52.2431 29.4145C52.1929 29.4728 52.1422 29.5309 52.0919 29.5892C51.5194 30.2097 50.9653 30.8482 50.4273 31.5012C47.9242 34.3527 45.3493 37.1441 42.5404 39.701C41.5373 40.6139 40.5039 41.4936 39.4346 42.3288C38.1762 43.2864 36.8666 44.1777 35.4849 44.9501C35.035 45.2016 34.6947 45.7056 34.5188 46.1745C34.326 46.6884 34.2505 47.3971 34.4088 47.9323C34.5419 48.3826 34.7728 48.9013 35.2232 49.1195C35.6496 49.326 36.098 49.3287 36.521 49.0922C39.3793 47.4941 41.9708 45.4144 44.3835 43.2154C45.0539 42.6043 45.7104 41.9781 46.3571 41.3426C46.3863 41.4635 46.4182 41.5839 46.4562 41.7024C46.8976 43.0841 47.84 44.3157 49.1958 44.9139C50.5392 45.5066 52.0263 45.5448 53.4397 45.1761C57.3382 44.1586 60.18 41.2108 62.2283 37.8702C61.9818 39.0199 61.8804 40.1906 62.1729 41.3579C62.4952 42.645 63.2932 43.8975 64.6925 44.155C65.7142 44.3432 66.7279 43.8931 67.6151 43.4428C68.9153 42.7826 70.0903 41.8607 71.1864 40.8855C70.6648 41.663 70.141 42.4392 69.6175 43.2154C67.7262 44.6479 65.8447 46.0941 63.9829 47.5652C61.6802 48.1799 59.3838 48.8185 57.0959 49.4868C54.6067 50.2139 52.1268 50.9737 49.6589 51.7701C47.2929 52.5335 44.9376 53.33 42.5956 54.1637C40.2343 55.0044 37.8869 55.8844 35.5538 56.8001C33.4471 57.6269 31.3541 58.4882 29.2782 59.3888C27.2997 60.2472 25.3369 61.1413 23.3937 62.0763C21.5667 62.9555 19.7571 63.8709 17.9703 64.8287C16.2894 65.7297 14.6284 66.6679 12.9938 67.6503C12.217 68.1171 11.4463 68.5941 10.6824 69.0817C10.6944 69.0655 10.7063 69.0492 10.7183 69.0327C12.9224 66.0025 15.1019 62.9544 17.2756 59.9026C18.9127 57.6039 20.5481 55.3043 22.1875 53.0073C22.2642 52.9531 22.341 52.8992 22.4174 52.8447C24.5427 51.3304 26.6233 49.7553 28.6802 48.1503C30.8521 46.4557 32.9901 44.718 35.0991 42.9464C37.3407 41.0634 39.5498 39.1417 41.7254 37.1834C43.9432 35.1872 46.1268 33.153 48.2695 31.0772C50.3703 29.0422 52.4326 26.9675 54.4424 24.8432C56.334 22.8438 58.1803 20.8008 59.9542 18.697C61.6479 16.6883 63.288 14.6283 64.811 12.4877C65.444 11.5977 66.056 10.6927 66.6365 9.76765C67.3626 8.61048 68.1822 7.38094 68.5472 6.06066C68.8321 5.03052 69.0471 3.88816 68.6953 2.84236C68.533 2.36014 68.3351 1.8921 67.9601 1.5294C67.5803 1.1623 67.2492 1.00108 66.7533 0.844853C66.1723 0.661726 65.496 0.722421 64.9062 0.837971C64.174 0.98147 63.4583 1.26701 62.7859 1.58279C61.0982 2.37537 59.5757 3.50856 58.135 4.67657C56.7073 5.83436 55.3508 7.08872 54.0339 8.36978C51.3602 10.9705 48.7693 13.6553 46.2542 16.4084C43.7787 19.1184 41.3767 21.8945 39.0364 24.7212C36.622 27.6375 34.2699 30.6055 31.964 33.6077C29.7493 36.4912 27.5794 39.4086 25.4357 42.3448C23.7149 44.7017 22.0134 47.0722 20.3168 49.4461C18.638 50.6185 16.9311 51.7544 15.1673 52.795C13.9663 53.5035 12.7334 54.1857 11.4358 54.705C11.0144 54.8579 10.5772 54.9902 10.1323 55.0379C10.0928 55.0349 10.0536 55.0303 10.0145 55.0244C9.8663 54.9679 9.71203 54.9487 9.55105 54.9717C9.31828 54.9524 9.10058 55.0092 8.89817 55.1421C8.46195 55.3842 8.08641 55.9032 7.93005 56.3662C7.74354 56.9192 7.65144 57.5546 7.82036 58.1241C7.94511 58.5448 8.18563 59.1469 8.63735 59.3117C8.90319 59.4087 9.14999 59.5163 9.4309 59.5357C9.73861 59.5572 10.0561 59.5437 10.3628 59.5044C10.8085 59.4475 11.2439 59.3127 11.665 59.1604C12.5285 58.8484 13.362 58.4736 14.1765 58.0594C13.6594 58.7848 13.1432 59.5109 12.6252 60.2354C10.4532 63.2726 8.26894 66.3008 6.05471 69.3074C4.93316 70.8303 3.80384 72.3474 2.66491 73.8572C1.97623 74.7701 1.10607 75.6931 0.966664 76.8784C0.880423 77.6115 0.965827 78.4456 1.49039 79.017C1.83117 79.3879 2.33586 79.5593 2.833 79.4625C3.36155 79.3597 3.80217 78.9842 4.20114 78.6559C4.79143 78.1704 5.38591 77.6906 5.98919 77.2211C7.52668 76.0456 9.11001 74.9301 10.7283 73.8679C12.5626 72.6639 14.44 71.5256 16.3478 70.441C18.3979 69.2755 20.4832 68.1719 22.5943 67.1201C24.8663 65.9879 27.168 64.9153 29.4916 63.8931C31.9584 62.8078 34.4502 61.7793 36.961 60.7993C37.1905 60.7097 37.4201 60.6211 37.6497 60.5324C40.6531 59.3806 43.6816 58.2946 46.7303 57.2681C49.7185 56.262 52.7265 55.3144 55.7483 54.4137C54.2767 55.7161 52.8319 57.0483 51.4245 58.4192C49.4801 60.3131 47.5392 62.2488 45.9021 64.417C44.0525 66.8666 42.5743 69.6044 41.9325 72.6237C41.6141 74.1217 41.6072 75.8305 42.2944 77.234C42.6155 77.89 43.0952 78.5348 43.7678 78.8604C44.2599 79.0989 44.7814 79.2512 45.3284 79.2424C45.9092 79.2332 46.4466 79.1646 46.9904 78.9562C47.5703 78.7341 48.1245 78.4753 48.6471 78.1407C49.6327 77.5096 50.5355 76.7224 51.3552 75.8904C53.2396 73.9773 54.6821 71.6937 56.1355 69.4543C59.1756 64.7703 62.2955 60.1386 65.427 55.5153C66.4692 53.9766 67.5127 52.4388 68.5558 50.9006C71.7898 50.0852 75.0357 49.3152 78.2918 48.5922C82.1982 47.725 86.119 46.9213 90.0506 46.1762C92.8805 45.6397 95.7166 45.1355 98.5573 44.6584C97.987 46.1732 97.5411 47.7446 97.4718 49.3606C97.4538 49.7807 97.4919 50.2127 97.5767 50.6229C97.708 51.2582 98.138 51.9603 98.8657 51.9263C99.5856 51.8927 100.149 51.15 100.339 50.5086C100.991 48.3188 101.721 46.154 102.513 44.0115C121.387 41.0208 140.453 38.0208 159.549 37.2735C160.634 37.231 161.296 36.5412 161.247 35.9105C161.176 34.9875 160.685 34.3768 159.477 34.3768C141.117 35.0963 122.856 37.1001 104.584 39.189C104.818 38.762 105.055 38.3362 105.295 37.9124C106.335 36.0742 107.429 34.2664 108.568 32.487C108.719 32.9613 108.915 33.4198 109.174 33.8482C109.487 34.366 109.894 34.8684 110.463 35.1192C111.069 35.386 111.667 35.4475 112.32 35.2926C113.631 34.9816 114.74 34.0326 115.706 33.1527C116.798 32.1586 117.765 31.0288 118.682 29.8754C119.626 28.6888 120.524 27.465 121.388 26.2166C122.332 25.0986 123.34 24.0361 124.405 23.0197C125.607 21.8727 126.835 20.7553 128.021 19.5946C127.975 20.2398 127.959 20.8832 127.967 21.5199C126.192 22.9355 124.46 24.4123 122.856 26.0148C121.786 27.0826 120.694 28.2628 120.003 29.6192C119.575 30.4603 119.308 31.3377 119.282 32.2851C119.262 32.995 119.429 33.7839 119.879 34.354C120.504 35.1465 121.487 35.1899 122.408 35.0954C123.26 35.0081 124.094 34.7198 124.874 34.3768C125.916 33.9184 126.921 33.3726 127.824 32.6772C128.845 31.8909 129.73 30.9717 130.397 29.8673C131.223 28.4963 131.545 26.8424 131.303 25.265C131.228 24.7752 131.144 24.2879 131.068 23.7994C132.183 22.9566 133.312 22.1326 134.447 21.3208C134.418 21.385 134.387 21.4484 134.357 21.5128C133.803 22.7353 133.257 23.9824 132.923 25.2857C132.554 26.725 132.252 28.3495 132.851 29.7755C133.058 30.2705 133.413 30.7781 133.913 31.0146C134.489 31.2873 135.015 31.2875 135.64 31.1793C136.582 31.0166 137.482 30.5095 138.218 29.9173C139.24 29.0958 140.116 28.1105 140.916 27.0776C142.024 25.645 143.028 24.1296 144.016 22.6121C144.132 22.4324 144.248 22.2517 144.363 22.0717C144.083 22.8495 143.797 23.6253 143.499 24.3968C143.299 24.9159 143.094 25.4332 142.884 25.9486C142.786 26.1878 142.687 26.4266 142.586 26.6648C142.534 26.7897 142.481 26.9145 142.428 27.039C142.356 27.2088 142.116 27.755 142.439 27.017C142.194 27.5782 142.017 28.103 142.024 28.7268C142.031 29.1696 142.134 29.8162 142.445 30.17C142.7 30.4613 143.06 30.6968 143.471 30.5642C143.876 30.4337 144.237 30.097 144.429 29.719C144.798 29.2376 145.227 28.791 145.629 28.3437C146.531 27.3411 147.448 26.3515 148.366 25.3638C149.76 23.8629 151.162 22.3678 152.563 20.8736C152.367 21.254 152.165 21.6326 151.957 22.0061C151.667 22.5203 151.33 23.0148 151.084 23.5513C150.601 24.6046 150.324 25.7588 150.552 26.9166C150.694 27.6393 151.073 28.4435 151.753 28.8088C152.459 29.1886 153.157 29.0599 153.842 28.7145C154.409 28.4286 154.852 27.9505 155.307 27.5173C156.582 26.3001 157.774 25.0004 158.924 23.6647C159.128 24.4448 159.634 25.1733 160.365 25.5428C160.7 25.7127 161.087 25.87 161.471 25.8879C162.043 25.9148 162.447 25.7919 162.93 25.4884C164.272 24.6478 165.435 23.5408 166.497 22.3763C167.614 21.15 168.66 19.8634 169.875 18.7274C170.239 18.3872 170.458 17.666 170.532 17.2021C170.611 16.7017 170.604 16.0217 170.38 15.5491ZM36.8413 33.2332C37.0395 32.9813 37.2388 32.7303 37.4378 32.4789C40.1509 29.0677 42.9389 25.7148 45.8276 22.4493C48.7941 19.0963 51.8658 15.8349 55.0564 12.6925C56.7767 10.9982 58.5372 9.32213 60.4432 7.83396C61.6222 6.94377 62.8864 6.10176 64.2578 5.54069C64.5682 5.43328 64.8861 5.34484 65.2097 5.2904C64.6994 6.2367 64.1126 7.15004 63.522 8.04462C62.7937 9.14714 62.0262 10.2236 61.233 11.2804C60.8217 11.8284 60.402 12.3702 59.9777 12.9083C58.2152 15.1167 56.362 17.2526 54.4534 19.3364C52.3365 21.6477 50.1516 23.8971 47.9204 26.0988C45.6178 28.371 43.2649 30.5926 40.871 32.7692C38.5118 34.9141 36.1131 37.0159 33.6754 39.0719C32.525 40.0421 31.3662 41.0025 30.1978 41.9513C32.3731 39.0159 34.5814 36.1044 36.8413 33.2332ZM86.4273 31.317C87.646 29.7011 89.0397 28.2239 90.5813 26.9108C92.4041 25.4204 94.4132 24.1682 96.562 23.2019C96.5703 23.2972 96.5837 23.3895 96.6028 23.4786C96.3593 24.159 96.0874 24.8293 95.7903 25.4891C95.0795 26.9733 94.237 28.391 93.2699 29.7241C92.123 31.2326 90.8191 32.6171 89.3694 33.8407C88.6727 34.4106 87.9422 34.9615 87.1289 35.3488C86.8495 35.4509 86.5638 35.5232 86.2678 35.5576C86.0926 35.5481 85.9211 35.5197 85.7507 35.4753C85.625 35.4139 85.5054 35.3428 85.3917 35.2611C85.3005 35.1661 85.2165 35.0656 85.1381 34.9601C85.0859 34.8613 85.039 34.7604 84.9955 34.6579C84.9686 34.5564 84.9446 34.4542 84.9249 34.3513C84.9227 34.3034 84.9214 34.2553 84.9208 34.2075C84.9367 34.0897 84.9561 33.9724 84.9796 33.8559C85.0413 33.6634 85.1113 33.474 85.189 33.2873C85.5404 32.5948 85.9711 31.9457 86.4273 31.317ZM58.5311 36.9482C57.852 37.775 57.0991 38.5375 56.2587 39.2019C55.5433 39.7164 54.7758 40.1504 53.9588 40.4843C53.3287 40.7048 52.6794 40.8608 52.0133 40.9105C51.606 40.9025 51.2044 40.8486 50.8131 40.7367C50.5537 40.6253 50.3088 40.4879 50.0781 40.325C49.9662 40.2201 49.8617 40.1083 49.7639 39.9905C49.7167 39.9093 49.6715 39.8269 49.6311 39.7425C49.6185 39.6972 49.6049 39.6517 49.5939 39.606C49.5908 39.5539 49.589 39.5011 49.5877 39.4488C49.601 39.3512 49.6168 39.254 49.6358 39.1572C49.7157 38.9105 49.8095 38.6691 49.915 38.4319C50.5167 37.2926 51.306 36.2437 52.1066 35.2321C52.2635 35.037 52.4242 34.8453 52.5843 34.6532C52.9793 34.2007 53.3722 33.7461 53.765 33.2917C55.383 31.5092 57.1531 29.8672 59.0565 28.3874C59.2493 28.2419 59.4436 28.0988 59.6391 27.9568C59.7613 28.2945 59.9071 28.6225 60.0748 28.934C60.4979 29.7197 61.0586 30.4242 61.7264 31.0119C61.4297 31.8521 61.0761 32.6735 60.6911 33.4757C60.074 34.6937 59.363 35.8635 58.5311 36.9482ZM69.0556 37.7295C68.1924 38.4189 67.2714 39.0584 66.2587 39.5065C66.0424 39.5864 65.823 39.649 65.5945 39.6816C65.5168 39.6755 65.4398 39.6647 65.3634 39.6488C65.3285 39.63 65.2935 39.6109 65.26 39.5897C65.2522 39.5808 65.245 39.5712 65.2372 39.5622C65.2294 39.5466 65.2206 39.5315 65.2134 39.5159C65.2026 39.4733 65.191 39.431 65.1819 39.3881C65.1762 39.2913 65.1736 39.1944 65.1737 39.0973C65.2003 38.9038 65.2376 38.7119 65.28 38.5211C65.461 37.8736 65.6908 37.2432 65.9652 36.6295C66.4261 35.7119 66.9785 34.846 67.5843 34.0168C68.4373 32.9042 69.366 31.8648 70.3313 30.8509C70.6343 30.6069 70.9276 30.3506 71.2074 30.0808C71.3683 29.9257 71.5043 29.7346 71.6167 29.5278C72.4021 28.7406 73.2114 27.9768 74.0679 27.2674C74.7633 26.7179 75.5003 26.2057 76.3077 25.8364C76.6167 25.7234 76.9346 25.6406 77.2618 25.6053C77.4075 25.6139 77.5515 25.6345 77.6931 25.6693C77.7974 25.7204 77.8973 25.779 77.9927 25.8452C78.0708 25.9252 78.1437 26.0097 78.2117 26.0984C78.2618 26.1921 78.3067 26.2879 78.3488 26.3852C78.3916 26.5379 78.4269 26.6922 78.455 26.8482C78.4632 26.9761 78.4669 27.1041 78.4664 27.2322C78.4605 27.285 78.456 27.338 78.4487 27.3902C76.1028 30.321 73.745 33.2588 71.0672 35.8966C70.4209 36.5333 69.7534 37.1486 69.0556 37.7295ZM55.2893 64.5141C54.2435 66.1073 53.2445 67.7371 52.1588 69.3033C51.9158 69.6539 51.6662 69.9994 51.4119 70.3419C50.5476 71.4616 49.6027 72.517 48.5184 73.4299C47.9846 73.8457 47.4178 74.2225 46.8036 74.5084C46.4855 74.6252 46.1581 74.7092 45.8213 74.7444C45.6545 74.7355 45.4901 74.7126 45.3284 74.6726C45.2484 74.6354 45.1699 74.5944 45.0941 74.5492C45.0728 74.5241 45.0524 74.498 45.032 74.4721C45.0036 74.4179 44.9771 74.3626 44.9522 74.3068C44.9394 74.2554 44.9285 74.2037 44.918 74.1519C44.9129 74.0506 44.9108 73.949 44.9116 73.8477C44.9424 73.5859 44.9861 73.3264 45.0418 73.0688C45.2508 72.3181 45.521 71.5807 45.841 70.8699C46.4171 69.7087 47.1105 68.6104 47.8775 67.5647C49.4336 65.5402 51.2836 63.7233 53.11 61.9441C55.0088 60.0946 56.9749 58.3145 58.9841 56.5848C60.0691 55.6506 61.1683 54.7324 62.2759 53.8247C62.3929 53.7292 62.5113 53.6354 62.6286 53.5402C61.2527 55.573 59.8791 57.6074 58.5149 59.6482C57.4333 61.266 56.3572 62.8873 55.2893 64.5141ZM81.5429 43.3754C78.8303 43.9509 76.1239 44.557 73.4251 45.1941C75.3569 43.747 77.2915 42.3042 79.2225 40.8562C80.3951 39.9771 81.5636 39.0926 82.7288 38.2035C83.2905 39.0589 84.009 39.6957 85.0345 39.9744C86.0926 40.2619 87.207 39.8945 88.1492 39.4269C88.91 39.0491 89.5916 38.5228 90.2503 37.9923C90.9734 37.4101 91.6775 36.8044 92.343 36.1575C93.6117 34.9235 94.7299 33.5542 95.7498 32.1109C97.556 29.555 98.9523 26.6559 99.8301 23.647C100.367 23.2453 100.911 22.853 101.468 22.4794C101.814 22.2473 102.166 22.0202 102.526 21.8086C101.836 23.2959 101.065 24.746 100.291 26.1905C99.3644 27.9177 98.4212 29.6361 97.5182 31.3753C97.0459 32.2851 96.5844 33.2007 96.1502 34.1293C95.936 34.5875 95.7845 35.0234 95.7485 35.5349C95.7175 35.9761 95.7407 36.4853 95.9464 36.889C96.0806 37.1528 96.2536 37.3982 96.5009 37.569C96.8496 37.8096 97.3301 37.7261 97.6657 37.5206C98.2156 37.183 98.7061 36.7411 99.1797 36.3084C99.6727 35.8584 100.136 35.3763 100.587 34.8846C101.716 33.6527 102.77 32.3535 103.81 31.0466C104.53 30.141 105.24 29.2268 105.947 28.3113C104.361 31.6026 102.843 34.9309 101.459 38.3124C101.203 38.8064 100.951 39.303 100.705 39.8023C100.276 39.8719 99.8463 39.9408 99.4169 40.0117C96.3821 40.5137 93.3525 41.0487 90.3297 41.618C87.3942 42.1709 84.4648 42.7555 81.5429 43.3754ZM114.935 28.8772C114.625 29.1949 114.303 29.5011 113.971 29.7952C113.546 30.1451 113.096 30.4701 112.604 30.7175C112.418 30.7883 112.226 30.8424 112.029 30.8721C111.948 30.8664 111.868 30.8553 111.789 30.8379C111.746 30.8142 111.704 30.7888 111.663 30.7615C111.606 30.698 111.553 30.6323 111.503 30.5629C111.443 30.4413 111.39 30.3162 111.341 30.1891C111.228 29.7772 111.15 29.3563 111.094 28.9327C111.088 28.8661 111.082 28.7997 111.076 28.7331C111.344 28.3487 111.612 27.9643 111.885 27.5837C112.784 26.343 113.71 25.1216 114.679 23.934C115.587 22.8212 116.529 21.7341 117.536 20.7088C117.99 20.2466 118.459 19.7994 118.946 19.3724C119.547 18.8696 120.189 18.3968 120.893 18.0528C121.124 17.9629 121.363 17.8948 121.608 17.8612C121.688 17.8664 121.768 17.8775 121.847 17.8941C121.887 17.9161 121.927 17.9388 121.965 17.9644C121.992 17.9961 122.019 18.0278 122.044 18.0612C122.074 18.1221 122.1 18.1837 122.126 18.2462C122.151 18.3448 122.172 18.4442 122.191 18.5442C122.193 18.6057 122.194 18.6675 122.194 18.7291C122.187 18.782 122.178 18.835 122.169 18.8878C122.141 18.9727 122.11 19.0567 122.078 19.1399C121.751 19.7648 121.329 20.357 120.95 20.945C120.467 21.6945 119.974 22.4377 119.47 23.173C119.176 23.5999 118.878 24.0233 118.576 24.4444C117.453 25.9909 116.271 27.5077 114.935 28.8772ZM128.622 26.7622C128.612 26.7819 128.603 26.8015 128.594 26.8208C128.597 26.8092 128.599 26.7977 128.602 26.7866C128.753 26.4282 128.689 26.6208 128.622 26.7622ZM128.529 26.9447C128.472 27.0539 128.412 27.1607 128.347 27.2651C128.116 27.5746 127.858 27.8633 127.581 28.1332C126.947 28.6924 126.246 29.1757 125.506 29.5851C125.315 29.6909 125.12 29.7891 124.924 29.8851C124.429 30.1088 123.917 30.3044 123.391 30.4468C123.751 30.0513 124.127 29.6696 124.507 29.2968C124.788 29.0204 125.076 28.7508 125.366 28.4828C126.338 27.5989 127.34 26.7466 128.361 25.9171C128.418 26.2594 128.476 26.6016 128.529 26.9447ZM161.447 23.0909C161.431 23.1364 161.415 23.1825 161.396 23.2275C161.231 23.5988 161.324 23.3775 161.447 23.0909Z" fill="#0A0A0A"/>
<path d="M174.58 9.50374C174.701 9.38075 174.837 9.22359 175.004 9.03911C175.173 8.85462 175.34 8.6633 175.522 8.45831C175.697 8.25333 175.864 8.05517 176.017 7.8707C176.169 7.68621 176.298 7.52222 176.404 7.38556C176.511 7.25573 176.564 7.1669 176.579 7.11908C176.595 7.07125 176.602 7.03026 176.602 6.99609C176.602 6.86626 176.503 6.79794 176.306 6.79794C176.031 6.79794 175.682 6.8731 175.263 7.02342L175.271 7.08492C175.271 7.11908 175.248 7.20107 175.195 7.33773C175.149 7.48121 175.089 7.65888 175.012 7.8707C174.823 8.43782 174.678 8.98444 174.58 9.50374ZM173.971 11.6902C174.321 11.6902 174.67 11.5741 175.02 11.3418C175.37 11.1095 175.705 10.7883 176.024 10.3783C175.341 10.616 174.848 11.1598 174.427 11.3486L174.321 11.3623C174.04 11.3623 173.842 11.1914 173.735 10.8566C173.651 10.6175 173.606 10.3237 173.606 9.9752C173.606 9.33292 173.69 8.69063 173.865 8.05517C173.956 7.6657 174.062 7.33773 174.191 7.06441C174.321 6.79794 174.435 6.64077 174.549 6.59296L174.541 6.53828C174.541 6.49729 174.564 6.46312 174.617 6.42897C174.686 6.38114 174.861 6.32646 175.126 6.26497C175.377 6.23081 175.599 6.21715 175.788 6.21715C176.084 6.21715 176.359 6.2513 176.602 6.3128C176.876 6.3948 177.074 6.53146 177.21 6.72277C177.286 6.84577 177.325 6.97559 177.325 7.09858C177.325 7.50172 177.013 8.06884 176.389 8.79312C176.138 9.07326 175.849 9.38757 175.515 9.73605L176.039 9.59257C176.229 9.54474 176.42 9.52423 176.602 9.52423C176.785 9.21676 176.944 8.90245 177.096 8.58814C177.378 7.97319 177.583 7.41973 177.697 6.93459C177.736 6.73644 177.758 6.55879 177.758 6.41529C177.728 6.05316 177.598 5.80718 177.37 5.66368C177.225 5.58169 177.043 5.5407 176.823 5.5407C176.571 5.5407 176.298 5.59536 175.986 5.70468C175.613 5.8345 175.241 6.01216 174.861 6.2513C174.48 6.49045 174.154 6.74328 173.887 7.01658C173.583 7.31723 173.37 7.59054 173.264 7.83653C172.952 8.74529 172.777 9.52423 172.754 10.1597C172.754 10.4057 172.769 10.6107 172.807 10.7815C172.883 11.1505 173.066 11.4101 173.37 11.5604C173.537 11.6493 173.735 11.6902 173.971 11.6902ZM174.427 12.4692C174.13 12.4692 173.849 12.4282 173.575 12.353C173.142 12.2369 172.769 12.0319 172.442 11.7381C172.1 11.4306 171.856 11.0343 171.713 10.5492C171.605 10.2349 171.56 9.89321 171.56 9.53107C171.56 9.29875 171.575 9.04594 171.621 8.7863C171.575 8.77262 171.53 8.75896 171.491 8.73847C171.377 8.67697 171.316 8.5608 171.316 8.40365C171.316 8.144 171.461 7.80236 171.75 7.3719C171.97 7.04392 172.253 6.71594 172.602 6.38114C172.944 6.04632 173.333 5.75252 173.765 5.48603C174.488 5.04872 175.21 4.83008 175.933 4.83008C176.245 4.83008 176.534 4.85058 176.815 4.90524C177.622 5.05556 178.191 5.32888 178.519 5.73201C178.671 5.9165 178.747 6.14199 178.747 6.40847V6.53828C178.641 7.59054 178.382 8.58814 177.979 9.5379C177.743 10.0982 177.453 10.5902 177.111 11.0275C176.359 11.9909 175.462 12.4692 174.427 12.4692Z" fill="#0A0A0A"/>
<path d="M167.472 34.0277C166.38 33.9327 165.263 33.941 164.185 34.0824C163.771 34.1369 163.416 34.3472 163.18 34.5989C162.916 34.8835 162.741 35.3098 162.768 35.661C162.793 35.9853 162.889 36.357 163.207 36.6016C163.485 36.8153 163.85 36.9647 164.26 36.9109C164.857 36.8326 165.462 36.7969 166.069 36.7995C166.304 36.8081 166.537 36.8209 166.77 36.8411C167.192 36.8779 167.555 36.7926 167.872 36.5828C168.206 36.3607 168.466 35.9826 168.532 35.6516C168.602 35.306 168.602 34.9121 168.367 34.5933C168.181 34.341 167.885 34.0635 167.472 34.0277Z" fill="#0A0A0A"/>
</svg>
