<svg width="180" height="65" viewBox="0 0 180 65" fill="none" xmlns="http://www.w3.org/2000/svg">
<path d="M17.9312 27.9821C17.8807 29.1671 17.8555 30.6673 17.8555 32.4826C17.8555 34.2979 17.8807 35.8106 17.9312 37.0209C17.9816 38.2059 18.0825 39.1513 18.234 39.8573C18.4107 40.5632 18.6505 41.0549 18.9535 41.3323C19.2816 41.6096 19.7107 41.7483 20.2409 41.7483C20.7709 41.7483 21.1874 41.6096 21.4904 41.3323C21.8185 41.0549 22.0583 40.5632 22.2098 39.8573C22.3865 39.1513 22.5 38.2059 22.5506 37.0209C22.6011 35.8106 22.6263 34.2979 22.6263 32.4826C22.6263 30.6673 22.6011 29.1671 22.5506 27.9821C22.5 26.7719 22.3865 25.8138 22.2098 25.1079C22.0583 24.4019 21.8185 23.9102 21.4904 23.6329C21.1874 23.3555 20.7709 23.2168 20.2409 23.2168C19.7107 23.2168 19.2816 23.3555 18.9535 23.6329C18.6505 23.9102 18.4107 24.4019 18.234 25.1079C18.0825 25.8138 17.9816 26.7719 17.9312 27.9821Z" fill="#0A0A0A"/>
<path fill-rule="evenodd" clip-rule="evenodd" d="M19.2739 4.38908C10.144 4.58422 2.88694 12.1093 3.03343 21.2292L3.21343 32.4346L3.03343 43.6401C2.88694 52.7601 10.144 60.2852 19.2739 60.4802L30.4942 60.72L41.7146 60.4802C50.8445 60.2852 58.1017 52.7601 57.9552 43.6401L57.7752 32.4346L57.9552 21.2292C58.1017 12.1093 50.8445 4.58422 41.7146 4.38908L30.4942 4.14941L19.2739 4.38908ZM30.8819 46.7034L26.6411 50.3719L22.779 46.2117C22.4761 46.2622 22.1731 46.3001 21.8703 46.3253C21.5925 46.3756 21.277 46.4009 20.9236 46.4009H20.2421C18.4499 46.4009 16.9352 46.1614 15.6984 45.6823C14.4615 45.2033 13.4644 44.409 12.7072 43.2997C11.9499 42.1651 11.4072 40.7154 11.079 38.9506C10.7509 37.1604 10.5868 35.0046 10.5868 32.4835C10.5868 29.9622 10.7509 27.8191 11.079 26.0541C11.4072 24.264 11.9499 22.8144 12.7072 21.7049C13.4644 20.5704 14.4615 19.7509 15.6984 19.2467C16.9352 18.7172 18.4499 18.4525 20.2421 18.4525C22.0344 18.4525 23.5489 18.7172 24.7857 19.2467C26.0226 19.7509 27.0198 20.5704 27.7771 21.7049C28.5343 22.8144 29.0771 24.264 29.4052 26.0541C29.7334 27.8191 29.8975 29.9622 29.8975 32.4835C29.8975 35.0803 29.7208 37.2738 29.3673 39.064C29.0139 40.8541 28.4334 42.3164 27.6256 43.451L30.8819 46.7034ZM42.8342 28.7014V27.1887C42.8342 25.6507 42.6827 24.6044 42.3798 24.0498C42.077 23.4951 41.5847 23.2176 40.9031 23.2176C40.373 23.2176 39.944 23.3564 39.6158 23.6338C39.3128 23.9111 39.073 24.4027 38.8964 25.1087C38.7449 25.8146 38.6439 26.7727 38.5934 27.983C38.5429 29.1679 38.5177 30.6682 38.5177 32.4835C38.5177 34.2988 38.5429 35.8115 38.5934 37.0217C38.6439 38.2068 38.7449 39.1522 38.8964 39.8582C39.073 40.5641 39.3128 41.0557 39.6158 41.3331C39.944 41.6104 40.373 41.7491 40.9031 41.7491C41.3322 41.7491 41.6857 41.6483 41.9633 41.4466C42.241 41.2196 42.4555 40.8541 42.607 40.3498C42.7585 39.8456 42.8594 39.1774 42.9099 38.3454C42.9857 37.4882 43.0235 36.4167 43.0235 35.1308H49.839V37.1353C49.839 39.0262 49.5865 40.5768 49.0817 41.7869C48.5769 42.9971 47.908 43.9553 47.075 44.6611C46.2419 45.342 45.2828 45.7957 44.1972 46.0227C43.1372 46.2748 42.039 46.4009 40.9031 46.4009C38.9342 46.4009 37.3187 46.1614 36.0565 45.6823C34.7944 45.2033 33.81 44.409 33.1031 43.2997C32.3963 42.1651 31.904 40.7154 31.6264 38.9506C31.374 37.1604 31.2477 35.0046 31.2477 32.4835C31.2477 29.9117 31.3992 27.7309 31.7022 25.9407C32.0303 24.1506 32.5731 22.7008 33.3303 21.5915C34.0876 20.4821 35.0846 19.6879 36.3215 19.2088C37.5584 18.7046 39.0856 18.4525 40.9031 18.4525C42.4934 18.4525 43.8439 18.6542 44.9546 19.0576C46.0652 19.4611 46.9613 20.0409 47.643 20.7973C48.3497 21.5285 48.8545 22.4235 49.1575 23.4825C49.4856 24.5161 49.6497 25.6886 49.6497 26.9997V28.7014H42.8342Z" fill="#0A0A0A"/>
<path fill-rule="evenodd" clip-rule="evenodd" d="M91.0446 23.423L97.2175 29.8213L103.39 23.423H114.115L102.572 34.3916L114.115 45.3602H103.39L97.2175 38.9455L91.0446 45.3602H80.3035L91.847 34.3916L80.3035 23.423H91.0446ZM90.4495 34.3916L77.8945 22.4619H91.455L97.2175 28.4349L102.98 22.4619H116.056V22.4456H138.219C143.286 22.3939 147.576 26.6266 147.507 31.7053C147.505 33.5321 147.011 35.216 146.021 36.7148C145.276 37.8492 144.332 38.7826 143.2 39.4923L147.926 45.5527V41.6224C147.926 38.5431 150.23 36.5799 152.88 35.278C155.557 33.9636 158.934 33.1424 161.746 32.478L161.75 32.4771L161.782 32.469C163.516 32.0432 164.992 31.6807 166.042 31.2898C166.574 31.0916 166.923 30.9122 167.122 30.7598C167.147 30.7404 167.168 30.7233 167.186 30.7085C167.125 30.6526 167.001 30.5692 166.756 30.4731C166.184 30.2495 165.208 30.081 163.729 30.0806C162.149 30.0969 160.806 30.2253 159.889 30.5464C159.438 30.7048 159.165 30.8851 159.011 31.0544C158.881 31.1997 158.804 31.3722 158.811 31.6427L158.834 32.6268H148.27V31.6658C148.27 29.6928 148.657 28.0432 149.433 26.6916C150.212 25.334 151.348 24.3426 152.732 23.6317C155.449 22.2366 159.191 21.8906 163.365 21.8906C167.638 21.8906 171.185 22.3831 173.697 23.651C174.968 24.2936 176.001 25.1486 176.711 26.2607C177.423 27.3757 177.772 28.6881 177.772 30.1805C177.772 32.9421 176.103 34.7012 174.058 35.8476C172.072 36.9608 169.573 37.593 167.498 38.0987H177.412V46.2887H148.499L148.512 46.305H136.931L132.788 40.9513H126.564V46.305H116.506L116.524 46.3214H102.979L97.2175 40.3339L91.4557 46.3214H77.8945L90.4495 34.3916ZM116.056 45.8763V22.9068L103.969 34.3916L116.056 45.8763ZM133.263 39.9902L137.406 45.3439H146.542L141.744 39.1903C142.044 39.0513 142.331 38.8975 142.606 38.7294C143.656 38.0874 144.528 37.2345 145.215 36.187C146.1 34.8486 146.542 33.3469 146.542 31.6984C146.608 27.1607 142.76 23.3577 138.224 23.4066H117.02V45.3439H125.599V39.9902H133.263ZM162.448 39.0598C162.748 38.6928 163.293 38.3808 164.015 38.0987C164.867 37.7657 165.964 37.4742 167.196 37.1828C171.42 36.1544 176.808 34.7507 176.808 30.1805C176.808 24.8267 171.83 22.8517 163.365 22.8517C155.404 22.8517 149.759 24.147 149.269 30.7046C149.246 31.0133 149.233 31.3335 149.233 31.6658H157.847C157.846 31.6296 157.846 31.5939 157.847 31.5588C157.894 29.6089 160.588 29.1515 163.725 29.1195C166.786 29.1195 168.194 29.805 168.194 30.7355C168.194 31.8839 165.478 32.5515 162.066 33.3894L161.973 33.4122C156.307 34.7507 148.89 36.6115 148.89 41.6224V45.3276H176.446V39.0598H162.448ZM167.24 30.7822C167.24 30.7822 167.235 30.7761 167.232 30.762C167.24 30.7747 167.24 30.7822 167.24 30.7822ZM136.982 31.6984C136.982 31.1847 136.578 30.7825 136.063 30.7825H126.564V32.5981H136.063C136.34 32.5981 136.534 32.5141 136.707 32.341C136.905 32.1438 136.982 31.9465 136.982 31.6984ZM137.946 31.6984C137.946 30.6537 137.111 29.8213 136.063 29.8213H125.599V33.5591H136.063C136.586 33.5591 137.029 33.3796 137.389 33.0206C137.766 32.6451 137.946 32.2045 137.946 31.6984Z" fill="#0A0A0A"/>
<path d="M81.0977 61.1861H85.2071V55.5661L89.3241 61.1861H91.3787L95.4959 55.5661V61.1861H99.6053V50.6514H94.4686L90.3515 55.9187L86.2422 50.6514H81.0977V61.1861Z" fill="#0A0A0A"/>
<path d="M108.261 50.3926C104.294 50.4005 101.047 51.5447 101.063 55.5345V56.3026C101.047 60.2845 104.294 61.4368 108.261 61.4445C112.221 61.4368 115.468 60.2845 115.453 56.3026V55.5345C115.453 51.5526 112.23 50.3926 108.261 50.3926ZM111.343 56.044C111.367 57.7684 109.939 58.0819 108.261 58.1054C106.576 58.0819 105.148 57.7684 105.172 56.044V55.7854C105.148 54.0687 106.576 53.7551 108.261 53.7316C109.939 53.7551 111.367 54.0687 111.343 55.7854V56.044Z" fill="#0A0A0A"/>
<path d="M126.968 55.9348C126.968 56.9929 126.365 57.863 125.298 57.863H120.797V54.0065H125.298C126.365 54.0065 126.968 54.8687 126.968 55.9348ZM116.688 50.6675V61.202H126.067C128.961 61.2413 131.11 58.7958 131.086 55.9348C131.11 53.0581 128.961 50.6282 126.067 50.6675H116.688Z" fill="#0A0A0A"/>
<path d="M142.527 56.052C142.55 57.7842 141.124 58.0821 139.445 58.1056C137.76 58.0821 136.34 57.7842 136.356 56.052V50.6514H132.246V56.3107C132.231 60.2925 135.493 61.4369 139.445 61.4447C143.398 61.4369 146.66 60.2925 146.645 56.3107V50.6514H142.527V56.052Z" fill="#0A0A0A"/>
<path d="M148.492 50.6514V61.1861H160.829V57.847H152.602V50.6514H148.492Z" fill="#0A0A0A"/>
<path d="M162.234 61.2016H174.571V58.4974H166.344V57.1492H174.571V54.7115H166.344V53.3632H174.571V50.667H162.234V61.2016Z" fill="#0A0A0A"/>
<path d="M83.4633 10.5186V8.29853H89.554C89.8491 8.29853 90.1059 8.40516 90.3153 8.62809C90.5342 8.84149 90.6389 9.10315 90.6389 9.41335C90.6389 9.71401 90.5342 9.97567 90.3153 10.1987C90.1059 10.412 89.8491 10.5186 89.554 10.5186H83.4633ZM78.4766 4.48856V17.5182H83.4633V14.3383H90.8008C93.4369 14.3771 95.6734 12.0988 95.6353 9.41335C95.6734 6.71834 93.4369 4.45938 90.8008 4.48856H78.4766Z" fill="#0A0A0A"/>
<path d="M105.561 4.14941C100.745 4.15909 96.8053 5.57457 96.8243 10.5092V11.4593C96.8053 16.3842 100.745 17.8092 105.561 17.8189C110.366 17.8092 114.307 16.3842 114.287 11.4593V10.5092C114.287 5.58425 110.376 4.14941 105.561 4.14941ZM109.3 11.1393C109.329 13.2721 107.597 13.6599 105.561 13.6891C103.515 13.6599 101.783 13.2721 101.811 11.1393V10.8194C101.783 8.69623 103.515 8.30845 105.561 8.2794C107.597 8.30845 109.329 8.69623 109.3 10.8194V11.1393Z" fill="#0A0A0A"/>
<path d="M133.732 12.7384L130.771 4.48828H125.157L122.188 12.7384L119.228 4.48828H113.613L119.228 17.5179H125.157L127.965 11.0031L130.771 17.5179H136.7L142.316 4.48828H136.7L133.732 12.7384Z" fill="#0A0A0A"/>
<path d="M142.695 17.5179H157.664V14.1733H147.681V12.5057H157.664V9.49065H147.681V7.8232H157.664V4.48828H142.695V17.5179Z" fill="#0A0A0A"/>
<path d="M160.32 4.47879V17.5085H165.306V14.3286H169.761L172.168 17.5085H177.478L174.69 13.8536C175.528 13.4561 176.203 12.8551 176.707 12.0698C177.222 11.2749 177.478 10.383 177.478 9.40372C177.517 6.70857 175.28 4.44975 172.645 4.47879H160.32ZM171.388 8.2889C171.997 8.2889 172.483 8.78331 172.483 9.40372C172.483 9.70424 172.378 9.96604 172.159 10.189C171.95 10.4024 171.692 10.509 171.388 10.509H165.306V8.2889H171.388Z" fill="#0A0A0A"/>
</svg>
