<svg width="180" height="110" viewBox="0 0 180 110" fill="none" xmlns="http://www.w3.org/2000/svg">
<path d="M120.99 12.511C123.134 10.1328 125.515 8.17073 127.956 6.62488C132.242 3.94939 136.767 2.52246 141.411 2.52246V41.3468C138.017 29.5746 130.695 19.4672 120.99 12.511ZM178.8 109.839H41.0928C18.469 109.839 0.191406 91.5271 0.191406 68.9935C0.191406 47.4112 16.9806 29.6935 38.2351 28.2071V2.52246C42.9979 2.52246 47.7012 3.88994 52.1069 6.62488C54.5479 8.11128 56.9293 10.0733 59.0727 12.3326C67.8244 6.20871 78.4218 2.64137 89.9123 2.64137C89.9123 27.4342 80.9819 56.2703 51.9283 56.3296H89.6146C88.543 51.5137 84.1373 47.9465 78.8982 47.8869H100.807C95.5683 47.8869 91.1626 51.5137 90.091 56.3891H125.217C132.242 56.3891 139.208 57.7566 145.757 60.4916C152.247 63.167 158.2 67.1506 163.142 72.0853C168.143 77.0796 172.072 82.9657 174.751 89.4463C177.43 95.8676 178.8 102.824 178.8 109.839ZM61.3947 28.9208C62.2877 31.2394 64.669 33.8555 68.0031 35.758C71.3371 37.6607 74.7901 38.4336 77.2312 38.0768C76.3381 35.758 73.9568 33.1421 70.6227 31.2394C67.2887 29.3369 63.8354 28.564 61.3947 28.9208ZM111.524 35.758C108.19 37.6607 104.737 38.4336 102.296 38.0768C103.189 35.758 105.57 33.1421 108.904 31.2394C112.238 29.3369 115.692 28.564 118.133 28.9208C117.299 31.2394 114.858 33.8555 111.524 35.758Z" fill="#0A0A0A"/>
</svg>
