<svg width="180" height="86" viewBox="0 0 180 86" fill="none" xmlns="http://www.w3.org/2000/svg">
<g clip-path="url(#clip0_34_603)">
<path d="M162.99 83.7322V83.936C162.94 84.0512 162.879 84.1622 162.809 84.2669L162.551 84.5724L162.293 84.8016C162.024 85.0273 161.719 85.2079 161.39 85.3361H161.261C160.941 85.4623 160.6 85.5313 160.255 85.5399H149.936C149.661 85.5487 149.387 85.4986 149.133 85.3933C148.879 85.2877 148.651 85.1293 148.466 84.9289L137.192 73.4219L129.788 84.5215L129.633 84.7251L129.375 85.0306H129.246H129.117H128.937C128.73 85.2047 128.494 85.3425 128.24 85.438L127.982 85.5653C127.659 85.6816 127.32 85.7502 126.976 85.7689H116.657C116.382 85.7777 116.108 85.7278 115.854 85.6222C115.6 85.5169 115.373 85.3584 115.187 85.1578L111.343 80.8047L97.8249 85.5653C97.5088 85.7057 97.1653 85.7751 96.8188 85.7689C96.3504 85.7816 95.8926 85.6278 95.529 85.3361L95.3224 85.1325L88.8731 77.8515C88.6151 78.7171 88.4087 79.5827 88.125 80.3973L87.9703 80.7538C87.9257 80.8716 87.8649 80.983 87.7896 81.0847L87.6349 81.2883L87.351 81.5938L86.9899 81.9249C86.7904 82.0758 86.574 82.204 86.3449 82.3067L85.5969 83.2231C85.242 83.3544 84.8666 83.4232 84.4875 83.4269H76.026C75.7524 83.4406 75.4791 83.3953 75.2252 83.2942C74.9713 83.193 74.7426 83.0386 74.5556 82.8412L71.7694 79.6846L70.5568 83.6559C70.5281 83.7911 70.4756 83.9203 70.4021 84.0379L70.2471 84.3688L70.0924 84.5724L69.8346 84.8779C69.7271 85.0011 69.6058 85.1121 69.4734 85.2088C69.2589 85.3511 69.0347 85.4786 68.8026 85.5906L68.4673 85.7689C68.1219 85.9054 67.7554 85.983 67.3836 85.9981H52.0599C51.7804 86.0105 51.5014 85.9624 51.243 85.8568C50.9844 85.7512 50.7525 85.5909 50.5637 85.387L48.3193 82.8412H40.1931L40.0125 83.4523C39.9812 83.5832 39.9379 83.7109 39.8835 83.8341C39.8134 83.939 39.753 84.0497 39.7029 84.165L39.5481 84.3688L39.2901 84.6743C39.1826 84.7975 39.0615 84.9084 38.9291 85.0052C38.7146 85.1473 38.4904 85.275 38.2581 85.387L37.9228 85.5653C37.5776 85.7018 37.2111 85.7792 36.8394 85.7945H27.2685C26.9931 85.8033 26.7193 85.7532 26.4654 85.6478C26.2116 85.5423 25.9839 85.3838 25.7981 85.1834L22.8313 81.8484H13.9827C13.7091 81.8621 13.4359 81.817 13.182 81.7159C12.928 81.6146 12.6995 81.4601 12.5122 81.2629L0.464732 68.3812C0.56121 68.4773 0.674934 68.5551 0.800113 68.6104C0.576986 68.4797 0.390718 68.2958 0.258386 68.0757C0.088599 67.7487 0 67.3866 0 67.0192C0 66.6517 0.088599 66.2897 0.258386 65.9626C7.07205 52.151 12.6567 37.7811 16.9494 23.0153V22.8371L16.0981 21.8696C16.0981 21.8696 16.2271 21.8696 16.3045 22.0478C16.0191 21.7892 15.8177 21.4528 15.7258 21.0813C15.634 20.7097 15.6558 20.3196 15.7885 19.9603L18.6004 10.6428C18.8352 9.9396 19.2773 9.32163 19.8703 8.86806C20.4632 8.4145 21.1798 8.14601 21.9283 8.09697H32.2474L33.9242 2.54713C34.1621 1.84578 34.605 1.22969 35.1973 0.776591C35.7896 0.323493 36.5046 0.05371 37.2521 0.0013488H46.9005C47.1872 -0.00966922 47.4726 0.0469433 47.7328 0.166482C47.9931 0.286019 48.2205 0.465051 48.3966 0.688722L51.6988 4.43104L51.9568 3.74367C52.1899 3.03483 52.6352 2.41228 53.2337 1.95789C53.8324 1.50349 54.5565 1.23853 55.3106 1.19787H89.3891C89.6749 1.19282 89.9584 1.2521 90.2177 1.3712C90.4768 1.4903 90.7052 1.66609 90.8854 1.88524L101.204 13.6213L101.024 3.84551C101.038 3.41487 101.142 2.99166 101.328 2.60199C101.514 2.21233 101.779 1.86442 102.107 1.57973C102.731 0.940462 103.582 0.566089 104.481 0.535982H114.8C115.13 0.525942 115.458 0.603241 115.748 0.759887C116.038 0.916534 116.281 1.14682 116.451 1.42698C116.406 1.32473 116.345 1.23019 116.27 1.14695L124.009 9.82808L125.325 5.47482C125.554 4.76799 125.994 4.14623 126.588 3.69168C127.183 3.23715 127.902 2.97121 128.653 2.92903H166.318C166.606 2.91699 166.893 2.9704 167.157 3.08514C167.421 3.19991 167.654 3.37294 167.84 3.59091L179.603 16.9054L179.758 17.0836C179.884 17.2752 179.964 17.493 179.99 17.72C179.99 17.72 179.99 17.72 179.99 17.8473C180.003 18.0338 180.003 18.2209 179.99 18.4074C179.999 18.5515 179.999 18.6961 179.99 18.8402L168.149 57.7653L167.994 58.1472L167.814 58.4781C167.814 58.4781 167.814 58.6053 167.659 58.6817L167.401 58.9872L167.014 59.3183C166.808 59.4709 166.576 59.5728 166.369 59.7001C166.163 59.8274 166.137 59.8528 166.034 59.8784C165.684 60.0295 165.306 60.1076 164.925 60.1073H159.765L161.803 62.3986V62.5768C161.934 62.8125 162.013 63.0726 162.035 63.3405L163.17 82.5357V83.2231C163.17 83.2231 163.17 83.2231 163.17 83.4013C163.17 83.5795 162.99 83.6559 162.99 83.7322Z" fill="#0A0A0A"/>
<path d="M2.78516 66.4468C9.67406 52.4767 15.3276 37.9457 19.6827 23.0157H27.7056C23.466 37.9096 17.9957 52.4352 11.35 66.4468H2.78516ZM54.6383 3.69315L51.8265 12.9089H85.8535L88.6654 3.69315H54.6383ZM28.5313 67.3379H38.1278C44.1469 57.3338 48.9197 46.6489 52.3423 35.5156H43.8034C40.2578 46.7493 35.0972 57.4232 28.4796 67.2106L28.5313 67.3379ZM45.2738 22.1247L42.436 31.4931H58.7143L49.711 61.1515H43.8291L40.9913 70.4436H56.3151L68.1306 31.4931H83.9445L86.808 22.1247H45.2738ZM38.0505 29.533L40.9399 20.0371H46.8992L49.7368 10.7195H43.8291L46.4089 2.64941H36.58L34.0003 10.7195H21.2304L18.3928 20.0371H31.2915L16.0709 70.4946H25.6418L34.6193 40.9125L37.9988 44.1966L41.43 32.8934L38.0505 29.533ZM69.5235 35.8211C69.7705 46.6023 68.2727 57.3533 65.0865 67.6688H73.5739C76.7783 57.3396 78.5149 46.6214 78.7333 35.8211H69.5235ZM114.231 3.00582H103.783L104.067 19.2734H114.54L114.231 3.00582ZM92.3803 24.365L89.3618 34.3445H96.5595L85.5956 70.4946L104.092 63.9775L107.472 52.8013L100.094 55.3472L109.51 24.3394L92.3803 24.365ZM115.83 70.4436L128.6 51.274H118.281L105.382 70.4436H115.83ZM128.058 5.42431L116.166 44.5275H153.83L165.697 5.42431H128.058ZM146.942 34.7773H129.013L134.946 15.1492H153.005L147.045 34.7773M137.191 51.1974L138.326 70.3673H148.645L147.484 51.1974H137.191Z" fill="white"/>
</g>
<defs>
<clipPath id="clip0_34_603">
<rect width="180" height="86" fill="white"/>
</clipPath>
</defs>
</svg>
