<svg width="434" height="91" viewBox="0 0 434 91" fill="none" xmlns="http://www.w3.org/2000/svg">
<g clip-path="url(#clip0_216_32)">
<path d="M23.7 81.9C9.7 81.9 3.1 73.1 3.1 59.4V8.1H18.8V59.6C18.8 65.7 20.8 67.4 23.8 67.4C27.5 67.4 28.8 64.8 28.8 59.6V8.1H44.4V59.4C44.4 74.5 36.2 81.9 23.7 81.9ZM50.7609 81V8.1H67.6609L77.6609 48.8H78.3609L77.5609 27.1V8.1H92.0609V81H75.3609L65.0609 40.7H64.4609L65.2609 61.6V81H50.7609ZM119.013 81.9C105.013 81.9 98.4125 73.1 98.4125 59.4V8.1H114.113V59.6C114.113 65.7 116.113 67.4 119.113 67.4C122.813 67.4 124.113 64.8 124.113 59.6V8.1H139.713V59.4C139.713 74.5 131.513 81.9 119.013 81.9ZM164.673 82C150.073 82 144.373 72.4 144.373 58H158.173C158.173 67.1 160.373 70 164.073 70C167.773 70 169.073 67.1 169.073 62.6C169.073 56.3 165.973 53.8 158.973 49.6C152.073 45.5 144.973 39.9 144.973 27C144.973 13.4 152.973 7.2 164.373 7.2C176.973 7.2 184.173 13.8 184.173 29.6H170.173C170.273 21.7 168.673 19 165.073 19C161.773 19 160.473 21.7 160.473 25.9C160.473 32.2 163.273 34.4 169.573 38.1C177.873 43.1 184.873 49 184.873 61.3C184.873 75.3 177.273 82 164.673 82ZM210.028 81.9C196.028 81.9 189.428 73.1 189.428 59.4V8.1H205.128V59.6C205.128 65.7 207.128 67.4 210.128 67.4C213.828 67.4 215.128 64.8 215.128 59.6V8.1H230.728V59.4C230.728 74.5 222.528 81.9 210.028 81.9ZM233.131 81L245.031 8.1H267.131L279.231 81H263.831L261.931 67.8H250.431L248.631 81H233.131ZM251.731 55.4H260.531L258.131 37.6L256.431 22.8H255.831L254.231 37.7L251.731 55.4ZM282.89 81V8.1H298.49V66.6H311.99V81H282.89ZM316.484 81V8.1H332.084V66.6H345.584V81H316.484ZM352.321 81V53.3L337.521 8.1H354.821L360.221 37.1H360.821L366.521 8.1H383.621L368.921 53.3V81H352.321Z" fill="#FAFAFA"/>
<path d="M412 40.8C409.467 40.8 407.107 40.3867 404.92 39.56C402.733 38.7333 400.813 37.56 399.16 36.04C397.533 34.4933 396.253 32.6533 395.32 30.52C394.387 28.3867 393.92 26.0133 393.92 23.4C393.92 20.7867 394.387 18.4133 395.32 16.28C396.253 14.1467 397.533 12.32 399.16 10.8C400.813 9.25333 402.733 8.06667 404.92 7.24C407.107 6.41333 409.467 6 412 6C414.533 6 416.88 6.41333 419.04 7.24C421.227 8.06667 423.147 9.24 424.8 10.76C426.453 12.28 427.733 14.1067 428.64 16.24C429.573 18.3733 430.04 20.7467 430.04 23.36C430.04 26 429.573 28.3867 428.64 30.52C427.733 32.6533 426.453 34.4933 424.8 36.04C423.147 37.56 421.227 38.7333 419.04 39.56C416.88 40.3867 414.533 40.8 412 40.8ZM412 37.2C414 37.2 415.853 36.8933 417.56 36.28C419.267 35.64 420.747 34.72 422 33.52C423.28 32.2933 424.28 30.8267 425 29.12C425.72 27.4133 426.08 25.4933 426.08 23.36C426.08 21.28 425.733 19.4 425.04 17.72C424.373 16.04 423.4 14.6 422.12 13.4C420.867 12.1733 419.387 11.2267 417.68 10.56C415.973 9.89333 414.093 9.56 412.04 9.56C410.013 9.56 408.147 9.89333 406.44 10.56C404.733 11.2 403.24 12.12 401.96 13.32C400.68 14.52 399.68 15.9733 398.96 17.68C398.267 19.36 397.92 21.2667 397.92 23.4C397.92 25.48 398.253 27.3733 398.92 29.08C399.613 30.76 400.587 32.2133 401.84 33.44C403.093 34.64 404.573 35.5733 406.28 36.24C408.013 36.88 409.92 37.2 412 37.2ZM405.36 32V14.68H413.72C415.507 14.68 416.92 15.1333 417.96 16.04C419 16.9467 419.52 18.2 419.52 19.8C419.52 20.7333 419.267 21.5733 418.76 22.32C418.253 23.0667 417.52 23.6267 416.56 24C417.44 24.16 418.093 24.52 418.52 25.08C418.947 25.64 419.16 26.3867 419.16 27.32V30.16C419.16 30.96 419.373 31.4133 419.8 31.52V32H415.24C415.133 31.7867 415.053 31.48 415 31.08C414.947 30.6533 414.92 30.2267 414.92 29.8V27.8C414.92 27.16 414.76 26.6533 414.44 26.28C414.12 25.88 413.573 25.68 412.8 25.68H409.56V32H405.36ZM409.56 22.56H412.68C413.48 22.56 414.093 22.3867 414.52 22.04C414.947 21.6667 415.16 21.12 415.16 20.4C415.16 19.7067 414.947 19.1867 414.52 18.84C414.12 18.4667 413.507 18.28 412.68 18.28H409.56V22.56Z" fill="#FAFAFA"/>
</g>
<defs>
<clipPath id="clip0_216_32">
<rect width="434" height="91" fill="white"/>
</clipPath>
</defs>
</svg>
