<svg width="180" height="58" viewBox="0 0 180 58" fill="none" xmlns="http://www.w3.org/2000/svg">
<path d="M127.959 53.976C129.052 53.976 129.698 53.1422 129.698 51.8387C129.698 50.4873 129.004 49.7014 127.982 49.7014C127.397 49.7014 126.991 49.9624 126.687 50.3771H126.673V48.2412H126.039V53.8571H126.673V53.3235H126.687C127.015 53.7788 127.413 53.976 127.959 53.976ZM127.913 53.4409C127.054 53.4409 126.632 52.758 126.632 51.8459C126.632 50.9672 127.038 50.2437 127.92 50.2437C128.684 50.2437 129.052 50.9353 129.052 51.8459C129.052 52.7652 128.684 53.4409 127.913 53.4409ZM130.768 55.2012C131.259 55.2012 131.572 55.0272 131.898 54.1862L133.624 49.7956H132.953L132.031 52.3259C131.907 52.6637 131.766 53.119 131.766 53.119H131.752C131.752 53.119 131.602 52.6637 131.478 52.3259L130.526 49.7956H129.839L131.415 53.7396L131.259 54.1398C131.104 54.5328 130.924 54.6357 130.659 54.6357C130.511 54.6433 130.363 54.6133 130.229 54.5487H130.198V55.1142C130.371 55.1853 130.526 55.2012 130.768 55.2012ZM135.241 53.8571H136.302V48.2412H135.241V53.8571ZM138.897 53.976C140.137 53.976 140.988 53.048 140.988 51.8459C140.988 50.6439 140.138 49.7173 138.897 49.7173C137.657 49.7173 136.806 50.6453 136.806 51.8459C136.806 53.0494 137.656 53.976 138.897 53.976ZM138.897 53.1582C138.242 53.1582 137.883 52.6318 137.883 51.8459C137.883 51.0615 138.242 50.5264 138.897 50.5264C139.545 50.5264 139.911 51.0615 139.911 51.8459C139.911 52.6318 139.545 53.1582 138.897 53.1582ZM143.244 55.2317C143.837 55.2317 144.352 55.091 144.687 54.7764C144.984 54.5009 145.164 54.1166 145.164 53.5511V49.8275H144.141V50.2524H144.125C143.884 49.9145 143.518 49.7173 143.017 49.7173C142.004 49.7173 141.286 50.4873 141.286 51.6893C141.286 52.9073 142.16 53.6135 143.05 53.6135C143.557 53.6135 143.861 53.4105 144.094 53.1422H144.118V53.583C144.118 54.1326 143.83 54.424 143.228 54.424C142.737 54.424 142.511 54.2268 142.425 53.9745H141.372C141.48 54.7604 142.151 55.2317 143.244 55.2317ZM143.23 52.758C142.683 52.758 142.323 52.3578 142.323 51.6734C142.323 50.9977 142.683 50.5743 143.221 50.5743C143.861 50.5743 144.173 51.076 144.173 51.6661C144.173 52.2635 143.899 52.758 143.228 52.758H143.23ZM147.743 53.976C148.983 53.976 149.834 53.048 149.834 51.8459C149.834 50.6439 148.983 49.7173 147.743 49.7173C146.501 49.7173 145.652 50.6453 145.652 51.8459C145.652 53.0494 146.501 53.976 147.743 53.976ZM147.743 53.1582C147.088 53.1582 146.728 52.6318 146.728 51.8459C146.728 51.0615 147.088 50.5264 147.743 50.5264C148.389 50.5264 148.757 51.0615 148.757 51.8459C148.757 52.6318 148.389 53.1582 147.743 53.1582ZM150.326 53.8571H151.387V49.8275H150.326V53.8571ZM150.326 49.1997H151.387V48.2412H150.326V49.1997ZM152.071 55.1766H153.133V53.4032H153.147C153.375 53.7498 153.74 53.9774 154.302 53.9774C155.332 53.9774 156.034 53.1509 156.034 51.8474C156.034 50.5902 155.356 49.7188 154.295 49.7188C154.063 49.715 153.835 49.769 153.629 49.8761C153.424 49.9831 153.248 50.1398 153.117 50.3321H153.094V49.829H152.071V55.1795V55.1766ZM154.076 53.0886C153.444 53.0886 153.108 52.6086 153.108 51.8778C153.108 51.1557 153.375 50.5815 154.037 50.5815C154.692 50.5815 154.957 51.1151 154.957 51.8778C154.957 52.6405 154.614 53.0886 154.076 53.0886ZM158.151 53.976C159.149 53.976 159.836 53.4888 159.836 52.6797C159.836 51.7372 159.094 51.5487 158.423 51.4066C157.854 51.2891 157.324 51.2572 157.324 50.9121C157.324 50.6221 157.597 50.4626 158.01 50.4626C158.464 50.4626 158.736 50.6221 158.783 51.0528H159.742C159.664 50.2437 159.08 49.7188 158.026 49.7188C157.113 49.7188 156.396 50.1335 156.396 51.0064C156.396 51.8851 157.097 52.0823 157.816 52.2244C158.361 52.3331 158.868 52.3723 158.868 52.758C158.868 53.0407 158.603 53.222 158.135 53.222C157.66 53.222 157.332 53.0175 157.261 52.5535H156.279C156.341 53.409 156.989 53.976 158.151 53.976ZM163.865 53.8571V49.8275H162.804V52.1533C162.804 52.6869 162.498 53.0639 162 53.0639C161.548 53.0639 161.336 52.8044 161.336 52.3331V49.8275H160.284V52.5144C160.284 53.3945 160.783 53.9673 161.672 53.9673C162.233 53.9673 162.546 53.7556 162.82 53.3873H162.843V53.8571H163.865ZM164.55 53.8571H165.612V51.5182C165.612 50.9832 165.9 50.6381 166.329 50.6381C166.719 50.6381 166.945 50.8744 166.945 51.3297V53.8585H168.006V51.5182C168.006 50.9832 168.28 50.6381 168.725 50.6381C169.115 50.6381 169.341 50.8744 169.341 51.3297V53.8585H170.403V51.1485C170.403 50.2683 169.926 49.7188 169.084 49.7188C168.577 49.7188 168.155 49.9856 167.883 50.4264H167.867C167.771 50.2123 167.614 50.0313 167.417 49.9056C167.22 49.7798 166.991 49.7149 166.758 49.7188C166.524 49.7128 166.293 49.7703 166.088 49.885C165.884 49.9998 165.714 50.1677 165.596 50.3713H165.573V49.829H164.55V53.86V53.8571Z" fill="#0A0A0A"/>
<path d="M170.612 3.11561C170.612 1.40026 171.993 0.00825679 173.697 0.00825679H175.754C176.573 0.00825679 177.358 0.335637 177.936 0.918379C178.515 1.50112 178.84 2.29149 178.84 3.11561C178.84 3.93973 178.515 4.73009 177.936 5.31284C177.358 5.89558 176.573 6.22296 175.754 6.22296H173.697C173.291 6.22296 172.89 6.14257 172.516 5.9864C172.141 5.83022 171.801 5.60131 171.515 5.31275C171.229 5.02418 171.001 4.68162 170.846 4.30463C170.692 3.92764 170.612 3.5236 170.612 3.11561ZM84.225 20.7201C84.225 32.1577 75.0177 41.4304 63.6575 41.4304C52.2988 41.4304 43.09 32.1577 43.09 20.7201C43.09 9.27956 52.2988 0.00970679 63.6575 0.00970679C75.0177 0.00970679 84.225 9.27956 84.225 20.7201ZM39.0781 20.6171C40.2157 20.6171 41.146 21.5451 41.0322 22.6848C40.6435 26.585 39.1634 30.2941 36.7642 33.3809C34.3649 36.4678 31.145 38.8056 27.4785 40.1227C23.812 41.4398 19.8496 41.6822 16.0518 40.8215C12.254 39.9609 8.77672 38.0327 6.02409 35.261C3.27146 32.4892 1.35653 28.9878 0.501847 25.1636C-0.352837 21.3394 -0.112174 17.3495 1.19586 13.6575C2.5039 9.96562 4.8256 6.72329 7.89114 4.30737C10.9567 1.89146 14.6402 0.40117 18.5135 0.00970679C19.6439 -0.106293 20.5669 0.833307 20.5669 1.97591V18.5451C20.5669 19.6906 21.4885 20.6171 22.6247 20.6171H39.0781ZM113.021 45.5731C114.657 45.5731 116.227 46.2277 117.384 47.3929C118.541 48.5581 119.191 50.1385 119.191 51.7863C119.191 53.4342 118.541 55.0145 117.384 56.1797C116.227 57.345 114.657 57.9996 113.021 57.9996H102.738C101.101 57.9996 99.5317 57.345 98.3745 56.1797C97.2173 55.0145 96.5672 53.4342 96.5672 51.7863C96.5672 50.1385 97.2173 48.5581 98.3745 47.3929C99.5317 46.2277 101.101 45.5731 102.738 45.5731H113.021ZM106.85 41.4304C118.21 41.4304 127.419 32.1577 127.419 20.7201C127.424 17.2066 126.537 13.7502 124.843 10.6788L128.241 7.25681C128.633 6.86245 128.943 6.39433 129.155 5.87915C129.367 5.36398 129.476 4.81185 129.476 4.25428C129.476 3.69672 129.366 3.14464 129.154 2.62957C128.942 2.1145 128.632 1.64652 128.24 1.25236C127.848 0.858194 127.384 0.545565 126.872 0.332318C126.36 0.119072 125.812 0.00938474 125.258 0.00951939C124.705 0.00965404 124.156 0.119608 123.645 0.333103C123.133 0.546598 122.668 0.859454 122.277 1.25381L119.311 4.24081C115.732 1.48857 111.352 0.000960643 106.849 0.00825679C95.4916 0.00970679 86.2842 9.27956 86.2842 20.7201C86.2842 32.1577 95.4916 41.4304 106.85 41.4304ZM170.612 20.7201C170.612 32.1577 161.403 41.4304 150.043 41.4304C138.684 41.4304 129.476 32.1577 129.476 20.7201C129.476 9.27956 138.684 0.00970679 150.043 0.00970679C161.403 0.00970679 170.612 9.28101 170.612 20.7201Z" fill="#0A0A0A"/>
</svg>
