<svg width="137" height="120" viewBox="0 0 137 120" fill="none" xmlns="http://www.w3.org/2000/svg">
<path d="M29.8481 102.555H35.8987C35.8335 103.165 35.7028 104.363 35.2675 105.213C33.8963 108.154 30.7405 109.788 24.7553 109.788C19.967 109.788 16.8546 108.59 15.1788 106.564C14.0252 105.213 13.4375 103.339 13.4375 100.943C13.4375 98.7639 13.9817 96.9555 15.0698 95.6264C16.8111 93.4478 19.9452 92.1406 24.8641 92.1406C31.5675 92.1406 34.3534 94.5372 35.3764 97.0863C35.7246 97.9795 35.8335 98.9818 35.8552 99.5265H29.8046C29.7827 99.1342 29.6305 98.6331 29.3693 98.2627C28.7381 97.3478 27.3451 96.6723 24.7988 96.6723C22.4917 96.6723 20.8159 97.2605 20.054 98.4588C19.6623 99.0471 19.5099 99.9187 19.5099 101.008C19.5099 102.184 19.7058 102.991 20.1194 103.579C20.9683 104.842 22.8618 105.322 24.8206 105.322C27.1057 105.322 28.7379 104.864 29.4563 103.819C29.7176 103.448 29.8264 103.012 29.8481 102.555Z" fill="#0A0A0A"/>
<path d="M54.5907 104.973V109.527H38.2891V92.4238H44.1873V104.973H54.5907Z" fill="#0A0A0A"/>
<path d="M74.9055 109.527V105.278H62.652V103.056H74.4049V98.8946H62.652V96.6941H74.7532V92.4238H56.9062V109.527H74.9055Z" fill="#0A0A0A"/>
<path fill-rule="evenodd" clip-rule="evenodd" d="M92.8396 106.368H83.6115L82.0226 109.527H75.8633L84.9827 92.4238H92.0125L100.632 109.527H94.3415L92.8396 106.368ZM85.5267 102.533H90.9901L88.9439 98.3935L88.3344 96.8465L87.6816 98.4153L85.5267 102.533Z" fill="#0A0A0A"/>
<path fill-rule="evenodd" clip-rule="evenodd" d="M122.503 97.631C122.503 96.084 122.134 94.9728 121.349 94.1667C120.327 93.0773 118.563 92.4238 115.866 92.4238H102.262V109.527H108.074V103.492H113.362L117.606 109.527H124.093L118.935 102.555C120.087 102.381 121.024 101.683 121.632 100.855C122.176 100.093 122.503 98.9599 122.503 97.631ZM116.844 98.1756C116.844 98.4588 116.801 98.8075 116.648 99.0689C116.431 99.5047 115.866 99.679 114.929 99.679H108.094V96.5633H114.819C115.734 96.5633 116.344 96.7159 116.648 97.2823C116.801 97.5002 116.844 97.8489 116.844 98.1756Z" fill="#0A0A0A"/>
<path d="M90.4132 14.5301C90.4132 14.8135 90.3704 15.162 90.218 15.4234C90.0005 15.8592 89.4337 16.0335 88.4981 16.0335H81.6641V12.918H88.3892C89.3035 12.918 89.9132 13.0704 90.218 13.6369C90.3704 13.8548 90.4132 14.2033 90.4132 14.5301Z" fill="#0A0A0A"/>
<path d="M107.43 18.8877H112.893L110.846 14.748L110.236 13.2012L109.584 14.7699L107.43 18.8877Z" fill="#0A0A0A"/>
<path fill-rule="evenodd" clip-rule="evenodd" d="M3.49685 14.4894C4.20154 7.54345 10.0615 2.12305 17.1862 2.12305H119.816C127.416 2.12305 133.576 8.29019 133.576 15.8978V102.102C133.576 109.71 127.416 115.877 119.816 115.877H17.1862C9.5865 115.877 3.42578 109.71 3.42578 102.102V15.8978C3.42578 15.4223 3.44993 14.9526 3.49685 14.4894ZM6.29251 40.6508L52.542 56.309C53.8019 55.0292 55.5164 53.9168 57.579 53.0501C58.0532 52.8507 58.5426 52.6659 59.045 52.4959L39.7628 32.9112H54.8564L63.3297 51.4551C64.4487 51.2794 65.599 51.1675 66.765 51.1227C67.1529 51.1078 67.5408 51.1003 67.928 51.1003V32.9112H80.9991L72.5258 51.4555C73.8311 51.6607 75.0984 51.9533 76.3016 52.3304C77.8502 52.8159 79.2597 53.4307 80.4895 54.1519L116.711 32.9112H130.709V40.2627L77.6878 58.2135C76.5733 57.0814 74.9114 56.1687 72.912 55.5905C70.9128 55.0124 68.6662 54.7949 66.4561 54.9655C64.2461 55.136 62.1721 55.6872 60.496 56.549C58.8202 57.4109 57.6177 58.5449 57.0407 59.8075C56.4638 61.07 56.5383 62.4046 57.2548 63.6425C57.9713 64.8802 59.2978 65.9659 61.0661 66.7616C62.8346 67.5572 64.9658 68.0275 67.1902 68.113C68.4261 68.1605 69.6601 68.0882 70.844 67.902C71.7902 67.7534 72.7051 67.532 73.5626 67.2416L91.1349 85.0887H78.6982L72.525 71.5808C69.5098 72.0547 66.3384 72.0536 63.3297 71.581L57.1575 85.0887H44.7212L59.0449 70.5404C57.7038 70.0863 56.466 69.5302 55.3652 68.8848L27.7328 85.0887H6.29251V82.3855L52.5418 66.7272C51.4777 65.6463 50.7485 64.4573 50.3988 63.2151C49.9854 61.7468 50.1147 60.2491 50.767 58.8218L6.29251 51.8336V40.6508ZM130.709 82.7734L67.928 61.518L130.709 71.3827V82.7734ZM130.709 87.9584H6.29251V102.102C6.29251 108.125 11.1697 113.007 17.1862 113.007H119.816C125.832 113.007 130.709 108.125 130.709 102.102V87.9584ZM36.8245 19.2795V8.77808H30.9916V18.7565C30.9916 20.5431 29.3374 21.7414 26.5517 21.7414C23.6352 21.7414 22.0463 20.5867 22.0463 18.7347V8.77808H16.1481V18.7347C16.1481 23.9201 20.3924 26.1207 26.3123 26.1207C32.6458 26.1207 36.8245 23.8983 36.8245 19.2795ZM56.4684 25.8811V21.3274H46.065V8.77808H40.1668V25.8811H56.4684ZM73.9972 8.77808V13.0701H66.7715V25.8811H60.8079V13.0701H53.6039V8.77808H73.9972ZM96.072 13.9852C96.072 12.4384 95.7021 11.3272 94.9195 10.521C93.8972 9.43173 92.1333 8.77808 89.4344 8.77808H75.8318V25.8811H81.6428V19.8459H86.9317L91.176 25.8811H97.6612L92.5032 18.9091C93.6574 18.7347 94.5924 18.0375 95.2021 17.2097C95.7467 16.4473 96.072 15.3143 96.072 13.9852ZM114.742 22.7218H105.513L103.926 25.8811H97.7657L106.885 8.77808H113.915L122.534 25.8811H116.244L114.742 22.7218Z" fill="#0A0A0A"/>
</svg>
