<svg width="170" height="88" viewBox="0 0 170 88" fill="none" xmlns="http://www.w3.org/2000/svg">
<path d="M43.0742 43.2546L43.4223 43.1807H72.3717L83.2498 54.1048H53.879L43.0742 43.2546Z" fill="#0A0A0A"/>
<path d="M33.7576 43.1807L4.38672 43.1808L15.2648 54.105H33.7573L33.7576 43.1807Z" fill="#0A0A0A"/>
<path d="M93.3594 11.7998H97.8707V25.8771H105.619V29.6909H93.3594V11.7998Z" fill="#0A0A0A"/>
<path d="M113.81 30.075C112.298 30.075 110.973 29.802 109.834 29.2559C108.696 28.6928 107.812 27.9251 107.183 26.9524C106.571 25.9627 106.266 24.8281 106.266 23.5482C106.266 22.2685 106.571 21.1423 107.183 20.1697C107.812 19.18 108.696 18.4121 109.834 17.8662C110.973 17.303 112.298 17.0215 113.81 17.0215C115.323 17.0215 116.648 17.303 117.787 17.8662C118.925 18.4121 119.8 19.18 120.412 20.1697C121.04 21.1423 121.355 22.2685 121.355 23.5482C121.355 24.8281 121.04 25.9627 120.412 26.9524C119.8 27.9251 118.925 28.6928 117.787 29.2559C116.648 29.802 115.323 30.075 113.81 30.075ZM113.81 26.5685C114.711 26.5685 115.425 26.304 115.951 25.7751C116.495 25.229 116.767 24.4868 116.767 23.5482C116.767 22.6097 116.495 21.876 115.951 21.3469C115.425 20.801 114.711 20.528 113.81 20.528C112.91 20.528 112.188 20.801 111.644 21.3469C111.117 21.876 110.854 22.6097 110.854 23.5482C110.854 24.4868 111.117 25.229 111.644 25.7751C112.188 26.304 112.91 26.5685 113.81 26.5685Z" fill="#0A0A0A"/>
<path d="M129.779 35.578C128.964 35.578 128.14 35.5012 127.306 35.3476C126.491 35.1941 125.787 34.9892 125.192 34.7333V31.6107C126.534 32.1908 128.063 32.4811 129.779 32.4811C131.02 32.4811 131.912 32.225 132.455 31.713C133.016 31.2012 133.296 30.4505 133.296 29.4607V28.7184C132.804 29.145 132.192 29.4778 131.462 29.7166C130.748 29.9556 129.983 30.075 129.167 30.075C127.877 30.075 126.737 29.802 125.753 29.2559C124.767 28.7101 123.994 27.942 123.432 26.9524C122.889 25.9627 122.617 24.8281 122.617 23.5482C122.617 22.2514 122.889 21.1081 123.432 20.1185C123.977 19.1288 124.741 18.3696 125.727 17.8405C126.712 17.2945 127.843 17.0215 129.116 17.0215C130.867 17.0215 132.311 17.559 133.45 18.6339V17.4054H137.782V28.8465C137.782 30.9794 137.129 32.6345 135.82 33.812C134.528 34.9892 132.515 35.578 129.779 35.578ZM130.288 26.594C130.986 26.594 131.606 26.4149 132.149 26.0565C132.693 25.6982 133.076 25.2205 133.296 24.6232V22.4733C133.058 21.876 132.667 21.4068 132.124 21.0655C131.58 20.7072 130.968 20.528 130.288 20.528C129.372 20.528 128.632 20.801 128.072 21.3469C127.511 21.876 127.231 22.6013 127.231 23.5227C127.231 24.4611 127.511 25.2119 128.072 25.7751C128.632 26.3211 129.372 26.594 130.288 26.594Z" fill="#0A0A0A"/>
<path d="M146.466 30.075C144.954 30.075 143.628 29.802 142.49 29.2559C141.352 28.6928 140.468 27.9251 139.84 26.9524C139.228 25.9627 138.922 24.8281 138.922 23.5482C138.922 22.2685 139.228 21.1423 139.84 20.1697C140.468 19.18 141.352 18.4121 142.49 17.8662C143.628 17.303 144.954 17.0215 146.466 17.0215C147.979 17.0215 149.303 17.303 150.443 17.8662C151.581 18.4121 152.456 19.18 153.068 20.1697C153.697 21.1423 154.011 22.2685 154.011 23.5482C154.011 24.8281 153.697 25.9627 153.068 26.9524C152.456 27.9251 151.581 28.6928 150.443 29.2559C149.303 29.802 147.979 30.075 146.466 30.075ZM146.466 26.5685C147.367 26.5685 148.08 26.304 148.608 25.7751C149.151 25.229 149.423 24.4868 149.423 23.5482C149.423 22.6097 149.151 21.876 148.608 21.3469C148.08 20.801 147.367 20.528 146.466 20.528C145.566 20.528 144.843 20.801 144.3 21.3469C143.773 21.876 143.51 22.6097 143.51 23.5482C143.51 24.4868 143.773 25.229 144.3 25.7751C144.843 26.304 145.566 26.5685 146.466 26.5685Z" fill="#0A0A0A"/>
<path d="M93.3594 36.2764H97.8707V54.1675H93.3594V36.2764Z" fill="#0A0A0A"/>
<path d="M100.156 41.8819H104.489V43.1104C105.627 42.0356 107.072 41.498 108.822 41.498C110.096 41.498 111.227 41.771 112.211 42.3171C113.197 42.846 113.961 43.6053 114.506 44.5949C115.049 45.5675 115.321 46.7024 115.321 47.9991C115.321 49.2788 115.049 50.4221 114.506 51.4288C113.961 52.4185 113.197 53.1866 112.211 53.7323C111.244 54.2785 110.113 54.5514 108.822 54.5514C108.006 54.5514 107.225 54.4235 106.477 54.1676C105.746 53.9287 105.135 53.5959 104.642 53.1693V59.773H100.156V41.8819ZM107.65 51.045C108.567 51.045 109.306 50.772 109.867 50.2259C110.427 49.6799 110.707 48.9376 110.707 47.9991C110.707 47.0607 110.427 46.327 109.867 45.7979C109.306 45.252 108.567 44.979 107.65 44.979C106.97 44.979 106.358 45.1581 105.815 45.5165C105.271 45.8576 104.88 46.327 104.642 46.9241V49.0997C104.88 49.697 105.271 50.1747 105.815 50.533C106.358 50.8744 106.97 51.045 107.65 51.045Z" fill="#0A0A0A"/>
<path d="M122.009 54.5514C121.023 54.5514 119.994 54.449 118.924 54.2443C117.854 54.0567 117.004 53.7837 116.376 53.4254V50.1236C117.072 50.533 117.904 50.8744 118.873 51.1474C119.859 51.4033 120.76 51.5313 121.575 51.5313C122.17 51.5313 122.603 51.4885 122.875 51.4033C123.147 51.318 123.282 51.1474 123.282 50.8913C123.282 50.6867 123.19 50.5246 123.002 50.4052C122.833 50.2687 122.51 50.1321 122.034 49.9955C121.575 49.842 121.04 49.6799 120.428 49.5092C119.391 49.2021 118.576 48.8863 117.981 48.5622C117.386 48.238 116.945 47.8286 116.656 47.3337C116.368 46.8389 116.223 46.2159 116.223 45.4651C116.223 44.1344 116.741 43.1445 117.778 42.4963C118.831 41.8307 120.267 41.498 122.084 41.498C122.968 41.498 123.894 41.5919 124.863 41.7795C125.849 41.9673 126.587 42.2147 127.081 42.5218V45.7724C126.57 45.4311 125.891 45.1495 125.042 44.9278C124.208 44.706 123.427 44.5949 122.696 44.5949C122.119 44.5949 121.669 44.6546 121.346 44.7741C121.023 44.8765 120.862 45.0643 120.862 45.3373C120.862 45.5932 121.023 45.7895 121.346 45.9259C121.669 46.0624 122.246 46.2332 123.079 46.4378C123.622 46.5742 123.853 46.6341 123.767 46.617C124.854 46.9071 125.695 47.2312 126.29 47.5896C126.884 47.9481 127.301 48.3745 127.539 48.8695C127.794 49.3471 127.922 49.9614 127.922 50.7122C127.922 51.8896 127.412 52.8282 126.392 53.5276C125.389 54.2102 123.928 54.5514 122.009 54.5514Z" fill="#0A0A0A"/>
<path d="M134.617 54.5514C132.935 54.5514 131.669 54.0822 130.819 53.1437C129.987 52.2051 129.57 50.9682 129.57 49.4324V41.8818H134.056V48.9204C134.056 50.3367 134.693 51.0449 135.967 51.0449C136.546 51.0449 137.072 50.9083 137.548 50.6354C138.024 50.3624 138.414 49.9613 138.72 49.4324V41.8818H143.206V54.1675H138.873V52.8364C138.347 53.3996 137.71 53.8263 136.961 54.1163C136.214 54.4063 135.432 54.5514 134.617 54.5514Z" fill="#0A0A0A"/>
<path d="M145.504 41.8819H149.658V43.2128C150.168 42.6669 150.754 42.2489 151.417 41.9586C152.08 41.6515 152.785 41.498 153.532 41.498C154.45 41.498 155.181 41.6344 155.725 41.9074C156.285 42.1806 156.735 42.59 157.075 43.1361C157.584 42.6241 158.204 42.2232 158.936 41.9331C159.666 41.6431 160.405 41.498 161.152 41.498C162.767 41.498 163.914 41.916 164.594 42.752C165.274 43.5712 165.614 44.757 165.614 46.3099V54.1676H161.331V46.9498C161.331 46.2673 161.203 45.7724 160.949 45.4651C160.694 45.1581 160.269 45.0045 159.674 45.0045C158.91 45.0045 158.29 45.2776 157.815 45.8234C157.832 46.1136 157.84 46.5573 157.84 47.1545V54.1676H153.558V46.7707C153.558 46.1392 153.447 45.687 153.226 45.414C153.006 45.1411 152.615 45.0045 152.054 45.0045C151.188 45.0045 150.439 45.4908 149.812 46.4634V54.1676H145.504V41.8819Z" fill="#0A0A0A"/>
<path d="M43.4263 43.1811L43.078 43.2552L53.8823 54.1053V83.6004H44.6359L33.7578 72.6762H43.0042V43.1809H33.7578V33.8957H43.0042V4.40039L53.8823 15.3245V33.8955L43.0042 33.8957V43.1809L43.4263 43.1811Z" fill="#555555"/>
<path d="M72.375 43.1811L83.2531 54.1052V44.8197L72.375 33.8955V43.1811Z" fill="#555555"/>
<path d="M93.9961 62.5654H100.597C102.466 62.5654 103.918 63.0091 104.956 63.8965C106.008 64.7837 106.536 66.0976 106.536 67.838C106.536 69.5956 106.017 70.9096 104.981 71.7799C103.944 72.6501 102.483 73.0851 100.597 73.0851H95.984V80.4565H93.9961V62.5654ZM100.444 71.3959C101.719 71.3959 102.722 71.14 103.452 70.628C104.183 70.0991 104.547 69.1691 104.547 67.838C104.547 66.4901 104.183 65.5601 103.452 65.0483C102.722 64.5192 101.719 64.2549 100.444 64.2549H95.984V71.3959H100.444Z" fill="#555555"/>
<path d="M109.082 61.542H111.044V80.4569H109.082V61.542Z" fill="#555555"/>
<path d="M119.552 80.8406C117.921 80.8406 116.663 80.3969 115.779 79.5095C114.913 78.6223 114.48 77.4364 114.48 75.9519V68.1709H116.442V76.0543C116.442 78.2043 117.555 79.2793 119.781 79.2793C120.716 79.2793 121.531 79.0745 122.229 78.6651C122.942 78.2553 123.579 77.607 124.139 76.7197V68.1709H126.103V80.4566H124.191V78.6137C123.086 80.0982 121.54 80.8406 119.552 80.8406Z" fill="#555555"/>
<path d="M133.922 80.8407C133.123 80.8407 132.265 80.7212 131.347 80.4823C130.43 80.2604 129.717 79.979 129.206 79.6375V77.974C129.852 78.3665 130.592 78.682 131.424 78.9209C132.273 79.1599 133.089 79.2792 133.871 79.2792C134.924 79.2792 135.681 79.1342 136.139 78.8441C136.615 78.537 136.853 78.0849 136.853 77.4877C136.853 77.0269 136.751 76.6686 136.547 76.4127C136.343 76.1395 136.004 75.9007 135.527 75.696C135.052 75.4912 134.312 75.2523 133.311 74.9793C132.325 74.7064 131.535 74.4248 130.94 74.1347C130.363 73.8274 129.92 73.4436 129.614 72.9828C129.309 72.5222 129.156 71.9335 129.156 71.2168C129.156 70.1077 129.597 69.263 130.481 68.6829C131.381 68.0856 132.571 67.7871 134.049 67.7871C134.847 67.7871 135.595 67.8638 136.293 68.0173C137.006 68.1539 137.6 68.3501 138.077 68.6062V70.2698C137.583 69.9968 136.988 69.7835 136.293 69.6298C135.595 69.4593 134.873 69.3739 134.126 69.3739C133.14 69.3739 132.393 69.5189 131.882 69.809C131.373 70.0992 131.118 70.5684 131.118 71.2168C131.118 71.6605 131.203 72.0018 131.373 72.2406C131.561 72.4794 131.891 72.7014 132.367 72.9061C132.86 73.0939 133.642 73.3327 134.712 73.6227C136.241 74.0494 137.303 74.5527 137.897 75.133C138.509 75.696 138.815 76.481 138.815 77.4877C138.815 78.5284 138.408 79.3475 137.592 79.9448C136.793 80.542 135.57 80.8407 133.922 80.8407Z" fill="#555555"/>
</svg>
