<svg width="200" height="60" viewBox="0 0 200 60" fill="none" xmlns="http://www.w3.org/2000/svg">
<g clip-path="url(#clip0_92_3)">
<path fill-rule="evenodd" clip-rule="evenodd" d="M20.6667 9.6875V50H10V9.6875H20.6667Z" fill="white"/>
<path fill-rule="evenodd" clip-rule="evenodd" d="M26 9.6875H48.6667C56.0305 9.6875 62 15.7037 62 23.125C62 30.5464 56.0305 36.5625 48.6667 36.5625H36.6667V50H26V9.6875ZM36.6667 25.8125H48.6667C50.1395 25.8125 51.3333 24.6093 51.3333 23.125C51.3333 21.6407 50.1395 20.4375 48.6667 20.4375H36.6667V25.8125Z" fill="white"/>
<path fill-rule="evenodd" clip-rule="evenodd" d="M102 9.6875V30.5156C102 35.3395 105.88 39.25 110.667 39.25C115.453 39.25 119.333 35.3395 119.333 30.5156V9.6875H130V30.5156C130 41.2766 121.344 50 110.667 50C99.9891 50 91.3334 41.2766 91.3334 30.5156V9.6875H102Z" fill="white"/>
<path fill-rule="evenodd" clip-rule="evenodd" d="M66 28.5C66 18.1101 74.3573 9.6875 84.6667 9.6875H87.3333V20.4375H84.6667C80.2484 20.4375 76.6667 24.0472 76.6667 28.5V29.8438C76.6667 40.9757 67.7124 50 56.6667 50H55.3334V39.25H56.6667C61.8214 39.25 66 35.0387 66 29.8438V28.5Z" fill="white"/>
<path d="M190 11.0312C190 13.2577 188.21 15.0625 186 15.0625C183.791 15.0625 182 13.2577 182 11.0312C182 8.80485 183.791 7 186 7C188.21 7 190 8.80485 190 11.0312Z" fill="white"/>
<path d="M141.453 50L146.543 28.5194L150.328 41.4422C152.583 49.1497 163.416 49.1497 165.673 41.4422L169.457 28.5194L174.547 50H185.513L177.51 16.2229C175.606 8.19045 164.375 7.89304 162.055 15.8138L158 29.6645L153.945 15.8138C151.626 7.89309 140.393 8.1904 138.49 16.2229L130.487 50H141.453Z" fill="white"/>
</g>
<defs>
<clipPath id="clip0_92_3">
<rect width="180" height="43" fill="white" transform="translate(10 7)"/>
</clipPath>
</defs>
</svg>
