<svg width="180" height="49" viewBox="0 0 180 49" fill="none" xmlns="http://www.w3.org/2000/svg">
<g clip-path="url(#clip0_33_480)">
<path fill-rule="evenodd" clip-rule="evenodd" d="M6.95356 3.1776V0.220703H0.128906V27.4664C0.128906 39.2477 9.77282 48.7985 21.6692 48.7985C33.5656 48.7985 43.2096 39.2477 43.2096 27.4664V0.220703H36.3848V3.1776H24.8683V0.220703H18.0436V3.1776H6.95356ZM18.0436 41.594C11.7297 40.0098 7.04262 34.3834 6.9548 27.6587C7.68217 27.8332 8.39646 28.0635 9.09104 28.3484C10.8506 29.0702 12.4493 30.1281 13.7959 31.4618C15.1426 32.7954 16.2108 34.3786 16.9397 36.1211C17.6655 37.8565 18.0405 39.7159 18.0436 41.594ZM18.6217 26.6827C19.6904 27.741 20.6398 28.9062 21.4559 30.1575C22.272 28.9062 23.2215 27.741 24.2901 26.6827C25.3588 25.6243 26.5354 24.6841 27.7989 23.8759C26.5354 23.0677 25.3588 22.1274 24.2901 21.0691C23.2215 20.0107 22.272 18.8455 21.4559 17.5943C20.6398 18.8455 19.6904 20.0107 18.6217 21.0691C17.553 22.1274 16.3764 23.0677 15.113 23.8759C16.3764 24.6841 17.553 25.6243 18.6217 26.6827ZM36.3845 27.563C36.3392 34.4808 31.4268 40.2545 24.8683 41.6943V41.6173C24.8683 39.7312 25.2434 37.8636 25.9722 36.1211C26.701 34.3786 27.7692 32.7954 29.1159 31.4618C30.4625 30.1281 32.0613 29.0702 33.8208 28.3484C34.651 28.0079 35.5094 27.7453 36.3845 27.563ZM17.5263 9.93622C17.3669 10.5114 17.1711 11.0773 16.9397 11.6306C16.2108 13.3731 15.1426 14.9564 13.7959 16.29C12.4493 17.6236 10.8506 18.6815 9.09104 19.4033C8.39603 19.6884 7.68132 19.9189 6.95356 20.0933V9.93622H17.5263ZM36.3848 20.1889V9.93622H25.3856C25.545 10.5114 25.7407 11.0773 25.9722 11.6306C26.701 13.3731 27.7692 14.9564 29.1159 16.29C30.4625 17.6236 32.0613 18.6815 33.8208 19.4033C34.6511 19.7439 35.5096 20.0065 36.3848 20.1889Z" fill="#0A0A0A"/>
<path d="M54.6328 4.15625V22.1861H66.1183V18.9189H58.4205V4.15625H54.6328Z" fill="#0A0A0A"/>
<path d="M112.477 8.97168V22.1855H116.142V8.97168H112.477Z" fill="#0A0A0A"/>
<path d="M112.477 4.15625V7.78643H116.142V4.15625H112.477Z" fill="#0A0A0A"/>
<path fill-rule="evenodd" clip-rule="evenodd" d="M118.094 27.0261V8.97205H121.515V10.3429C121.91 9.88218 122.399 9.51396 122.981 9.23826C123.747 8.86716 124.619 8.68164 125.596 8.68164C126.867 8.68164 128.015 8.98819 129.042 9.60128C130.068 10.2144 130.883 11.0453 131.485 12.094C132.088 13.1266 132.39 14.2882 132.39 15.5789C132.39 16.8535 132.088 18.0152 131.485 19.0639C130.899 20.1126 130.092 20.9435 129.066 21.5566C128.04 22.1697 126.875 22.4763 125.571 22.4763C124.659 22.4763 123.812 22.3149 123.03 21.9922C122.549 21.7791 122.125 21.5054 121.759 21.1711V27.0261H118.094ZM125.132 19.2091C125.816 19.2091 126.419 19.0558 126.94 18.7493C127.461 18.4427 127.869 18.0152 128.162 17.4666C128.455 16.9181 128.602 16.2888 128.602 15.5789C128.602 14.869 128.455 14.2479 128.162 13.7155C127.869 13.1669 127.461 12.7393 126.94 12.4328C126.419 12.1101 125.816 11.9488 125.132 11.9488C124.48 11.9488 123.893 12.1021 123.372 12.4086C122.867 12.7151 122.468 13.1427 122.175 13.6913C121.898 14.2398 121.759 14.869 121.759 15.5789C121.759 16.2888 121.898 16.9181 122.175 17.4666C122.468 18.0152 122.867 18.4427 123.372 18.7493C123.893 19.0558 124.48 19.2091 125.132 19.2091Z" fill="#0A0A0A"/>
<path d="M135.195 21.4598C136.287 22.1375 137.566 22.4763 139.032 22.4763C140.075 22.4763 140.979 22.3069 141.744 21.968C142.51 21.6131 143.105 21.1291 143.529 20.516C143.968 19.9029 144.188 19.1849 144.188 18.3621C144.188 17.4102 143.895 16.6115 143.309 15.9662C142.722 15.3047 141.875 14.8126 140.767 14.4899L138.641 13.8607C138.315 13.7639 138.038 13.659 137.81 13.5461C137.598 13.4331 137.444 13.304 137.346 13.1588C137.248 13.0136 137.199 12.8523 137.199 12.6748C137.199 12.336 137.329 12.0698 137.59 11.8762C137.867 11.6826 138.242 11.5858 138.714 11.5858C139.366 11.5858 139.944 11.7552 140.449 12.094C140.971 12.4167 141.329 12.8523 141.525 13.4008L144.237 12.1424C143.83 11.0453 143.129 10.1982 142.136 9.60128C141.158 8.98819 140.018 8.68164 138.714 8.68164C137.72 8.68164 136.841 8.8591 136.075 9.21405C135.309 9.55287 134.715 10.0288 134.291 10.6419C133.868 11.255 133.656 11.973 133.656 12.7958C133.656 13.7316 133.949 14.5463 134.535 15.2401C135.122 15.9178 135.961 16.4099 137.052 16.7164L139.325 17.3456C139.619 17.4263 139.863 17.5231 140.058 17.6361C140.254 17.749 140.4 17.8781 140.498 18.0233C140.596 18.1523 140.645 18.3137 140.645 18.5073C140.645 18.8784 140.506 19.1688 140.229 19.3785C139.953 19.5883 139.553 19.6931 139.032 19.6931C138.315 19.6931 137.663 19.4915 137.077 19.0881C136.49 18.6848 136.026 18.1281 135.684 17.4182L132.996 18.6767C133.387 19.8383 134.12 20.7661 135.195 21.4598Z" fill="#0A0A0A"/>
<path d="M159.539 22.1859V8.97205H162.96V10.5683C163.211 10.0853 163.561 9.69847 164.011 9.40769C164.761 8.92364 165.656 8.68164 166.699 8.68164C167.807 8.68164 168.777 8.96398 169.608 9.52866C170.101 9.84864 170.488 10.2345 170.766 10.6862C171.119 10.1751 171.539 9.76501 172.027 9.45605C172.841 8.93978 173.794 8.68164 174.886 8.68164C175.847 8.68164 176.694 8.89137 177.427 9.31087C178.177 9.73037 178.763 10.3193 179.187 11.0775C179.61 11.8197 179.822 12.6909 179.822 13.6913V22.1859H176.157V14.4657C176.157 13.9494 176.059 13.5057 175.864 13.1346C175.684 12.7636 175.423 12.4731 175.081 12.2634C174.739 12.0536 174.324 11.9488 173.835 11.9488C173.363 11.9488 172.947 12.0536 172.589 12.2634C172.247 12.4731 171.978 12.7636 171.782 13.1346C171.603 13.5057 171.513 13.9494 171.513 14.4657V22.1859H167.848V14.4657C167.848 13.9494 167.75 13.5057 167.555 13.1346C167.375 12.7636 167.115 12.4731 166.773 12.2634C166.431 12.0536 166.015 11.9488 165.526 11.9488C165.054 11.9488 164.638 12.0536 164.28 12.2634C163.938 12.4731 163.669 12.7636 163.473 13.1346C163.294 13.5057 163.205 13.9494 163.205 14.4657V22.1859H159.539Z" fill="#0A0A0A"/>
<path d="M150.433 22.4759C149.358 22.4759 148.438 22.25 147.672 21.7983C146.922 21.3304 146.352 20.685 145.961 19.8622C145.57 19.0393 145.375 18.0793 145.375 16.9823V8.97168H149.041V16.6918C149.041 17.192 149.138 17.6357 149.334 18.0229C149.546 18.394 149.839 18.6844 150.214 18.8941C150.588 19.1039 151.012 19.2088 151.484 19.2088C151.973 19.2088 152.397 19.1039 152.755 18.8941C153.13 18.6844 153.415 18.394 153.61 18.0229C153.822 17.6357 153.928 17.192 153.928 16.6918V8.97168H157.594V22.1855H154.172V20.5775C153.861 21.1576 153.421 21.6049 152.853 21.9193C152.169 22.2903 151.362 22.4759 150.433 22.4759Z" fill="#0A0A0A"/>
<path fill-rule="evenodd" clip-rule="evenodd" d="M103.914 22.4763C102.595 22.4763 101.389 22.1778 100.297 21.5808C99.2219 20.9839 98.3586 20.1691 97.7068 19.1365C97.0717 18.0878 96.7539 16.9019 96.7539 15.5789C96.7539 14.2398 97.0717 13.054 97.7068 12.0214C98.3586 10.9888 99.2219 10.174 100.297 9.57707C101.389 8.98012 102.595 8.68164 103.914 8.68164C105.234 8.68164 106.431 8.98012 107.506 9.57707C108.581 10.174 109.437 10.9888 110.072 12.0214C110.724 13.054 111.05 14.2398 111.05 15.5789C111.05 16.9019 110.724 18.0878 110.072 19.1365C109.437 20.1691 108.581 20.9839 107.506 21.5808C106.431 22.1778 105.234 22.4763 103.914 22.4763ZM103.914 19.2091C104.582 19.2091 105.16 19.0558 105.649 18.7493C106.154 18.4427 106.545 18.0152 106.822 17.4666C107.115 16.9181 107.262 16.2888 107.262 15.5789C107.262 14.869 107.115 14.2479 106.822 13.7155C106.545 13.1669 106.154 12.7393 105.649 12.4328C105.16 12.1101 104.582 11.9488 103.914 11.9488C103.246 11.9488 102.659 12.1101 102.154 12.4328C101.649 12.7393 101.25 13.1669 100.957 13.7155C100.68 14.2479 100.542 14.869 100.542 15.5789C100.542 16.2888 100.68 16.9181 100.957 17.4666C101.25 18.0152 101.649 18.4427 102.154 18.7493C102.659 19.0558 103.246 19.2091 103.914 19.2091Z" fill="#0A0A0A"/>
<path fill-rule="evenodd" clip-rule="evenodd" d="M85.8685 27.0019C86.748 27.3407 87.7013 27.5101 88.7276 27.5101C90.0145 27.5101 91.1469 27.252 92.1241 26.7356C93.118 26.2194 93.9002 25.5014 94.4705 24.5818C95.0404 23.6783 95.3257 22.6457 95.3257 21.484V8.97205H91.9045V10.3599C91.5018 9.89215 91.0454 9.52634 90.5357 9.26246C89.8191 8.87523 88.9801 8.68164 88.0187 8.68164C86.7971 8.68164 85.7055 8.95591 84.7441 9.50446C83.7831 10.053 83.0256 10.8113 82.4715 11.7794C81.9174 12.7313 81.6406 13.8284 81.6406 15.0707C81.6406 16.3131 81.9174 17.4263 82.4715 18.4105C83.0256 19.3785 83.7912 20.1449 84.7684 20.7096C85.7461 21.2581 86.8538 21.5324 88.092 21.5324C89.0535 21.5324 89.8925 21.3549 90.6091 21C90.9976 20.7988 91.3478 20.5432 91.6601 20.233V21.484C91.6601 22.0487 91.5376 22.5408 91.2937 22.9603C91.0655 23.3798 90.7315 23.6944 90.2917 23.9041C89.8515 24.13 89.3303 24.2429 88.7276 24.2429C87.9619 24.2429 87.3021 24.0655 86.748 23.7105C86.1939 23.3556 85.8275 22.8715 85.6484 22.2584L82.2514 23.4443C82.5287 24.2671 82.9765 24.9771 83.5955 25.574C84.231 26.1871 84.9885 26.663 85.8685 27.0019ZM90.2184 17.8538C89.762 18.112 89.2245 18.2411 88.6052 18.2411C87.9863 18.2411 87.4322 18.112 86.9434 17.8538C86.4712 17.5796 86.0963 17.2085 85.8194 16.7406C85.5588 16.2727 85.4283 15.7322 85.4283 15.1191C85.4283 14.4899 85.5588 13.9413 85.8194 13.4735C86.0963 12.9894 86.4712 12.6184 86.9434 12.3602C87.4322 12.0859 87.9863 11.9488 88.6052 11.9488C89.2083 11.9488 89.7376 12.0859 90.1936 12.3602C90.65 12.6184 91.0083 12.9894 91.2689 13.4735C91.5295 13.9413 91.6601 14.4899 91.6601 15.1191C91.6601 15.7484 91.5295 16.2969 91.2689 16.7648C91.0245 17.2327 90.6743 17.5957 90.2184 17.8538Z" fill="#0A0A0A"/>
<path fill-rule="evenodd" clip-rule="evenodd" d="M73.6174 22.4763C72.2976 22.4763 71.0922 22.1778 70.0007 21.5808C68.9254 20.9839 68.0621 20.1691 67.4103 19.1365C66.7748 18.0878 66.457 16.9019 66.457 15.5789C66.457 14.2398 66.7748 13.054 67.4103 12.0214C68.0621 10.9888 68.9254 10.174 70.0007 9.57707C71.0922 8.98012 72.2976 8.68164 73.6174 8.68164C74.9371 8.68164 76.1344 8.98012 77.2097 9.57707C78.285 10.174 79.1402 10.9888 79.7758 12.0214C80.4275 13.054 80.753 14.2398 80.753 15.5789C80.753 16.9019 80.4275 18.0878 79.7758 19.1365C79.1402 20.1691 78.285 20.9839 77.2097 21.5808C76.1344 22.1778 74.9371 22.4763 73.6174 22.4763ZM73.6174 19.2091C74.2853 19.2091 74.8637 19.0558 75.3525 18.7493C75.8576 18.4427 76.2487 18.0152 76.5255 17.4666C76.8185 16.9181 76.9653 16.2888 76.9653 15.5789C76.9653 14.869 76.8185 14.2479 76.5255 13.7155C76.2487 13.1669 75.8576 12.7393 75.3525 12.4328C74.8637 12.1101 74.2853 11.9488 73.6174 11.9488C72.9494 11.9488 72.3629 12.1101 71.8579 12.4328C71.3529 12.7393 70.9536 13.1669 70.6606 13.7155C70.3833 14.2479 70.2451 14.869 70.2451 15.5789C70.2451 16.2888 70.3833 16.9181 70.6606 17.4666C70.9536 18.0152 71.3529 18.4427 71.8579 18.7493C72.3629 19.0558 72.9494 19.2091 73.6174 19.2091Z" fill="#0A0A0A"/>
<path d="M57.3375 43.3029C58.1565 43.749 59.1051 43.972 60.1834 43.972C61.2753 43.972 62.224 43.749 63.0293 43.3029C63.8482 42.8569 64.4829 42.2486 64.9334 41.4779C65.3838 40.6939 65.609 39.8018 65.609 38.8015V28.623H63.9711V38.8015C63.9711 39.5315 63.8073 40.1735 63.4797 40.7277C63.1658 41.2684 62.7222 41.6942 62.1489 42.0051C61.5893 42.3027 60.9341 42.4514 60.1834 42.4514C59.4327 42.4514 58.7707 42.3027 58.1974 42.0051C57.6378 41.6942 57.1942 41.2684 56.8666 40.7277C56.5527 40.1735 56.3957 39.5315 56.3957 38.8015V28.623H54.7578V38.8015C54.7578 39.8018 54.983 40.6939 55.4335 41.4779C55.8839 42.2486 56.5186 42.8569 57.3375 43.3029Z" fill="#0A0A0A"/>
<path d="M79.4414 32.8613V43.7294H80.9769V32.8613H79.4414Z" fill="#0A0A0A"/>
<path d="M79.4414 28.623V30.8534H80.9769V28.623H79.4414Z" fill="#0A0A0A"/>
<path d="M121.355 43.7294V32.8613H122.891V43.7294H121.355Z" fill="#0A0A0A"/>
<path d="M121.355 30.8534V28.623H122.891V30.8534H121.355Z" fill="#0A0A0A"/>
<path d="M127.345 42.999C127.877 43.5667 128.635 43.8506 129.618 43.8506C129.74 43.8506 129.904 43.8371 130.109 43.81C130.314 43.7965 130.498 43.7695 130.662 43.7289V42.3704C130.553 42.384 130.423 42.3975 130.273 42.411C130.123 42.4245 129.993 42.4313 129.884 42.4313C129.433 42.4313 129.072 42.3502 128.799 42.1878C128.539 42.0256 128.355 41.8093 128.246 41.539C128.137 41.2551 128.082 40.9307 128.082 40.5657V34.3816H130.498V32.8609H128.082V30.3467H126.546V31.2591C126.546 31.7187 126.41 32.1039 126.137 32.4148C125.864 32.7122 125.495 32.8609 125.031 32.8609H124.52V34.3816H126.546V40.5657C126.546 41.6201 126.813 42.4313 127.345 42.999Z" fill="#0A0A0A"/>
<path d="M132.291 48.1292C132.524 48.1698 132.749 48.19 132.967 48.19C133.691 48.19 134.305 48.0414 134.81 47.744C135.315 47.4601 135.731 47.0816 136.059 46.6085C136.4 46.1354 136.68 45.6353 136.898 45.1081L141.914 32.8613H140.215L136.641 41.8325L133.049 32.8613H131.391L135.78 43.7374L135.383 44.662C135.042 45.446 134.694 45.9732 134.339 46.2436C133.984 46.5274 133.472 46.6694 132.803 46.6694C132.585 46.6694 132.367 46.6491 132.148 46.6085C131.943 46.5815 131.773 46.5612 131.636 46.5477V47.967C131.855 48.0481 132.073 48.1022 132.291 48.1292Z" fill="#0A0A0A"/>
<path d="M112.599 43.1821C113.39 43.7092 114.312 43.9728 115.363 43.9728C116.127 43.9728 116.803 43.8444 117.39 43.5876C117.977 43.3172 118.434 42.9455 118.761 42.4724C119.103 41.9991 119.273 41.4652 119.273 40.8704C119.273 40.1405 119.021 39.5052 118.516 38.9645C118.024 38.4238 117.335 38.0251 116.448 37.7682L114.626 37.2411C114.435 37.187 114.209 37.1059 113.95 36.9978C113.704 36.8896 113.486 36.7274 113.295 36.5111C113.104 36.2949 113.008 36.0042 113.008 35.6393C113.008 35.1662 113.192 34.7742 113.561 34.4633C113.93 34.1524 114.421 33.9969 115.035 33.9969C115.663 33.9969 116.229 34.1726 116.734 34.5241C117.253 34.862 117.649 35.3351 117.922 35.9434L119.232 35.3351C118.918 34.4835 118.379 33.8212 117.615 33.3481C116.864 32.8615 116.025 32.6182 115.097 32.6182C114.414 32.6182 113.793 32.7466 113.233 33.0034C112.674 33.2602 112.23 33.6252 111.903 34.0983C111.575 34.5714 111.411 35.1256 111.411 35.7609C111.411 36.4368 111.636 37.0315 112.087 37.5452C112.537 38.0589 113.268 38.4576 114.278 38.7415L115.854 39.1875C116.072 39.2416 116.325 39.3295 116.612 39.4511C116.898 39.5728 117.151 39.7485 117.369 39.9783C117.588 40.1946 117.697 40.492 117.697 40.8704C117.697 41.3841 117.472 41.8031 117.021 42.1275C116.571 42.4386 116.018 42.5941 115.363 42.5941C114.68 42.5941 114.052 42.3981 113.479 42.0059C112.919 41.6139 112.483 41.0867 112.169 40.4244L110.879 41.0326C111.234 41.9383 111.807 42.6549 112.599 43.1821Z" fill="#0A0A0A"/>
<path d="M105.25 43.7287V32.8607H106.786V34.0366C107.03 33.6828 107.351 33.3922 107.748 33.1648C108.28 32.8674 108.922 32.7188 109.672 32.7188H110.368V34.2394H109.406C108.615 34.2394 107.98 34.4827 107.502 34.9694C107.024 35.456 106.786 36.1454 106.786 37.0375V43.7287H105.25Z" fill="#0A0A0A"/>
<path fill-rule="evenodd" clip-rule="evenodd" d="M95.478 43.2429C96.3106 43.7295 97.2388 43.9728 98.2625 43.9728C99.0132 43.9728 99.6957 43.8512 100.31 43.6079C100.938 43.351 101.477 43.0199 101.927 42.6143C102.378 42.1951 102.712 41.7423 102.931 41.2557L101.62 40.5663C101.279 41.134 100.835 41.6071 100.289 41.9856C99.7434 42.3643 99.0678 42.5535 98.2625 42.5535C97.5664 42.5535 96.9112 42.3778 96.297 42.0262C95.6964 41.6747 95.2187 41.1813 94.8638 40.546C94.5878 40.0219 94.4458 39.4271 94.4377 38.7617H103.074C103.101 38.586 103.122 38.4171 103.135 38.2549C103.149 38.0791 103.156 37.9237 103.156 37.7885C103.156 37.1397 103.04 36.5111 102.808 35.9029C102.576 35.2811 102.241 34.7269 101.804 34.2402C101.368 33.7401 100.835 33.3481 100.207 33.0642C99.5933 32.7669 98.8903 32.6182 98.0987 32.6182C97.1023 32.6182 96.2014 32.8615 95.3961 33.3481C94.6045 33.8347 93.9766 34.5038 93.5125 35.3554C93.0484 36.1935 92.8164 37.16 92.8164 38.2549C92.8164 39.3498 93.0553 40.3298 93.533 41.1949C94.0107 42.06 94.6591 42.7427 95.478 43.2429ZM101.51 37.3424H94.462C94.5128 36.8631 94.6399 36.4305 94.8433 36.0448C95.1709 35.4095 95.6213 34.9161 96.1946 34.5646C96.7815 34.2132 97.4162 34.0375 98.0987 34.0375C98.7811 34.0375 99.3954 34.2132 99.9413 34.5646C100.487 34.9026 100.904 35.3689 101.19 35.9637C101.406 36.3814 101.512 36.841 101.51 37.3424Z" fill="#0A0A0A"/>
<path d="M86.4314 43.7294L82.1523 32.8613H83.8722L87.2 41.6621L90.5467 32.8613H92.2869L87.9669 43.7294H86.4314Z" fill="#0A0A0A"/>
<path d="M68.3164 43.7295V32.8615H69.852V34.2076C70.1075 33.8175 70.435 33.4905 70.8347 33.2264C71.4626 32.8209 72.186 32.6182 73.0049 32.6182C73.7829 32.6182 74.4791 32.7939 75.0933 33.1453C75.7211 33.4968 76.2125 33.9834 76.5674 34.6052C76.9359 35.2135 77.1202 35.9029 77.1202 36.6733V43.7295H75.5846V37.2613C75.5846 36.599 75.4618 36.038 75.2161 35.5784C74.9841 35.1189 74.6497 34.7674 74.2129 34.5241C73.7898 34.2673 73.2984 34.1389 72.7388 34.1389C72.1792 34.1389 71.681 34.2673 71.2442 34.5241C70.8074 34.7674 70.4662 35.1256 70.2205 35.5987C69.9748 36.0583 69.852 36.6125 69.852 37.2613V43.7295H68.3164Z" fill="#0A0A0A"/>
</g>
<defs>
<clipPath id="clip0_33_480">
<rect width="180" height="49" fill="white"/>
</clipPath>
</defs>
</svg>
