<svg width="180" height="69" viewBox="0 0 180 69" fill="none" xmlns="http://www.w3.org/2000/svg">
<g clip-path="url(#clip0_33_414)">
<path d="M42.7262 0C35.6968 0 28.9553 2.78312 23.9848 7.73711L7.76298 23.9048C2.79242 28.8588 0 35.5778 0 42.5838C0 57.1732 11.8665 69 26.5045 69C33.534 69 40.2755 66.2168 45.246 61.2628L56.4667 50.0795C56.4669 50.0797 56.4667 50.0793 56.4667 50.0795L89.16 17.4952C91.5339 15.1292 94.7536 13.8 98.1108 13.8C103.731 13.8 108.497 17.451 110.149 22.5034L120.467 12.2198C115.76 4.87218 107.506 0 98.1108 0C91.0814 0 84.3399 2.78312 79.3694 7.73711L35.4554 51.5048C33.0815 53.8708 29.8618 55.2 26.5045 55.2C19.5135 55.2 13.8462 49.5517 13.8462 42.5838C13.8462 39.2378 15.1798 36.0288 17.5537 33.6628L33.7754 17.4952C36.1493 15.1292 39.369 13.8 42.7262 13.8C48.3471 13.8 53.112 17.4512 54.7641 22.5037L65.0822 12.2201C60.3752 4.87232 52.1218 0 42.7262 0Z" fill="#0A0A0A"/>
<path d="M90.8408 51.5048C88.4669 53.8708 85.2472 55.2 81.89 55.2C76.2701 55.2 71.5054 51.5499 69.8528 46.4984L59.5352 56.7817C64.2424 64.1284 72.4954 69 81.89 69C88.9195 69 95.6609 66.2168 100.631 61.2628L144.545 17.4952C146.919 15.1292 150.139 13.8 153.496 13.8C160.487 13.8 166.155 19.4484 166.155 26.4162C166.155 29.7622 164.821 32.9712 162.447 35.3372L146.225 51.5048C143.852 53.8708 140.632 55.2 137.275 55.2C131.654 55.2 126.889 51.5492 125.237 46.4973L114.919 56.7808C119.626 64.1281 127.88 69 137.275 69C144.304 69 151.046 66.2168 156.016 61.2628L172.238 45.0952C177.208 40.1412 180.001 33.4222 180.001 26.4162C180.001 11.8269 168.134 0 153.496 0C146.467 0 139.725 2.78312 134.755 7.73711L90.8408 51.5048Z" fill="#0A0A0A"/>
</g>
<defs>
<clipPath id="clip0_33_414">
<rect width="180" height="69" fill="white"/>
</clipPath>
</defs>
</svg>
